<svg width="24" height="24" viewBox="0 0 24 24" fill="none" xmlns="http://www.w3.org/2000/svg">
<path d="M5 11H4V13H5V11ZM19 12L19.7071 12.7071L20.4142 12L19.7071 11.2929L19 12ZM12.7071 4.29289L12 3.58579L10.5858 5L11.2929 5.70711L12.7071 4.29289ZM11.2929 18.2929L10.5858 19L12 20.4142L12.7071 19.7071L11.2929 18.2929ZM5 13H19V11H5V13ZM11.2929 5.70711L18.2929 12.7071L19.7071 11.2929L12.7071 4.29289L11.2929 5.70711ZM18.2929 11.2929L11.2929 18.2929L12.7071 19.7071L19.7071 12.7071L18.2929 11.2929Z" fill="white"/>
</svg>
