<svg width="24" height="24" viewBox="0 0 24 24" fill="none" xmlns="http://www.w3.org/2000/svg">
<path d="M19 11H20V13H19V11ZM5 12L4.29289 12.7071L3.58579 12L4.29289 11.2929L5 12ZM11.2929 4.29289L12 3.58579L13.4142 5L12.7071 5.70711L11.2929 4.29289ZM12.7071 18.2929L13.4142 19L12 20.4142L11.2929 19.7071L12.7071 18.2929ZM19 13H5V11H19V13ZM12.7071 5.70711L5.70711 12.7071L4.29289 11.2929L11.2929 4.29289L12.7071 5.70711ZM5.70711 11.2929L12.7071 18.2929L11.2929 19.7071L4.29289 12.7071L5.70711 11.2929Z" fill="#0A004C"/>
</svg>
