<svg width="24" height="24" viewBox="0 0 24 24" fill="none" xmlns="http://www.w3.org/2000/svg">
<rect width="24" height="24" fill="white" fill-opacity="0.16"/>
<path d="M11.9998 15.333C14.4412 15.333 16.5765 16.383 17.7378 17.9497L16.5098 18.5303C15.5645 17.4103 13.8978 16.6663 11.9998 16.6663C10.1018 16.6663 8.43518 17.4103 7.48985 18.5303L6.26251 17.949C7.42385 16.3823 9.55851 15.333 11.9998 15.333ZM11.9998 5.33301C12.8839 5.33301 13.7317 5.6842 14.3569 6.30932C14.982 6.93444 15.3332 7.78229 15.3332 8.66634V10.6663C15.3331 11.5253 15.0015 12.3511 14.4074 12.9715C13.8133 13.5919 13.0027 13.9591 12.1445 13.9963L11.9998 13.9997C11.1158 13.9997 10.2679 13.6485 9.64282 13.0234C9.0177 12.3982 8.66651 11.5504 8.66651 10.6663V8.66634C8.66656 7.80737 8.99821 6.98157 9.59229 6.36116C10.1864 5.74075 10.997 5.37362 11.8552 5.33634L11.9998 5.33301ZM11.9998 6.66634C11.4897 6.66631 10.9988 6.86122 10.6277 7.2112C10.2565 7.56117 10.0331 8.03975 10.0032 8.54901L9.99985 8.66634V10.6663C9.99934 11.1869 10.2019 11.6872 10.5644 12.0609C10.9269 12.4345 11.4208 12.6521 11.9412 12.6674C12.4615 12.6827 12.9674 12.4945 13.3512 12.1427C13.735 11.791 13.9665 11.3034 13.9965 10.7837L13.9998 10.6663V8.66634C13.9998 8.13591 13.7891 7.6272 13.4141 7.25213C13.039 6.87705 12.5303 6.66634 11.9998 6.66634Z" fill="#2400FD"/>
</svg>
