<svg width="16" height="16" viewBox="0 0 16 16" fill="none" xmlns="http://www.w3.org/2000/svg">
<path d="M7.99978 11.333C10.4411 11.333 12.5765 12.383 13.7378 13.9497L12.5098 14.5303C11.5645 13.4103 9.89778 12.6663 7.99978 12.6663C6.10178 12.6663 4.43512 13.4103 3.48978 14.5303L2.26245 13.949C3.42378 12.3823 5.55845 11.333 7.99978 11.333ZM7.99978 1.33301C8.88384 1.33301 9.73169 1.6842 10.3568 2.30932C10.9819 2.93444 11.3331 3.78229 11.3331 4.66634V6.66634C11.3331 7.52532 11.0014 8.35112 10.4073 8.97153C9.81327 9.59194 9.00262 9.95906 8.14445 9.99634L7.99978 9.99967C7.11573 9.99967 6.26788 9.64849 5.64276 9.02336C5.01764 8.39824 4.66645 7.5504 4.66645 6.66634V4.66634C4.6665 3.80737 4.99815 2.98157 5.59222 2.36116C6.1863 1.74075 6.99695 1.37362 7.85512 1.33634L7.99978 1.33301ZM7.99978 2.66634C7.48964 2.66631 6.99877 2.86122 6.62761 3.2112C6.25645 3.56117 6.03305 4.03975 6.00312 4.54901L5.99978 4.66634V6.66634C5.99928 7.18694 6.2018 7.68723 6.5643 8.06089C6.9268 8.43455 7.42071 8.65213 7.94109 8.66741C8.46147 8.68268 8.9673 8.49445 9.3511 8.1427C9.7349 7.79095 9.96641 7.30341 9.99645 6.78367L9.99978 6.66634V4.66634C9.99978 4.13591 9.78907 3.6272 9.414 3.25213C9.03893 2.87705 8.53022 2.66634 7.99978 2.66634Z" fill="white"/>
</svg>
