<svg width="72" height="72" viewBox="0 0 72 72" fill="none" xmlns="http://www.w3.org/2000/svg">
<path d="M36.0011 51C46.9871 51 56.5961 55.725 61.8221 62.775L56.2961 65.388C52.0421 60.348 44.5421 57 36.0011 57C27.4601 57 19.9601 60.348 15.7061 65.388L10.1831 62.772C15.4091 55.722 25.0151 51 36.0011 51ZM36.0011 6C39.9794 6 43.7947 7.58035 46.6077 10.3934C49.4208 13.2064 51.0011 17.0218 51.0011 21V30C51.0009 33.8654 49.5085 37.5815 46.8351 40.3733C44.1618 43.1652 40.5139 44.8172 36.6521 44.985L36.0011 45C32.0229 45 28.2076 43.4196 25.3945 40.6066C22.5815 37.7936 21.0011 33.9782 21.0011 30V21C21.0013 17.1346 22.4937 13.4185 25.1671 10.6267C27.8404 7.83482 31.4884 6.18276 35.3501 6.015L36.0011 6ZM36.0011 12C33.7055 11.9999 31.4966 12.877 29.8263 14.4519C28.1561 16.0267 27.1508 18.1803 27.0161 20.472L27.0011 21V30C26.9988 32.3427 27.9102 34.594 29.5414 36.2755C31.1727 37.9569 33.3953 38.9361 35.737 39.0048C38.0787 39.0735 40.3549 38.2265 42.082 36.6436C43.8091 35.0607 44.8509 32.8668 44.9861 30.528L45.0011 30V21C45.0011 18.6131 44.0529 16.3239 42.3651 14.636C40.6772 12.9482 38.3881 12 36.0011 12Z" fill="#2400FD"/>
</svg>
