<svg width="243" height="440" viewBox="0 0 243 440" fill="none" xmlns="http://www.w3.org/2000/svg">
<path d="M61.3005 136.659L18.3594 56.0627L92.9358 34.4519L106.523 63.3707" fill="white"/>
<path d="M61.3005 136.659L18.3594 56.0627L92.9358 34.4519L106.523 63.3707" stroke="black" stroke-width="1.7" stroke-miterlimit="10" stroke-linecap="round" stroke-linejoin="round"/>
<path d="M149.776 63.5795H159.733C166.06 63.5795 171.143 58.4639 171.143 52.0955V29.4408C171.143 23.0724 166.06 17.9568 159.733 17.9568H149.776C143.449 17.9568 138.366 23.0724 138.366 29.4408V52.1999C138.366 58.4639 143.552 63.5795 149.776 63.5795Z" fill="#FF3E37" stroke="black" stroke-width="1.7" stroke-miterlimit="10" stroke-linecap="round" stroke-linejoin="round"/>
<path d="M165.852 10.3355C166.89 10.3355 167.927 10.4399 168.964 10.5443C170.727 4.59354 176.951 1.04395 184.211 1.04395C192.717 1.04395 199.666 7.20354 199.666 14.7203C199.666 19.6271 196.762 23.9075 192.405 26.3087C196.243 32.3639 196.866 38.5235 194.895 45.3095C189.397 64.4146 166.06 62.431 166.06 62.431C157.14 62.431 150.709 52.8263 150.709 41.6555C150.709 30.4847 141.063 22.4459 141.063 22.4459C141.063 22.4459 148.116 10.3355 165.852 10.3355Z" fill="black" stroke="black" stroke-width="1.7" stroke-miterlimit="10" stroke-linecap="round" stroke-linejoin="round"/>
<path d="M53.5209 170.589C37.1376 170.589 23.8563 157.455 23.8563 141.253C23.8563 125.051 37.1376 111.917 53.5209 111.917C69.9042 111.917 83.1855 125.051 83.1855 141.253C83.1855 157.455 69.9042 170.589 53.5209 170.589Z" fill="#8F88BA" stroke="black" stroke-width="1.7" stroke-miterlimit="10" stroke-linecap="round" stroke-linejoin="round"/>
<path d="M38.0658 67.3377L90.7568 51.991" stroke="black" stroke-width="1.7" stroke-miterlimit="10" stroke-linecap="round" stroke-linejoin="round"/>
<path d="M42.8376 78.1954L95.4248 62.8486" stroke="black" stroke-width="1.7" stroke-miterlimit="10" stroke-linecap="round" stroke-linejoin="round"/>
<path d="M47.5043 89.0528L100.195 73.7061" stroke="black" stroke-width="1.7" stroke-miterlimit="10" stroke-linecap="round" stroke-linejoin="round"/>
<path d="M52.2761 99.9106L104.863 84.6682" stroke="black" stroke-width="1.7" stroke-miterlimit="10" stroke-linecap="round" stroke-linejoin="round"/>
<path d="M103.1 182.491C99.8849 192.827 92.728 201.492 83.0818 206.19C78.518 208.382 73.6431 209.635 69.3905 208.173C57.0475 203.893 50.513 190.634 54.7656 178.524L54.4544 179.568L80.2813 80.7011C82.9781 70.4699 94.0764 63.0575 106.419 63.3707C135.773 64.1015 188.464 63.0575 219.995 62.9531C242.711 62.8487 250.801 69.6347 252.357 77.6735L274.761 177.48C275.902 182.595 276.109 187.815 275.176 192.931C273.309 202.745 263.351 216.943 246.03 211.41C245.096 211.097 244.059 210.679 243.126 210.261C239.08 208.487 235.45 205.772 232.338 202.536L213.772 183.431L212.216 198.569L106.419 198.464V171.738L103.1 182.491Z" fill="#A0CF1C" stroke="black" stroke-width="1.7" stroke-miterlimit="10" stroke-linecap="round" stroke-linejoin="round"/>
<path d="M37.6514 445.161L106.523 198.673H142.204H174.772H212.216L285.963 469.695H192.302L158.488 286.682L124.674 469.695L37.6514 445.161Z" fill="#F2F0FF" stroke="black" stroke-width="1.7" stroke-miterlimit="10" stroke-linecap="round" stroke-linejoin="round"/>
<path d="M181.411 434.616H285.963V484.415H181.411V434.616Z" fill="#F2F0FF" stroke="black" stroke-width="1.7" stroke-miterlimit="10" stroke-linecap="round" stroke-linejoin="round"/>
<path d="M33.5025 434.616H138.055V484.415H33.5025V434.616Z" fill="#F2F0FF" stroke="black" stroke-width="1.7" stroke-miterlimit="10" stroke-linecap="round" stroke-linejoin="round"/>
<path d="M213.565 185.31L221.033 126.846" stroke="black" stroke-width="1.7" stroke-miterlimit="10" stroke-linecap="round" stroke-linejoin="round"/>
<path d="M106.523 197.629V122.356" stroke="black" stroke-width="1.7" stroke-miterlimit="10" stroke-linecap="round" stroke-linejoin="round"/>
<path d="M203.607 227.487H168.03V254.005C168.03 262.774 176.224 269.769 186.389 269.769C196.761 269.769 205.163 262.357 204.748 253.378L203.607 227.487Z" stroke="#C3BFD8" stroke-width="1.7" stroke-miterlimit="10" stroke-linecap="round" stroke-linejoin="round"/>
<path d="M147.908 227.487H112.331V254.005C112.331 262.774 120.525 269.769 130.69 269.769C141.062 269.769 149.464 262.357 149.049 253.378L147.908 227.487Z" stroke="#C3BFD8" stroke-width="1.7" stroke-miterlimit="10" stroke-linecap="round" stroke-linejoin="round"/>
<path d="M178.299 301.507L202.674 419.165" stroke="#C3BFD8" stroke-width="1.7" stroke-miterlimit="10" stroke-linecap="round" stroke-linejoin="round" stroke-dasharray="12 12"/>
</svg>
