<svg width="290" height="611" viewBox="0 0 290 611" fill="none" xmlns="http://www.w3.org/2000/svg">
<g clip-path="url(#clip0_285_8605)">
<path d="M107.149 363.653L139.096 552.5H79.098L71.6523 363.653" fill="#FF3E37"/>
<path d="M107.149 363.653L139.096 552.5H79.098L71.6523 363.653" stroke="black" stroke-width="1.7" stroke-miterlimit="10" stroke-linecap="round" stroke-linejoin="round"/>
<path d="M192.947 585.433C188.359 582.313 182.991 580.753 177.71 578.933C162.732 573.733 149.139 564.46 138.923 552.327L79.0117 552.24V593.667C79.0117 593.927 79.0117 594.273 79.0117 594.533C79.0117 603.373 86.1976 610.567 95.0285 610.567C100.916 610.567 105.677 606.753 109.054 602.767C111.738 600.167 116.153 600.34 119.616 601.9C123.079 603.373 125.937 605.973 129.226 607.707C133.209 609.873 136.586 610.567 142.3 610.567H187.58C198.575 610.567 204.635 597.48 197.276 589.247C195.977 587.86 194.592 586.56 192.947 585.433Z" fill="#D3D715" stroke="black" stroke-width="1.7" stroke-miterlimit="10" stroke-linecap="round" stroke-linejoin="round"/>
<path d="M138.923 552.327H132.776L118.837 570.873C117.106 573.213 117.539 576.593 119.876 578.327C120.829 579.02 121.954 579.367 123.08 579.367C124.725 579.367 126.283 578.673 127.322 577.2L142.819 556.573C141.434 555.273 140.135 553.8 138.923 552.327Z" stroke="black" stroke-width="1.7" stroke-miterlimit="10" stroke-linecap="round" stroke-linejoin="round"/>
<path d="M142.386 575.033L150.784 563.94C148.014 561.687 145.417 559.26 142.906 556.747L133.902 568.707C132.17 571.047 132.603 574.427 134.941 576.16C135.893 576.853 137.019 577.2 138.144 577.2C139.703 577.2 141.348 576.42 142.386 575.033Z" stroke="black" stroke-width="1.7" stroke-miterlimit="10" stroke-linecap="round" stroke-linejoin="round"/>
<path d="M149.226 574.86C150.178 575.553 151.304 575.9 152.429 575.9C154.074 575.9 155.632 575.207 156.671 573.733L159.355 570.093C156.325 568.187 153.468 566.107 150.698 563.853L148.1 567.32C146.369 569.747 146.888 573.04 149.226 574.86Z" stroke="black" stroke-width="1.7" stroke-miterlimit="10" stroke-linecap="round" stroke-linejoin="round"/>
<path d="M200.133 594.707C196.497 597.047 192.168 598.347 187.58 598.347H142.3H141.694C134.508 598.347 129.66 597.22 124.205 594.273C122.3 593.233 120.742 592.193 119.27 591.153L119.184 591.067C110.093 584.827 99.3575 581.533 88.2756 581.533H80.0508" stroke="black" stroke-width="1.7" stroke-miterlimit="10" stroke-linecap="round" stroke-linejoin="round"/>
<path d="M96.5003 552.24C96.8466 553.54 97.0198 554.927 97.0198 556.313C97.0198 565.673 89.401 573.3 80.0506 573.3C79.7043 573.3 79.358 573.3 79.0117 573.3" stroke="black" stroke-width="1.7" stroke-miterlimit="10" stroke-linecap="round" stroke-linejoin="round"/>
<path d="M80.4834 592.28C83.1673 592.367 85.7646 591.5 88.2753 590.72C91.3056 589.767 94.6821 589.073 97.8854 589.68C101.089 590.287 104.032 592.887 103.513 595.573C103.253 596.96 102.041 598.173 100.569 598.953C99.0975 599.733 97.366 599.993 95.6344 600.167C92.3445 600.513 88.968 600.167 85.7646 599.387C84.1196 598.953 82.3015 598.347 80.8297 598.953" stroke="black" stroke-width="1.7" stroke-miterlimit="10" stroke-linecap="round" stroke-linejoin="round"/>
<path d="M179.009 579.367C170.524 585.433 153.468 595.053 143.599 598.26" stroke="black" stroke-width="1.7" stroke-miterlimit="10" stroke-linecap="round" stroke-linejoin="round"/>
<path d="M130.525 502.06H77.1064L79.0977 552.5H139.096L130.525 502.06Z" fill="white" stroke="black" stroke-width="1.7" stroke-miterlimit="10" stroke-linecap="round" stroke-linejoin="round"/>
<path d="M88.9678 512.373L90.1798 542.187" stroke="#C3BFD8" stroke-width="1.7" stroke-miterlimit="10" stroke-linecap="round" stroke-linejoin="round"/>
<path d="M119.703 512.373L124.725 542.187" stroke="#C3BFD8" stroke-width="1.7" stroke-miterlimit="10" stroke-linecap="round" stroke-linejoin="round"/>
<path d="M107.669 542.187L104.639 512.373" stroke="#C3BFD8" stroke-width="1.7" stroke-miterlimit="10" stroke-linecap="round" stroke-linejoin="round"/>
<path d="M18.3213 363.653L-13.5391 552.5H46.3723L53.818 363.653" fill="#FF3E37"/>
<path d="M18.3213 363.653L-13.5391 552.5H46.3723L53.818 363.653" stroke="black" stroke-width="1.7" stroke-miterlimit="10" stroke-linecap="round" stroke-linejoin="round"/>
<path d="M-67.4766 585.433C-62.888 582.313 -57.5203 580.753 -52.239 578.933C-37.2612 573.733 -23.6686 564.46 -13.4525 552.327L46.4589 552.24V593.667C46.4589 593.927 46.4589 594.273 46.4589 594.533C46.4589 603.373 39.273 610.567 30.4422 610.567C24.5549 610.567 19.7932 606.753 16.4166 602.767C13.7328 600.167 9.31733 600.34 5.85424 601.9C2.39115 603.373 -0.465904 605.973 -3.75584 607.707C-7.73838 609.873 -11.1149 610.567 -16.829 610.567H-62.0223C-73.0176 610.567 -79.078 597.48 -71.7189 589.247C-70.5068 587.86 -69.035 586.56 -67.4766 585.433Z" fill="#D3D715" stroke="black" stroke-width="1.7" stroke-miterlimit="10" stroke-linecap="round" stroke-linejoin="round"/>
<path d="M-13.3657 552.327H-7.21877L6.72017 570.873C8.45171 573.213 8.01882 576.593 5.68124 578.327C4.72889 579.02 3.60339 579.367 2.47788 579.367C0.832918 579.367 -0.725473 578.673 -1.7644 577.2L-17.2617 556.573C-15.9631 555.273 -14.6644 553.8 -13.3657 552.327Z" stroke="black" stroke-width="1.7" stroke-miterlimit="10" stroke-linecap="round" stroke-linejoin="round"/>
<path d="M-74.5762 594.707C-70.9399 597.047 -66.6111 598.347 -62.0225 598.347H-16.7426H-16.1366C-8.95068 598.347 -4.10236 597.22 1.352 594.273C3.2567 593.233 4.8151 592.193 6.28691 591.153L6.37348 591.067C15.4641 584.827 26.1997 581.533 37.2815 581.533H45.5064" stroke="black" stroke-width="1.7" stroke-miterlimit="10" stroke-linecap="round" stroke-linejoin="round"/>
<path d="M28.9706 552.24C28.6243 553.54 28.4512 554.927 28.4512 556.313C28.4512 565.673 36.07 573.3 45.4203 573.3C45.7666 573.3 46.1129 573.3 46.4592 573.3" stroke="black" stroke-width="1.7" stroke-miterlimit="10" stroke-linecap="round" stroke-linejoin="round"/>
<path d="M44.9869 592.28C42.303 592.367 39.7057 591.5 37.1949 590.72C34.1647 589.767 30.7882 589.073 27.5848 589.68C24.3815 590.287 21.4379 592.887 21.9573 595.573C22.2171 596.96 23.4291 598.173 24.901 598.953C26.3728 599.733 28.1043 599.993 29.8359 600.167C33.1258 600.513 36.5023 600.167 39.7057 599.387C41.3506 598.953 43.1688 598.347 44.6406 598.953" stroke="black" stroke-width="1.7" stroke-miterlimit="10" stroke-linecap="round" stroke-linejoin="round"/>
<path d="M-5.0545 502.06H48.3636L46.3723 552.5H-13.5391L-5.0545 502.06Z" fill="white" stroke="black" stroke-width="1.7" stroke-miterlimit="10" stroke-linecap="round" stroke-linejoin="round"/>
<path d="M36.5025 512.373L35.377 542.187" stroke="#C3BFD8" stroke-width="1.7" stroke-miterlimit="10" stroke-linecap="round" stroke-linejoin="round"/>
<path d="M5.85448 512.373L0.833008 542.187" stroke="#C3BFD8" stroke-width="1.7" stroke-miterlimit="10" stroke-linecap="round" stroke-linejoin="round"/>
<path d="M17.8887 542.187L20.8323 512.373" stroke="#C3BFD8" stroke-width="1.7" stroke-miterlimit="10" stroke-linecap="round" stroke-linejoin="round"/>
<path d="M238.977 116.938C254.139 106.488 252.757 78.1388 235.891 53.6187C219.025 29.0987 193.061 17.693 177.9 28.1434C162.738 38.5939 164.12 66.9431 180.986 91.4632C197.852 115.983 223.816 127.389 238.977 116.938Z" fill="black"/>
<path d="M171.739 124.576L160.972 131.997L180.807 160.834L191.574 153.413L171.739 124.576Z" fill="black" stroke="black" stroke-width="1.7" stroke-miterlimit="9.9996" stroke-linecap="round" stroke-linejoin="round"/>
<path d="M208.878 73.1466C201.173 61.8799 185.762 59.0199 174.507 66.8199C172.602 68.1199 170.958 69.6799 169.572 71.3266C171.823 78.5199 175.373 85.8866 180.221 92.9066C185.07 99.9266 190.697 105.907 196.584 110.587C198.662 109.893 200.653 108.853 202.558 107.553C213.813 99.7532 216.584 84.4132 208.878 73.1466Z" fill="white" stroke="black" stroke-width="1.7" stroke-miterlimit="10" stroke-linecap="round" stroke-linejoin="round"/>
<path d="M182.299 91.4332C169.226 72.3666 164.637 49.9199 170.784 36.3999L146.369 90.0466L122.301 106.6L146.629 142.047L171.303 124.973L227.059 120.207C212.861 119.773 194.679 109.287 182.299 91.4332Z" fill="white" stroke="black" stroke-width="1.7" stroke-miterlimit="10" stroke-linecap="round" stroke-linejoin="round"/>
<path d="M182.299 91.4332C169.226 72.3665 165.07 49.1399 171.217 35.6199L146.456 90.0465L122.387 106.6L125.677 111.367C125.158 111.627 124.638 111.973 124.119 112.32C116.933 117.26 115.115 127.053 120.05 134.247C124.985 141.44 134.768 143.26 141.954 138.32C142.473 137.973 142.993 137.54 143.426 137.193L146.802 142.047L171.477 124.973L227.232 120.207C212.861 119.773 194.679 109.287 182.299 91.4332Z" fill="#D3D715" stroke="black" stroke-width="1.7" stroke-miterlimit="10" stroke-linecap="round" stroke-linejoin="round"/>
<path d="M207.233 192.92V193.093L186.194 127.487L154.421 140.747L150.871 129.653C149.659 125.927 145.676 123.847 141.954 125.06C138.231 126.273 136.153 130.26 137.365 133.987L141.261 146.207H141.174L150.611 176.8L117.712 191.62L128.621 250.12L177.796 230.36C192.947 224.38 208.964 219.18 208.705 202.367C208.791 198.987 208.185 195.867 207.233 192.92Z" fill="#FF3E37" stroke="black" stroke-width="1.7" stroke-miterlimit="10" stroke-linecap="round" stroke-linejoin="round"/>
<path d="M179.269 169C175.892 170.82 171.65 169.52 169.832 166.14L154.94 134.16L167.321 127.573L182.126 159.553C183.944 162.933 182.645 167.18 179.269 169Z" fill="#D3D715" stroke="black" stroke-width="1.7" stroke-miterlimit="10" stroke-linecap="round" stroke-linejoin="round"/>
<path d="M161.953 144.733L193.554 130C196.93 128.44 198.316 124.453 196.757 121.073L196.411 120.293C194.853 116.913 190.87 115.527 187.493 117.087L155.893 131.82C152.516 133.38 151.131 137.367 152.689 140.747L153.036 141.527C154.681 144.907 158.663 146.293 161.953 144.733Z" fill="#FF3E37" stroke="black" stroke-width="1.7" stroke-miterlimit="10" stroke-linecap="round" stroke-linejoin="round"/>
<path d="M175.892 153.833L200.567 142.307C204.117 140.66 205.675 136.413 204.03 132.86C202.385 129.307 198.143 127.747 194.593 129.393L169.919 140.92C166.369 142.567 164.811 146.813 166.456 150.367C168.187 153.92 172.343 155.48 175.892 153.833Z" fill="#FF3E37" stroke="black" stroke-width="1.7" stroke-miterlimit="10" stroke-linecap="round" stroke-linejoin="round"/>
<path d="M188.706 164.233L208.446 154.527C211.995 152.88 213.554 148.633 211.909 145.08C210.264 141.527 206.021 139.967 202.472 141.613L182.732 151.32C179.182 152.967 177.624 157.213 179.269 160.767C181.001 164.32 185.156 165.88 188.706 164.233Z" fill="#FF3E37" stroke="black" stroke-width="1.7" stroke-miterlimit="10" stroke-linecap="round" stroke-linejoin="round"/>
<path d="M130.179 185.207L115.114 191.447C109.14 193.873 102.734 195.173 96.3268 195.173H57.8H57.3671H18.8403H12.0872H-4.01611L-15.1846 195.26V253.847H-4.01611V337.307H57.4537H57.8866H121.521L120.915 254.28L143.252 243.793L130.179 185.207Z" fill="#3A9918" stroke="black" stroke-width="1.7" stroke-miterlimit="10" stroke-linecap="round" stroke-linejoin="round"/>
<path d="M28.0176 195.173L61.8693 234.78L95.721 195.173H28.0176Z" fill="#FF3E37" stroke="black" stroke-width="1.7" stroke-miterlimit="10" stroke-linecap="round" stroke-linejoin="round"/>
<path d="M-31.8065 456.387C-8.51728 456.387 -8.51728 465.747 14.6854 465.747C37.9747 465.747 37.9747 456.387 61.1773 456.387C84.4666 456.387 84.4666 465.747 107.669 465.747C130.959 465.747 130.959 456.387 154.161 456.387L155.546 456.3L121.089 337.22H0.919628L-33.5381 456.3L-31.8065 456.387Z" fill="white" stroke="black" stroke-width="1.7" stroke-miterlimit="10" stroke-linecap="round" stroke-linejoin="round"/>
<path d="M-31.8065 456.387C-8.51728 456.387 -8.51728 465.747 14.6854 465.747C37.9747 465.747 37.9747 456.387 61.1773 456.387C84.4666 456.387 84.4666 465.747 107.669 465.747C130.959 465.747 130.959 456.387 154.161 456.387L155.546 456.3L121.089 337.22H0.919629L-33.5381 456.3L-31.8065 456.387Z" stroke="black" stroke-width="1.7" stroke-miterlimit="10" stroke-linecap="round" stroke-linejoin="round"/>
<path d="M24.6414 331.153C27.2387 330.113 29.0568 327.6 29.0568 324.653C29.0568 320.753 25.94 317.633 22.0441 317.633H20.1394H7.58568H-3.92909V304.72H-13.366C-13.366 304.72 -19.513 304.807 -20.2922 304.807C-34.2311 304.807 -45.4861 293.54 -45.4861 279.587C-45.4861 265.633 -34.8371 255.493 -20.2922 254.367C-13.366 253.847 -13.366 253.847 -13.366 253.847V195.26C-14.2318 195.26 -15.1841 195.26 -16.0499 195.173C-63.7539 193.353 -96.1338 231.053 -96.1338 275.34C-96.1338 319.627 -60.2908 355.507 -16.0499 355.507C-15.1841 355.507 -14.2318 355.507 -13.366 355.42V355.507H7.4991H13.04C16.936 355.507 20.0528 352.04 20.0528 348.227C20.0528 346.927 19.7065 345.713 19.0139 344.673H21.9575C25.8535 344.673 28.9702 341.553 28.9702 337.653C29.0568 334.707 27.2387 332.193 24.6414 331.153Z" fill="#FF3E37" stroke="black" stroke-width="1.7" stroke-miterlimit="10" stroke-linecap="round" stroke-linejoin="round"/>
<path d="M24.6413 331.153H5.24805" stroke="black" stroke-width="1.7" stroke-miterlimit="10" stroke-linecap="round" stroke-linejoin="round"/>
<path d="M20.0531 344.673H0.573242" stroke="black" stroke-width="1.7" stroke-miterlimit="10" stroke-linecap="round" stroke-linejoin="round"/>
<path d="M81.6962 169.433L77.3673 171.427C75.5492 172.293 73.3848 171.513 72.519 169.693L72.3459 169.26C71.4801 167.44 72.2593 165.273 74.0774 164.407L78.4063 162.413C80.2244 161.547 82.3888 162.327 83.2546 164.147L83.4277 164.58C84.2935 166.4 83.5143 168.653 81.6962 169.433Z" fill="#FF3E37" stroke="black" stroke-width="1.7" stroke-miterlimit="10" stroke-linecap="round" stroke-linejoin="round"/>
<path d="M82.9947 176.54L73.9041 156.867C71.9128 152.62 66.8914 150.8 62.6491 152.793L48.8833 159.207C44.641 161.2 42.8229 166.227 44.8142 170.387L53.9914 190.06C55.6363 193.613 60.831 195.173 60.831 195.173H77.2806V188.5L78.9256 187.72C83.1679 185.813 84.986 180.787 82.9947 176.54Z" fill="#FF3E37" stroke="black" stroke-width="1.7" stroke-miterlimit="10" stroke-linecap="round" stroke-linejoin="round"/>
<path d="M65.8522 147.593C63.6878 142.913 58.0603 140.92 53.2985 143.173C48.5368 145.427 46.4589 150.973 48.6233 155.653C48.9696 156.52 49.4891 157.213 50.0951 157.907L48.0173 158.86C43.8616 158.253 39.5327 158.773 35.4636 160.68C24.3817 165.88 19.5334 179.053 24.728 190.233C29.9227 201.413 43.0824 206.18 54.2509 200.98C65.3327 195.78 70.1811 182.607 64.9864 171.427C63.6012 168.567 61.6965 166.053 59.4455 164.06C62.3025 161.547 64.467 158.687 65.679 155.74C66.4582 154.267 66.8046 152.533 66.718 150.887C66.718 150.8 66.718 150.713 66.718 150.627C66.6314 149.587 66.3717 148.547 65.8522 147.593Z" fill="black" stroke="black" stroke-width="1.7" stroke-miterlimit="10" stroke-linecap="round" stroke-linejoin="round"/>
<path d="M76.2411 161.893C75.2022 160.68 73.3841 160.247 71.9122 160.94C70.3538 161.633 69.5746 163.28 69.8344 164.927" stroke="black" stroke-width="1.7" stroke-miterlimit="10" stroke-linecap="round" stroke-linejoin="round"/>
<path d="M80.6572 176.713C81.3498 176.713 81.9559 176.453 82.3888 176.02C82.3022 175.76 82.2156 175.5 82.129 175.327L80.3975 171.687C79.0988 171.86 78.1465 172.9 78.1465 174.2C78.1465 175.587 79.272 176.713 80.6572 176.713Z" fill="black" stroke="black" stroke-width="1.7" stroke-miterlimit="10" stroke-linecap="round" stroke-linejoin="round"/>
<path d="M85.2451 149.5L99.1841 121.247" stroke="black" stroke-width="1.7" stroke-miterlimit="10" stroke-linecap="round" stroke-linejoin="round"/>
<path d="M97.1064 176.107L135.547 170.56" stroke="black" stroke-width="1.7" stroke-miterlimit="10" stroke-linecap="round" stroke-linejoin="round"/>
<path d="M92.2578 163.453L116.326 146.12" stroke="black" stroke-width="1.7" stroke-miterlimit="10" stroke-linecap="round" stroke-linejoin="round"/>
<path d="M75.1155 141.007L74.4229 128.787" stroke="black" stroke-width="1.7" stroke-miterlimit="10" stroke-linecap="round" stroke-linejoin="round"/>
<path d="M237.621 38.5666L251.56 10.3132" stroke="black" stroke-width="1.7" stroke-miterlimit="10" stroke-linecap="round" stroke-linejoin="round"/>
<path d="M249.482 65.1734L287.923 59.6267" stroke="black" stroke-width="1.7" stroke-miterlimit="10" stroke-linecap="round" stroke-linejoin="round"/>
<path d="M244.634 52.5201L268.702 35.1868" stroke="black" stroke-width="1.7" stroke-miterlimit="10" stroke-linecap="round" stroke-linejoin="round"/>
<path d="M227.491 30.0733L226.799 17.8533" stroke="black" stroke-width="1.7" stroke-miterlimit="10" stroke-linecap="round" stroke-linejoin="round"/>
<path d="M95.7212 195.173H77.2803L87.2367 205.14L95.7212 195.173Z" fill="black" stroke="black" stroke-width="1.7" stroke-miterlimit="10" stroke-linecap="round" stroke-linejoin="round"/>
<path opacity="0.16" d="M17.7155 246.827H50.5282V264.507C50.5282 273.607 43.1692 280.973 34.0786 280.973C24.988 280.973 17.6289 273.607 17.6289 264.507L17.7155 246.827Z" stroke="black" stroke-width="1.7" stroke-miterlimit="10" stroke-linecap="round" stroke-linejoin="round"/>
</g>
<defs>
<clipPath id="clip0_285_8605">
<rect width="387" height="611" fill="white" transform="translate(-97)"/>
</clipPath>
</defs>
</svg>
