<svg width="230" height="261" viewBox="0 0 230 261" fill="none" xmlns="http://www.w3.org/2000/svg">
<path d="M103.542 42.6504L133.437 61.4967" stroke="#0A004C" stroke-width="2" stroke-miterlimit="10" stroke-linecap="round" stroke-linejoin="round"/>
<path d="M1.32031 187.414L54.7984 221.321L114.671 259.178L228.104 187.414V72.8543L114.671 1.09009L1.32031 72.8543V187.414Z" fill="#2400FD" stroke="#0A004C" stroke-width="2" stroke-miterlimit="10" stroke-linecap="round" stroke-linejoin="round"/>
<path d="M228.104 73.678L174.626 107.503L114.671 145.442V259.179L174.626 221.321L228.104 187.414V73.678Z" fill="white" stroke="#0A004C" stroke-width="2" stroke-miterlimit="10" stroke-linecap="round" stroke-linejoin="round"/>
<path d="M228.104 73.678L174.626 107.503L114.671 145.442V259.179L174.626 221.321L228.104 187.414V73.678Z" stroke="#0A004C" stroke-width="2" stroke-miterlimit="10" stroke-linecap="round" stroke-linejoin="round"/>
<path d="M1.32031 73.678L54.7984 107.503L114.671 145.442V259.179L54.7984 221.321L1.32031 187.414V73.678Z" fill="#FF3E37" stroke="#0A004C" stroke-width="2" stroke-miterlimit="10" stroke-linecap="round" stroke-linejoin="round"/>
<path d="M144.149 97.3791L113.009 77.7097L85.2734 60.0979" fill="white"/>
<path d="M144.149 97.3791L113.009 77.7097L85.2734 60.0979" stroke="#0A004C" stroke-width="12" stroke-miterlimit="10" stroke-linecap="round" stroke-linejoin="round"/>
</svg>
