<svg width="117" height="48" viewBox="0 0 117 48" fill="none" xmlns="http://www.w3.org/2000/svg">
<path d="M34.0104 29.3035L22.6967 17.9898M33.6569 18.3434L22.3431 29.6571" stroke="white" stroke-width="2" stroke-linecap="square"/>
<path d="M49.088 29V17.8H56.32V19.448H51.136V22.584H55.328V24.2H51.136V29H49.088ZM60.7866 29.192C59.9866 29.192 59.2773 29.0213 58.6586 28.68C58.04 28.3387 57.5546 27.8587 57.2026 27.24C56.8506 26.6213 56.6746 25.9067 56.6746 25.096C56.6746 24.2747 56.8453 23.544 57.1866 22.904C57.5386 22.264 58.0186 21.768 58.6266 21.416C59.2453 21.0533 59.9706 20.872 60.8026 20.872C61.5813 20.872 62.2693 21.0427 62.8666 21.384C63.464 21.7253 63.928 22.1947 64.2586 22.792C64.6 23.3787 64.7706 24.0347 64.7706 24.76C64.7706 24.8773 64.7653 25 64.7546 25.128C64.7546 25.256 64.7493 25.3893 64.7386 25.528H58.7066C58.7493 26.1467 58.9626 26.632 59.3466 26.984C59.7413 27.336 60.216 27.512 60.7706 27.512C61.1866 27.512 61.5333 27.4213 61.8106 27.24C62.0986 27.048 62.312 26.8027 62.4506 26.504H64.5306C64.3813 27.0053 64.1306 27.464 63.7786 27.88C63.4373 28.2853 63.0106 28.6053 62.4986 28.84C61.9973 29.0747 61.4266 29.192 60.7866 29.192ZM60.8026 22.536C60.3013 22.536 59.8586 22.68 59.4746 22.968C59.0906 23.2453 58.8453 23.672 58.7386 24.248H62.6906C62.6586 23.7253 62.4666 23.3093 62.1146 23C61.7626 22.6907 61.3253 22.536 60.8026 22.536ZM65.9931 29V21.064H67.8171L68.0091 22.552C68.2971 22.04 68.6865 21.6347 69.1771 21.336C69.6785 21.0267 70.2651 20.872 70.9371 20.872V23.032H70.3611C69.9131 23.032 69.5131 23.1013 69.1611 23.24C68.8091 23.3787 68.5318 23.6187 68.3291 23.96C68.1371 24.3013 68.0411 24.776 68.0411 25.384V29H65.9931ZM71.8369 29V21.064H73.6449L73.8209 22.136C74.0769 21.752 74.4129 21.448 74.8289 21.224C75.2555 20.9893 75.7462 20.872 76.3009 20.872C77.5275 20.872 78.3969 21.3467 78.9089 22.296C79.1969 21.8587 79.5809 21.512 80.0609 21.256C80.5515 21 81.0849 20.872 81.6609 20.872C82.6955 20.872 83.4902 21.1813 84.0449 21.8C84.5995 22.4187 84.8769 23.3253 84.8769 24.52V29H82.8289V24.712C82.8289 24.0293 82.6955 23.5067 82.4289 23.144C82.1729 22.7813 81.7729 22.6 81.2289 22.6C80.6742 22.6 80.2262 22.8027 79.8849 23.208C79.5542 23.6133 79.3889 24.1787 79.3889 24.904V29H77.3409V24.712C77.3409 24.0293 77.2075 23.5067 76.9409 23.144C76.6742 22.7813 76.2635 22.6 75.7089 22.6C75.1649 22.6 74.7222 22.8027 74.3809 23.208C74.0502 23.6133 73.8849 24.1787 73.8849 24.904V29H71.8369ZM90.1773 29.192C89.3773 29.192 88.6679 29.0213 88.0493 28.68C87.4306 28.3387 86.9453 27.8587 86.5933 27.24C86.2413 26.6213 86.0653 25.9067 86.0653 25.096C86.0653 24.2747 86.2359 23.544 86.5773 22.904C86.9293 22.264 87.4093 21.768 88.0173 21.416C88.6359 21.0533 89.3613 20.872 90.1933 20.872C90.9719 20.872 91.6599 21.0427 92.2573 21.384C92.8546 21.7253 93.3186 22.1947 93.6493 22.792C93.9906 23.3787 94.1613 24.0347 94.1613 24.76C94.1613 24.8773 94.1559 25 94.1453 25.128C94.1453 25.256 94.1399 25.3893 94.1293 25.528H88.0973C88.1399 26.1467 88.3533 26.632 88.7373 26.984C89.1319 27.336 89.6066 27.512 90.1613 27.512C90.5773 27.512 90.9239 27.4213 91.2013 27.24C91.4893 27.048 91.7026 26.8027 91.8413 26.504H93.9213C93.7719 27.0053 93.5213 27.464 93.1693 27.88C92.8279 28.2853 92.4013 28.6053 91.8893 28.84C91.3879 29.0747 90.8173 29.192 90.1773 29.192ZM90.1933 22.536C89.6919 22.536 89.2493 22.68 88.8653 22.968C88.4813 23.2453 88.2359 23.672 88.1293 24.248H92.0813C92.0493 23.7253 91.8573 23.3093 91.5053 23C91.1533 22.6907 90.7159 22.536 90.1933 22.536ZM95.3838 29V21.064H97.2078L97.3998 22.552C97.6878 22.04 98.0771 21.6347 98.5677 21.336C99.0691 21.0267 99.6558 20.872 100.328 20.872V23.032H99.7518C99.3038 23.032 98.9038 23.1013 98.5518 23.24C98.1998 23.3787 97.9224 23.6187 97.7198 23.96C97.5278 24.3013 97.4318 24.776 97.4318 25.384V29H95.3838Z" fill="white"/>
</svg>
