<svg width="112" height="112" viewBox="0 0 112 112" fill="none" xmlns="http://www.w3.org/2000/svg">
<rect width="112" height="112" fill="#F2F0FF"/>
<path d="M56.0011 71C66.9871 71 76.5961 75.725 81.8221 82.775L76.2961 85.388C72.0421 80.348 64.5421 77 56.0011 77C47.4601 77 39.9601 80.348 35.7061 85.388L30.1831 82.772C35.4091 75.722 45.0151 71 56.0011 71ZM56.0011 26C59.9794 26 63.7947 27.5804 66.6077 30.3934C69.4208 33.2064 71.0011 37.0218 71.0011 41V50C71.0009 53.8654 69.5085 57.5815 66.8351 60.3733C64.1618 63.1652 60.5139 64.8172 56.6521 64.985L56.0011 65C52.0229 65 48.2076 63.4196 45.3945 60.6066C42.5815 57.7936 41.0011 53.9782 41.0011 50V41C41.0013 37.1346 42.4937 33.4185 45.1671 30.6267C47.8404 27.8348 51.4884 26.1828 55.3501 26.015L56.0011 26ZM56.0011 32C53.7055 31.9999 51.4966 32.877 49.8263 34.4519C48.1561 36.0267 47.1508 38.1803 47.0161 40.472L47.0011 41V50C46.9988 52.3427 47.9102 54.594 49.5414 56.2755C51.1727 57.9569 53.3953 58.9361 55.737 59.0048C58.0787 59.0735 60.3549 58.2265 62.082 56.6436C63.8091 55.0607 64.8509 52.8668 64.9861 50.528L65.0011 50V41C65.0011 38.6131 64.0529 36.3239 62.3651 34.636C60.6772 32.9482 58.3881 32 56.0011 32Z" fill="#2400FD"/>
</svg>
