<svg width="147" height="159" viewBox="0 0 147 159" fill="none" xmlns="http://www.w3.org/2000/svg">
<path d="M128.592 90.0674H18.3384V157.718H128.592V90.0674Z" fill="#0A004C" stroke="#0A004C" stroke-width="1.4" stroke-miterlimit="10" stroke-linecap="round" stroke-linejoin="round"/>
<path d="M121.237 97.2148H25.724V150.57H121.237V97.2148Z" fill="white" stroke="#0A004C" stroke-width="1.4" stroke-miterlimit="10" stroke-linecap="round" stroke-linejoin="round"/>
<path d="M45.556 97.2149L52.7218 90.0674H37.8244L30.6586 97.2149H45.556Z" fill="#FF3E37"/>
<path d="M25.7241 102.105L18.3383 109.441V124.237L25.7241 116.902V102.105Z" fill="#FF3E37"/>
<path d="M79.9079 97.2149L87.1051 90.0674H72.2078L65.0105 97.2149H79.9079Z" fill="#FF3E37"/>
<path d="M25.7241 150.601V136.244L18.3383 143.579V157.686H18.9983L26.1642 150.601H25.7241Z" fill="#FF3E37"/>
<path d="M45.6817 150.539L38.4845 157.686H53.3818L60.5477 150.539H45.6817Z" fill="#FF3E37"/>
<path d="M114.26 97.2149L121.457 90.0674H106.56L99.3624 97.2149H114.26Z" fill="#FF3E37"/>
<path d="M80.0336 150.539L72.8364 157.686H87.7338L94.931 150.539H80.0336Z" fill="#FF3E37"/>
<path d="M121.206 109.629V124.425L128.592 117.121V102.325L121.206 109.629Z" fill="#FF3E37"/>
<path d="M121.206 143.767V150.539H114.386L107.188 157.686H122.086L128.591 151.26V136.463L121.206 143.767Z" fill="#FF3E37"/>
<path d="M45.556 97.2149L52.7218 90.0674H37.8244L30.6586 97.2149H45.556Z" stroke="#0A004C" stroke-width="0.559937" stroke-miterlimit="10" stroke-linecap="round" stroke-linejoin="round"/>
<path d="M25.7241 102.105L18.3383 109.441V124.237L25.7241 116.902V102.105Z" stroke="#0A004C" stroke-width="0.559937" stroke-miterlimit="10" stroke-linecap="round" stroke-linejoin="round"/>
<path d="M79.9079 97.2149L87.1051 90.0674H72.2078L65.0105 97.2149H79.9079Z" stroke="#0A004C" stroke-width="0.559937" stroke-miterlimit="10" stroke-linecap="round" stroke-linejoin="round"/>
<path d="M25.7241 150.601V136.244L18.3383 143.579V157.686H18.9983L26.1642 150.601H25.7241Z" stroke="#0A004C" stroke-width="0.559937" stroke-miterlimit="10" stroke-linecap="round" stroke-linejoin="round"/>
<path d="M45.6817 150.539L38.4845 157.686H53.3818L60.5477 150.539H45.6817Z" stroke="#0A004C" stroke-width="0.559937" stroke-miterlimit="10" stroke-linecap="round" stroke-linejoin="round"/>
<path d="M114.26 97.2149L121.457 90.0674H106.56L99.3624 97.2149H114.26Z" stroke="#0A004C" stroke-width="0.559937" stroke-miterlimit="10" stroke-linecap="round" stroke-linejoin="round"/>
<path d="M80.0336 150.539L72.8364 157.686H87.7338L94.931 150.539H80.0336Z" stroke="#0A004C" stroke-width="0.559937" stroke-miterlimit="10" stroke-linecap="round" stroke-linejoin="round"/>
<path d="M121.206 109.629V124.425L128.592 117.121V102.325L121.206 109.629Z" stroke="#0A004C" stroke-width="0.559937" stroke-miterlimit="10" stroke-linecap="round" stroke-linejoin="round"/>
<path d="M121.206 143.767V150.539H114.386L107.188 157.686H122.086L128.591 151.26V136.463L121.206 143.767Z" stroke="#0A004C" stroke-width="0.559937" stroke-miterlimit="10" stroke-linecap="round" stroke-linejoin="round"/>
<path d="M58.5989 134.676C56.5245 134.676 56.5245 132.544 54.4502 132.544C52.3759 132.544 52.3759 134.676 50.3016 134.676C48.2273 134.676 48.2273 132.544 46.1529 132.544C44.0786 132.544 44.0786 134.676 42.0043 134.676C39.93 134.676 39.93 132.544 37.8557 132.544C35.7814 132.544 35.7814 134.676 33.707 134.676M58.5988 138.438C56.5245 138.438 56.5245 136.306 54.4502 136.306C52.3759 136.306 52.3759 138.438 50.3016 138.438C48.2273 138.438 48.2273 136.306 46.1529 136.306C44.0786 136.306 44.0786 138.438 42.0043 138.438C39.93 138.438 39.93 136.306 37.8557 136.306C35.7813 136.306 35.7813 138.438 33.707 138.438M58.5988 142.2C56.5245 142.2 56.5245 140.068 54.4502 140.068C52.3759 140.068 52.3759 142.2 50.3016 142.2C48.2273 142.2 48.2273 140.068 46.1529 140.068C44.0786 140.068 44.0786 142.2 42.0043 142.2C39.93 142.2 39.93 140.068 37.8557 140.068C35.7813 140.068 35.7813 142.2 33.707 142.2" stroke="#0A004C" stroke-width="0.559937" stroke-miterlimit="10" stroke-linecap="round" stroke-linejoin="round"/>
<path fill-rule="evenodd" clip-rule="evenodd" d="M112.331 120.659C113.445 120.285 114.58 119.904 114.826 119.065C115.072 118.203 114.32 117.262 113.584 116.342C113.009 115.622 112.443 114.915 112.374 114.268C112.304 113.58 112.719 112.735 113.134 111.89C113.645 110.849 114.156 109.809 113.757 109.065C113.358 108.321 112.203 108.188 111.047 108.055C110.109 107.947 109.169 107.839 108.634 107.403C108.12 107.001 107.827 106.133 107.529 105.251C107.154 104.14 106.772 103.008 105.931 102.764C105.067 102.517 104.124 103.268 103.201 104.002C102.48 104.576 101.771 105.14 101.122 105.209C100.433 105.279 99.5852 104.865 98.7383 104.451C97.6944 103.941 96.6514 103.431 95.9052 103.829C95.1595 104.227 95.0262 105.379 94.8929 106.532C94.7845 107.468 94.6762 108.405 94.2395 108.939C93.8385 109.45 92.9751 109.735 92.0963 110.026C90.9778 110.396 89.8344 110.775 89.588 111.635C89.3411 112.497 90.0935 113.438 90.8293 114.358C91.405 115.078 91.9705 115.785 92.0395 116.432C92.1099 117.12 91.6947 117.965 91.2798 118.81C90.7685 119.851 90.2575 120.891 90.6566 121.635C91.0555 122.379 92.2104 122.512 93.3662 122.645C94.3049 122.753 95.2442 122.861 95.7795 123.297C96.2939 123.699 96.5869 124.567 96.8843 125.449C97.2593 126.56 97.6412 127.692 98.4824 127.936C99.3465 128.183 100.29 127.432 101.212 126.698C101.934 126.124 102.643 125.56 103.291 125.491C103.981 125.421 104.828 125.835 105.675 126.249C106.719 126.759 107.762 127.269 108.508 126.871C109.254 126.473 109.387 125.321 109.521 124.168C109.629 123.232 109.737 122.295 110.174 121.761C110.577 121.248 111.448 120.955 112.331 120.659ZM109.262 115.334C109.262 119.23 106.096 122.388 102.191 122.388C98.2854 122.388 95.1194 119.23 95.1194 115.334C95.1194 111.439 98.2854 108.281 102.191 108.281C106.096 108.281 109.262 111.439 109.262 115.334Z" fill="#2400FD"/>
<path d="M114.826 119.065L115.094 119.143L115.095 119.142L114.826 119.065ZM112.331 120.659L112.242 120.393L112.331 120.659ZM113.584 116.342L113.803 116.167V116.167L113.584 116.342ZM112.374 114.268L112.096 114.297L112.096 114.298L112.374 114.268ZM113.134 111.89L113.385 112.014L113.134 111.89ZM113.757 109.065L114.004 108.932V108.932L113.757 109.065ZM111.047 108.055L111.079 107.777L111.047 108.055ZM108.634 107.403L108.811 107.186L108.806 107.183L108.634 107.403ZM107.529 105.251L107.264 105.341V105.341L107.529 105.251ZM105.931 102.764L106.009 102.495L106.008 102.494L105.931 102.764ZM103.201 104.002L103.376 104.221V104.221L103.201 104.002ZM101.122 105.209L101.151 105.487L101.152 105.487L101.122 105.209ZM98.7383 104.451L98.6154 104.703V104.703L98.7383 104.451ZM95.9052 103.829L95.7735 103.582V103.582L95.9052 103.829ZM94.8929 106.532L94.6148 106.5V106.5L94.8929 106.532ZM94.2395 108.939L94.0227 108.762L94.0194 108.766L94.2395 108.939ZM92.0963 110.026L92.0084 109.76H92.0084L92.0963 110.026ZM89.588 111.635L89.8571 111.712L89.8571 111.712L89.588 111.635ZM90.8293 114.358L91.048 114.183H91.048L90.8293 114.358ZM92.0395 116.432L92.318 116.403L92.3179 116.402L92.0395 116.432ZM91.2798 118.81L91.0285 118.686L91.2798 118.81ZM90.6566 121.635L90.9033 121.503H90.9033L90.6566 121.635ZM93.3662 122.645L93.3982 122.367H93.3982L93.3662 122.645ZM95.7795 123.297L95.6028 123.514L95.6071 123.517L95.7795 123.297ZM96.8843 125.449L96.6191 125.538L96.6191 125.538L96.8843 125.449ZM98.4824 127.936L98.4042 128.205L98.4057 128.206L98.4824 127.936ZM101.212 126.698L101.386 126.917L101.212 126.698ZM103.291 125.491L103.263 125.213L103.262 125.213L103.291 125.491ZM105.675 126.249L105.798 125.997L105.675 126.249ZM108.508 126.871L108.377 126.624V126.624L108.508 126.871ZM109.521 124.168L109.243 124.136V124.136L109.521 124.168ZM110.174 121.761L110.391 121.938L110.394 121.934L110.174 121.761ZM114.557 118.986C114.465 119.299 114.2 119.557 113.77 119.79C113.343 120.023 112.806 120.204 112.242 120.393L112.421 120.924C112.971 120.739 113.559 120.543 114.038 120.282C114.516 120.022 114.94 119.669 115.094 119.143L114.557 118.986ZM113.366 116.517C113.738 116.982 114.092 117.427 114.327 117.859C114.563 118.292 114.65 118.661 114.556 118.988L115.095 119.142C115.248 118.607 115.082 118.075 114.819 117.591C114.556 117.108 114.167 116.622 113.803 116.167L113.366 116.517ZM112.096 114.298C112.137 114.686 112.323 115.068 112.553 115.429C112.785 115.791 113.08 116.16 113.366 116.517L113.803 116.167C113.513 115.805 113.238 115.46 113.025 115.127C112.811 114.792 112.68 114.498 112.652 114.239L112.096 114.298ZM112.882 111.767C112.677 112.186 112.462 112.623 112.309 113.042C112.157 113.46 112.054 113.891 112.096 114.297L112.653 114.24C112.624 113.958 112.693 113.622 112.835 113.234C112.976 112.848 113.176 112.439 113.385 112.014L112.882 111.767ZM113.51 109.197C113.658 109.472 113.652 109.83 113.518 110.287C113.384 110.743 113.141 111.241 112.882 111.767L113.385 112.014C113.638 111.499 113.905 110.956 114.055 110.445C114.205 109.936 114.255 109.401 114.004 108.932L113.51 109.197ZM111.015 108.333C111.6 108.4 112.151 108.465 112.607 108.599C113.063 108.734 113.364 108.923 113.51 109.197L114.004 108.932C113.751 108.462 113.275 108.213 112.765 108.062C112.254 107.911 111.651 107.842 111.079 107.777L111.015 108.333ZM108.457 107.62C108.775 107.879 109.193 108.026 109.627 108.125C110.064 108.224 110.55 108.279 111.015 108.333L111.079 107.777C110.606 107.722 110.153 107.67 109.751 107.579C109.347 107.487 109.029 107.363 108.811 107.186L108.457 107.62ZM107.264 105.341C107.411 105.778 107.564 106.231 107.746 106.625C107.927 107.016 108.152 107.382 108.462 107.624L108.806 107.183C108.602 107.023 108.423 106.753 108.254 106.389C108.087 106.028 107.944 105.606 107.794 105.162L107.264 105.341ZM105.853 103.032C106.167 103.124 106.425 103.389 106.659 103.817C106.893 104.243 107.074 104.779 107.264 105.341L107.794 105.162C107.609 104.612 107.412 104.026 107.151 103.548C106.89 103.071 106.536 102.648 106.009 102.495L105.853 103.032ZM103.376 104.221C103.842 103.85 104.288 103.496 104.721 103.261C105.155 103.026 105.526 102.939 105.854 103.033L106.008 102.494C105.472 102.342 104.939 102.507 104.455 102.769C103.97 103.032 103.483 103.42 103.027 103.783L103.376 104.221ZM101.152 105.487C101.54 105.446 101.924 105.26 102.285 105.031C102.648 104.8 103.018 104.506 103.376 104.221L103.027 103.783C102.663 104.072 102.318 104.347 101.984 104.558C101.648 104.772 101.353 104.903 101.093 104.93L101.152 105.487ZM98.6154 104.703C99.0357 104.908 99.4732 105.122 99.8939 105.275C100.312 105.426 100.744 105.529 101.151 105.487L101.094 104.93C100.811 104.959 100.474 104.889 100.085 104.748C99.6975 104.608 99.2879 104.408 98.8612 104.2L98.6154 104.703ZM96.037 104.076C96.3139 103.929 96.673 103.935 97.1317 104.068C97.5887 104.202 98.0876 104.445 98.6154 104.703L98.8612 104.2C98.3452 103.947 97.8006 103.68 97.2886 103.531C96.7782 103.382 96.2427 103.332 95.7735 103.582L96.037 104.076ZM95.171 106.564C95.2384 105.981 95.3029 105.431 95.4378 104.977C95.5731 104.522 95.7626 104.223 96.037 104.076L95.7735 103.582C95.3021 103.834 95.0521 104.31 94.901 104.818C94.7495 105.328 94.6807 105.93 94.6148 106.5L95.171 106.564ZM94.4562 109.116C94.7152 108.8 94.8636 108.382 94.9623 107.949C95.0615 107.513 95.1172 107.029 95.171 106.564L94.6148 106.5C94.5602 106.972 94.5075 107.424 94.4163 107.824C94.3246 108.227 94.2004 108.545 94.0228 108.762L94.4562 109.116ZM92.1843 110.292C92.6201 110.148 93.071 109.999 93.4634 109.82C93.8529 109.642 94.2177 109.42 94.4596 109.112L94.0194 108.766C93.8603 108.969 93.5929 109.145 93.2308 109.31C92.8715 109.474 92.4513 109.614 92.0084 109.76L92.1843 110.292ZM89.8571 111.712C89.9498 111.389 90.2184 111.127 90.649 110.893C91.079 110.659 91.6187 110.479 92.1843 110.292L92.0084 109.76C91.4555 109.943 90.8642 110.138 90.3813 110.401C89.8989 110.664 89.4726 111.021 89.3189 111.558L89.8571 111.712ZM91.048 114.183C90.676 113.718 90.3211 113.273 90.0861 112.841C89.8507 112.408 89.7636 112.039 89.8571 111.712L89.3189 111.558C89.1656 112.093 89.3312 112.625 89.5942 113.109C89.8576 113.592 90.2469 114.078 90.6107 114.533L91.048 114.183ZM92.3179 116.402C92.2765 116.014 92.0903 115.632 91.8604 115.271C91.6289 114.909 91.3335 114.54 91.048 114.183L90.6107 114.533C90.9008 114.896 91.176 115.24 91.3884 115.573C91.6024 115.908 91.7335 116.202 91.7611 116.461L92.3179 116.402ZM91.5311 118.933C91.737 118.514 91.9517 118.077 92.1047 117.658C92.2568 117.24 92.3596 116.809 92.318 116.403L91.7609 116.46C91.7898 116.742 91.7201 117.078 91.5786 117.466C91.4378 117.852 91.2376 118.261 91.0285 118.686L91.5311 118.933ZM90.9033 121.503C90.7556 121.228 90.7613 120.87 90.8954 120.413C91.0291 119.957 91.2726 119.459 91.5311 118.933L91.0285 118.686C90.7758 119.201 90.508 119.744 90.3581 120.255C90.2087 120.764 90.1585 121.299 90.4099 121.768L90.9033 121.503ZM93.3982 122.367C92.8137 122.3 92.2621 122.235 91.8069 122.101C91.3501 121.966 91.05 121.777 90.9033 121.503L90.4099 121.768C90.6621 122.238 91.1389 122.487 91.6482 122.638C92.1592 122.789 92.7629 122.858 93.3342 122.923L93.3982 122.367ZM95.9562 123.08C95.6388 122.821 95.2203 122.674 94.786 122.575C94.3494 122.476 93.864 122.421 93.3982 122.367L93.3342 122.923C93.8072 122.978 94.2608 123.03 94.6623 123.121C95.0662 123.213 95.3849 123.337 95.6028 123.514L95.9562 123.08ZM97.1496 125.359C97.0021 124.922 96.8497 124.469 96.6674 124.076C96.4864 123.684 96.2617 123.318 95.952 123.076L95.6071 123.517C95.8117 123.677 95.9908 123.947 96.1592 124.311C96.3264 124.672 96.4692 125.094 96.6191 125.538L97.1496 125.359ZM98.5606 127.668C98.2462 127.576 97.9881 127.311 97.7541 126.883C97.5208 126.457 97.3392 125.921 97.1496 125.359L96.6191 125.538C96.8044 126.088 97.0013 126.674 97.2629 127.152C97.5239 127.629 97.8774 128.052 98.4042 128.205L98.5606 127.668ZM101.038 126.479C100.571 126.85 100.125 127.204 99.6921 127.439C99.2584 127.674 98.8875 127.761 98.5592 127.667L98.4057 128.206C98.9414 128.358 99.4741 128.194 99.9587 127.931C100.444 127.669 100.93 127.28 101.386 126.917L101.038 126.479ZM103.262 125.213C102.873 125.254 102.49 125.44 102.129 125.669C101.765 125.9 101.396 126.194 101.038 126.479L101.386 126.917C101.75 126.628 102.096 126.353 102.429 126.142C102.765 125.928 103.061 125.797 103.321 125.77L103.262 125.213ZM105.798 125.997C105.378 125.792 104.94 125.578 104.52 125.425C104.101 125.274 103.67 125.171 103.263 125.213L103.319 125.77C103.602 125.741 103.939 125.811 104.329 125.952C104.716 126.092 105.126 126.292 105.552 126.501L105.798 125.997ZM108.377 126.624C108.1 126.771 107.74 126.765 107.282 126.632C106.825 126.498 106.326 126.255 105.798 125.997L105.552 126.501C106.068 126.753 106.613 127.02 107.125 127.169C107.635 127.318 108.171 127.368 108.64 127.118L108.377 126.624ZM109.243 124.136C109.175 124.719 109.111 125.269 108.976 125.723C108.84 126.178 108.651 126.477 108.377 126.624L108.64 127.118C109.111 126.866 109.361 126.391 109.512 125.882C109.664 125.372 109.733 124.77 109.799 124.2L109.243 124.136ZM109.957 121.584C109.698 121.9 109.55 122.318 109.451 122.751C109.352 123.187 109.296 123.671 109.243 124.136L109.799 124.2C109.853 123.728 109.906 123.276 109.997 122.876C110.089 122.473 110.213 122.155 110.391 121.938L109.957 121.584ZM112.242 120.393C111.804 120.541 111.35 120.693 110.955 120.874C110.564 121.055 110.197 121.279 109.954 121.588L110.394 121.934C110.555 121.73 110.825 121.551 111.19 121.383C111.552 121.216 111.975 121.074 112.421 120.924L112.242 120.393ZM102.191 122.668C106.25 122.668 109.542 119.385 109.542 115.334H108.983C108.983 119.075 105.942 122.108 102.191 122.108V122.668ZM94.8394 115.334C94.8394 119.385 98.1315 122.668 102.191 122.668V122.108C98.4394 122.108 95.3994 119.075 95.3994 115.334H94.8394ZM102.191 108.001C98.1315 108.001 94.8394 111.284 94.8394 115.334H95.3994C95.3994 111.594 98.4394 108.561 102.191 108.561V108.001ZM109.542 115.334C109.542 111.284 106.25 108.001 102.191 108.001V108.561C105.942 108.561 108.983 111.594 108.983 115.334H109.542Z" fill="#0A004C"/>
<path d="M87.3877 91.7295C89.5249 91.8862 91.8192 91.7922 93.6735 90.7263C96.9736 88.8768 98.1679 84.5507 97.6022 80.7888C97.0364 77.0583 95.1193 73.6727 93.5478 70.2244C90.9706 64.5189 89.3363 58.3746 88.7077 52.1362H81.2905V91.7922L87.3877 91.7295Z" fill="#2400FD" stroke="white" stroke-width="1.4" stroke-miterlimit="10" stroke-linecap="round" stroke-linejoin="round"/>
<path d="M66.8332 71.9797L69.4104 118.313C65.3246 118.47 61.3331 115.617 60.1703 111.698C57.8445 113.078 54.8273 112.984 52.4701 111.604C50.773 110.633 49.5158 109.002 48.6358 107.278C47.7558 105.554 47.2215 103.642 46.6872 101.761L46.31 101.51C42.79 101.51 39.6785 99.6918 37.9185 96.9018C31.727 86.9643 28.144 75.2086 28.144 62.6378C28.144 49.2206 32.1984 36.7753 39.1756 26.4302H39.0814V21.6025H88.5507V69.5659L85.8478 118.313V117.592C85.8478 122.106 82.1706 125.805 77.6134 125.805C73.0562 125.805 69.379 122.137 69.379 117.592" fill="#2400FD"/>
<path d="M66.8332 71.9797L69.4104 118.313C65.3246 118.47 61.3331 115.617 60.1703 111.698C57.8445 113.078 54.8273 112.984 52.4701 111.604C50.773 110.633 49.5158 109.002 48.6358 107.278C47.7558 105.554 47.2215 103.642 46.6872 101.761L46.31 101.51C42.79 101.51 39.6785 99.6918 37.9185 96.9018C31.727 86.9643 28.144 75.2086 28.144 62.6378C28.144 49.2206 32.1984 36.7753 39.1756 26.4302H39.0814V21.6025H88.5507V69.5659L85.8478 118.313V117.592C85.8478 122.106 82.1706 125.805 77.6134 125.805C73.0562 125.805 69.379 122.137 69.379 117.592" stroke="white" stroke-width="1.4" stroke-miterlimit="10" stroke-linecap="round" stroke-linejoin="round"/>
<path d="M60.1702 111.698L57.2473 97.9675C55.8015 91.1021 55.0472 84.1114 55.0472 77.1207V71.9795" stroke="white" stroke-width="1.4" stroke-miterlimit="10" stroke-linecap="round" stroke-linejoin="round"/>
<path d="M46.7184 101.761L37.6669 72.6694" stroke="white" stroke-width="1.4" stroke-miterlimit="10" stroke-linecap="round" stroke-linejoin="round"/>
<path d="M72.5847 123.956V119.191C72.5847 116.307 74.9104 113.987 77.8019 113.987C80.6933 113.987 83.0191 116.307 83.0191 119.191V123.799" stroke="white" stroke-width="1.4" stroke-miterlimit="10" stroke-linecap="round" stroke-linejoin="round"/>
<path d="M52.03 111.165L50.6786 106.588C49.8614 103.83 51.4329 100.914 54.1986 100.099C55.4244 99.723 56.6501 99.8484 57.7501 100.287" stroke="white" stroke-width="1.4" stroke-miterlimit="10" stroke-linecap="round" stroke-linejoin="round"/>
<path d="M62.8102 115.836L62.2445 111.103C61.8988 108.25 63.9417 105.648 66.8331 105.303C67.4932 105.241 68.1217 105.272 68.7189 105.429" stroke="white" stroke-width="1.4" stroke-miterlimit="10" stroke-linecap="round" stroke-linejoin="round"/>
<path d="M97.0679 79.1272L93.8307 80.4752C93.8307 80.4752 90.6564 73.9547 93.4535 70.5063" stroke="white" stroke-width="1.4" stroke-miterlimit="10" stroke-linecap="round" stroke-linejoin="round"/>
<path d="M78.7132 63.6095C74.8475 63.6095 74.8475 61.1016 71.0131 61.1016C67.1473 61.1016 67.1473 63.6095 63.313 63.6095C59.4472 63.6095 59.4472 61.1016 55.6129 61.1016C51.7471 61.1016 51.7471 63.6095 47.9128 63.6095C44.047 63.6095 44.047 61.1016 40.2126 61.1016" fill="#2400FD"/>
<path d="M78.7132 63.6095C74.8475 63.6095 74.8475 61.1016 71.0131 61.1016C67.1473 61.1016 67.1473 63.6095 63.313 63.6095C59.4472 63.6095 59.4472 61.1016 55.6129 61.1016C51.7471 61.1016 51.7471 63.6095 47.9128 63.6095C44.047 63.6095 44.047 61.1016 40.2126 61.1016" stroke="white" stroke-width="1.4" stroke-miterlimit="10" stroke-linecap="round" stroke-linejoin="round"/>
<path d="M81.3221 21.6025L88.4251 28.6873V21.6025H81.3221Z" fill="white"/>
<path d="M93.0135 -0.686523V21.5396L32.8898 29.3454V-0.686523" fill="#FF3E37"/>
<path d="M93.0135 -0.686523V21.5396L32.8898 29.3454V-0.686523" stroke="white" stroke-width="1.4" stroke-miterlimit="10" stroke-linecap="round" stroke-linejoin="round"/>
<path d="M93.0135 5.89648L32.8898 13.7336" stroke="white" stroke-width="1.4" stroke-miterlimit="10" stroke-linecap="round" stroke-linejoin="round"/>
<path d="M42.1928 22.9812C43.8938 22.9812 45.2728 21.6058 45.2728 19.9091C45.2728 18.2124 43.8938 16.8369 42.1928 16.8369C40.4917 16.8369 39.1127 18.2124 39.1127 19.9091C39.1127 21.6058 40.4917 22.9812 42.1928 22.9812Z" fill="white"/>
</svg>
