<svg width="318" height="274" viewBox="0 0 318 274" fill="none" xmlns="http://www.w3.org/2000/svg">
<path opacity="0.64" d="M5.18 13V6H7.99C8.71667 6 9.27 6.17 9.65 6.51C10.0367 6.84333 10.23 7.27333 10.23 7.8C10.23 8.24 10.11 8.59333 9.87 8.86C9.63667 9.12 9.35 9.29667 9.01 9.39C9.41 9.47 9.74 9.67 10 9.99C10.26 10.3033 10.39 10.67 10.39 11.09C10.39 11.6433 10.19 12.1 9.79 12.46C9.39 12.82 8.82333 13 8.09 13H5.18ZM6.46 8.94H7.8C8.16 8.94 8.43667 8.85667 8.63 8.69C8.82333 8.52333 8.92 8.28667 8.92 7.98C8.92 7.68667 8.82333 7.45667 8.63 7.29C8.44333 7.11667 8.16 7.03 7.78 7.03H6.46V8.94ZM6.46 11.96H7.89C8.27 11.96 8.56333 11.8733 8.77 11.7C8.98333 11.52 9.09 11.27 9.09 10.95C9.09 10.6233 8.98 10.3667 8.76 10.18C8.54 9.99333 8.24333 9.9 7.87 9.9H6.46V11.96ZM11.0886 13V6H12.3686V13H11.0886ZM13.3253 13V6H17.8953V7.03H14.6053V8.95H17.5953V9.95H14.6053V11.97H17.8953V13H13.3253ZM18.7066 13V6H19.9866L23.2766 10.93V6H24.5566V13H23.2766L19.9866 8.08V13H18.7066Z" fill="#0A004C"/>
<path d="M107.539 9L107.894 8.64761L107.747 8.5H107.539V9ZM38.0003 9.5C38.2764 9.5 38.5003 9.27614 38.5003 9C38.5003 8.72386 38.2764 8.5 38.0003 8.5V9.5ZM42.0025 8.5C41.7264 8.5 41.5025 8.72386 41.5025 9C41.5025 9.27614 41.7264 9.5 42.0025 9.5V8.5ZM43.0031 9.5C43.2792 9.5 43.5031 9.27614 43.5031 9C43.5031 8.72386 43.2792 8.5 43.0031 8.5V9.5ZM47.0053 8.5C46.7292 8.5 46.5053 8.72386 46.5053 9C46.5053 9.27614 46.7292 9.5 47.0053 9.5V8.5ZM48.0059 9.5C48.282 9.5 48.5059 9.27614 48.5059 9C48.5059 8.72386 48.282 8.5 48.0059 8.5V9.5ZM52.0081 8.5C51.732 8.5 51.5081 8.72386 51.5081 9C51.5081 9.27614 51.732 9.5 52.0081 9.5V8.5ZM53.0087 9.5C53.2848 9.5 53.5087 9.27614 53.5087 9C53.5087 8.72386 53.2848 8.5 53.0087 8.5V9.5ZM57.0109 8.5C56.7348 8.5 56.5109 8.72386 56.5109 9C56.5109 9.27614 56.7348 9.5 57.0109 9.5V8.5ZM58.0115 9.5C58.2876 9.5 58.5115 9.27614 58.5115 9C58.5115 8.72386 58.2876 8.5 58.0115 8.5V9.5ZM62.0137 8.5C61.7376 8.5 61.5137 8.72386 61.5137 9C61.5137 9.27614 61.7376 9.5 62.0137 9.5V8.5ZM63.0143 9.5C63.2904 9.5 63.5143 9.27614 63.5143 9C63.5143 8.72386 63.2904 8.5 63.0143 8.5V9.5ZM67.0165 8.5C66.7404 8.5 66.5165 8.72386 66.5165 9C66.5165 9.27614 66.7404 9.5 67.0165 9.5V8.5ZM68.0171 9.5C68.2932 9.5 68.5171 9.27614 68.5171 9C68.5171 8.72386 68.2932 8.5 68.0171 8.5V9.5ZM72.0193 8.5C71.7432 8.5 71.5193 8.72386 71.5193 9C71.5193 9.27614 71.7432 9.5 72.0193 9.5V8.5ZM73.0199 9.5C73.296 9.5 73.5199 9.27614 73.5199 9C73.5199 8.72386 73.296 8.5 73.0199 8.5V9.5ZM77.0221 8.5C76.746 8.5 76.5221 8.72386 76.5221 9C76.5221 9.27614 76.746 9.5 77.0221 9.5V8.5ZM78.0227 9.5C78.2988 9.5 78.5227 9.27614 78.5227 9C78.5227 8.72386 78.2988 8.5 78.0227 8.5V9.5ZM82.0249 8.5C81.7488 8.5 81.5249 8.72386 81.5249 9C81.5249 9.27614 81.7488 9.5 82.0249 9.5V8.5ZM83.0255 9.5C83.3016 9.5 83.5255 9.27614 83.5255 9C83.5255 8.72386 83.3016 8.5 83.0255 8.5V9.5ZM87.0277 8.5C86.7516 8.5 86.5277 8.72386 86.5277 9C86.5277 9.27614 86.7516 9.5 87.0277 9.5V8.5ZM88.0283 9.5C88.3044 9.5 88.5283 9.27614 88.5283 9C88.5283 8.72386 88.3044 8.5 88.0283 8.5V9.5ZM92.0305 8.5C91.7544 8.5 91.5305 8.72386 91.5305 9C91.5305 9.27614 91.7544 9.5 92.0305 9.5V8.5ZM93.0311 9.5C93.3072 9.5 93.5311 9.27614 93.5311 9C93.5311 8.72386 93.3072 8.5 93.0311 8.5V9.5ZM97.0333 8.5C96.7572 8.5 96.5333 8.72386 96.5333 9C96.5333 9.27614 96.7572 9.5 97.0333 9.5V8.5ZM98.0339 9.5C98.31 9.5 98.5339 9.27614 98.5339 9C98.5339 8.72386 98.31 8.5 98.0339 8.5V9.5ZM102.036 8.5C101.76 8.5 101.536 8.72386 101.536 9C101.536 9.27614 101.76 9.5 102.036 9.5V8.5ZM103.037 9.5C103.313 9.5 103.537 9.27614 103.537 9C103.537 8.72386 103.313 8.5 103.037 8.5V9.5ZM107.039 8.5C106.763 8.5 106.539 8.72386 106.539 9C106.539 9.27614 106.763 9.5 107.039 9.5V8.5ZM107.483 9.65239C107.677 9.84829 107.994 9.84933 108.19 9.65471C108.386 9.46009 108.387 9.14351 108.192 8.94761L107.483 9.65239ZM110.576 11.3476C110.382 11.1517 110.065 11.1507 109.869 11.3453C109.673 11.5399 109.672 11.8565 109.867 12.0524L110.576 11.3476ZM110.463 12.6524C110.658 12.8483 110.974 12.8493 111.17 12.6547C111.366 12.4601 111.367 12.1435 111.172 11.9476L110.463 12.6524ZM113.557 14.3476C113.362 14.1517 113.045 14.1507 112.85 14.3453C112.654 14.5399 112.653 14.8565 112.847 15.0524L113.557 14.3476ZM37.5 9.5H38.0003V8.5H37.5V9.5ZM42.0025 9.5H43.0031V8.5H42.0025V9.5ZM47.0053 9.5H48.0059V8.5H47.0053V9.5ZM52.0081 9.5H53.0087V8.5H52.0081V9.5ZM57.0109 9.5H58.0115V8.5H57.0109V9.5ZM62.0137 9.5H63.0143V8.5H62.0137V9.5ZM67.0165 9.5H68.0171V8.5H67.0165V9.5ZM72.0193 9.5H73.0199V8.5H72.0193V9.5ZM77.0221 9.5H78.0227V8.5H77.0221V9.5ZM82.0249 9.5H83.0255V8.5H82.0249V9.5ZM87.0277 9.5H88.0283V8.5H87.0277V9.5ZM92.0305 9.5H93.0311V8.5H92.0305V9.5ZM97.0333 9.5H98.0339V8.5H97.0333V9.5ZM102.036 9.5H103.037V8.5H102.036V9.5ZM107.039 9.5H107.539V8.5H107.039V9.5ZM107.185 9.35239L107.483 9.65239L108.192 8.94761L107.894 8.64761L107.185 9.35239ZM109.867 12.0524L110.463 12.6524L111.172 11.9476L110.576 11.3476L109.867 12.0524ZM112.847 15.0524L113.145 15.3524L113.855 14.6476L113.557 14.3476L112.847 15.0524Z" fill="#D3D715"/>
<path d="M97.5 149L97.8547 148.648L97.7081 148.5H97.5V149ZM58.9875 149.5C59.2636 149.5 59.4875 149.276 59.4875 149C59.4875 148.724 59.2636 148.5 58.9875 148.5V149.5ZM62.8875 148.5C62.6114 148.5 62.3875 148.724 62.3875 149C62.3875 149.276 62.6114 149.5 62.8875 149.5V148.5ZM63.8625 149.5C64.1386 149.5 64.3625 149.276 64.3625 149C64.3625 148.724 64.1386 148.5 63.8625 148.5V149.5ZM67.7625 148.5C67.4864 148.5 67.2625 148.724 67.2625 149C67.2625 149.276 67.4864 149.5 67.7625 149.5V148.5ZM68.7375 149.5C69.0136 149.5 69.2375 149.276 69.2375 149C69.2375 148.724 69.0136 148.5 68.7375 148.5V149.5ZM72.6375 148.5C72.3614 148.5 72.1375 148.724 72.1375 149C72.1375 149.276 72.3614 149.5 72.6375 149.5V148.5ZM73.6125 149.5C73.8886 149.5 74.1125 149.276 74.1125 149C74.1125 148.724 73.8886 148.5 73.6125 148.5V149.5ZM77.5125 148.5C77.2364 148.5 77.0125 148.724 77.0125 149C77.0125 149.276 77.2364 149.5 77.5125 149.5V148.5ZM78.4875 149.5C78.7636 149.5 78.9875 149.276 78.9875 149C78.9875 148.724 78.7636 148.5 78.4875 148.5V149.5ZM82.3875 148.5C82.1114 148.5 81.8875 148.724 81.8875 149C81.8875 149.276 82.1114 149.5 82.3875 149.5V148.5ZM83.3625 149.5C83.6386 149.5 83.8625 149.276 83.8625 149C83.8625 148.724 83.6386 148.5 83.3625 148.5V149.5ZM87.2625 148.5C86.9864 148.5 86.7625 148.724 86.7625 149C86.7625 149.276 86.9864 149.5 87.2625 149.5V148.5ZM88.2375 149.5C88.5136 149.5 88.7375 149.276 88.7375 149C88.7375 148.724 88.5136 148.5 88.2375 148.5V149.5ZM92.1375 148.5C91.8614 148.5 91.6375 148.724 91.6375 149C91.6375 149.276 91.8614 149.5 92.1375 149.5V148.5ZM93.1125 149.5C93.3886 149.5 93.6125 149.276 93.6125 149C93.6125 148.724 93.3886 148.5 93.1125 148.5V149.5ZM97.0125 148.5C96.7364 148.5 96.5125 148.724 96.5125 149C96.5125 149.276 96.7364 149.5 97.0125 149.5V148.5ZM97.4433 149.652C97.638 149.848 97.9545 149.849 98.1504 149.655C98.3463 149.46 98.3474 149.144 98.1527 148.948L97.4433 149.652ZM100.537 151.348C100.342 151.152 100.026 151.151 99.83 151.345C99.6341 151.54 99.633 151.856 99.8276 152.052L100.537 151.348ZM100.424 152.652C100.618 152.848 100.935 152.849 101.131 152.655C101.327 152.46 101.328 152.144 101.133 151.948L100.424 152.652ZM103.517 154.348C103.323 154.152 103.006 154.151 102.81 154.345C102.614 154.54 102.613 154.856 102.808 155.052L103.517 154.348ZM58.5 149.5H58.9875V148.5H58.5V149.5ZM62.8875 149.5H63.8625V148.5H62.8875V149.5ZM67.7625 149.5H68.7375V148.5H67.7625V149.5ZM72.6375 149.5H73.6125V148.5H72.6375V149.5ZM77.5125 149.5H78.4875V148.5H77.5125V149.5ZM82.3875 149.5H83.3625V148.5H82.3875V149.5ZM87.2625 149.5H88.2375V148.5H87.2625V149.5ZM92.1375 149.5H93.1125V148.5H92.1375V149.5ZM97.0125 149.5H97.5V148.5H97.0125V149.5ZM97.1453 149.352L97.4433 149.652L98.1527 148.948L97.8547 148.648L97.1453 149.352ZM99.8276 152.052L100.424 152.652L101.133 151.948L100.537 151.348L99.8276 152.052ZM102.808 155.052L103.106 155.352L103.815 154.648L103.517 154.348L102.808 155.052Z" fill="#C27C13"/>
<path d="M248.5 26V25.5H248.315L248.175 25.6204L248.5 26ZM242.175 32.0796C242.385 31.8999 242.409 31.5843 242.23 31.3746C242.05 31.1649 241.734 31.1407 241.525 31.3204L242.175 32.0796ZM244.325 28.9204C244.115 29.1001 244.091 29.4157 244.27 29.6254C244.45 29.8351 244.766 29.8593 244.975 29.6796L244.325 28.9204ZM245.675 29.0796C245.885 28.8999 245.909 28.5843 245.73 28.3746C245.55 28.1649 245.234 28.1407 245.025 28.3204L245.675 29.0796ZM247.825 25.9204C247.615 26.1001 247.591 26.4157 247.77 26.6254C247.95 26.8351 248.266 26.8593 248.475 26.6796L247.825 25.9204ZM249.05 26.5C249.326 26.5 249.55 26.2761 249.55 26C249.55 25.7239 249.326 25.5 249.05 25.5V26.5ZM253.45 25.5C253.174 25.5 252.95 25.7239 252.95 26C252.95 26.2761 253.174 26.5 253.45 26.5V25.5ZM254.55 26.5C254.826 26.5 255.05 26.2761 255.05 26C255.05 25.7239 254.826 25.5 254.55 25.5V26.5ZM258.95 25.5C258.674 25.5 258.45 25.7239 258.45 26C258.45 26.2761 258.674 26.5 258.95 26.5V25.5ZM241.825 32.3796L242.175 32.0796L241.525 31.3204L241.175 31.6204L241.825 32.3796ZM244.975 29.6796L245.675 29.0796L245.025 28.3204L244.325 28.9204L244.975 29.6796ZM248.475 26.6796L248.825 26.3796L248.175 25.6204L247.825 25.9204L248.475 26.6796ZM248.5 26.5H249.05V25.5H248.5V26.5ZM253.45 26.5H254.55V25.5H253.45V26.5ZM258.95 26.5H259.5V25.5H258.95V26.5Z" fill="#3A9918"/>
<path d="M244 149V148.5H243.815L243.675 148.62L244 149ZM237.675 155.08C237.885 154.9 237.909 154.584 237.73 154.375C237.55 154.165 237.234 154.141 237.025 154.32L237.675 155.08ZM239.825 151.92C239.615 152.1 239.591 152.416 239.77 152.625C239.95 152.835 240.266 152.859 240.475 152.68L239.825 151.92ZM241.175 152.08C241.385 151.9 241.409 151.584 241.23 151.375C241.05 151.165 240.734 151.141 240.525 151.32L241.175 152.08ZM243.325 148.92C243.115 149.1 243.091 149.416 243.27 149.625C243.45 149.835 243.766 149.859 243.975 149.68L243.325 148.92ZM244.387 149.5C244.664 149.5 244.887 149.276 244.887 149C244.887 148.724 244.664 148.5 244.387 148.5V149.5ZM247.488 148.5C247.211 148.5 246.988 148.724 246.988 149C246.988 149.276 247.211 149.5 247.488 149.5V148.5ZM248.262 149.5C248.539 149.5 248.762 149.276 248.762 149C248.762 148.724 248.539 148.5 248.262 148.5V149.5ZM251.363 148.5C251.086 148.5 250.863 148.724 250.863 149C250.863 149.276 251.086 149.5 251.363 149.5V148.5ZM252.137 149.5C252.414 149.5 252.637 149.276 252.637 149C252.637 148.724 252.414 148.5 252.137 148.5V149.5ZM255.237 148.5C254.961 148.5 254.737 148.724 254.737 149C254.737 149.276 254.961 149.5 255.237 149.5V148.5ZM256.012 149.5C256.289 149.5 256.512 149.276 256.512 149C256.512 148.724 256.289 148.5 256.012 148.5V149.5ZM259.112 148.5C258.836 148.5 258.612 148.724 258.612 149C258.612 149.276 258.836 149.5 259.112 149.5V148.5ZM237.325 155.38L237.675 155.08L237.025 154.32L236.675 154.62L237.325 155.38ZM240.475 152.68L241.175 152.08L240.525 151.32L239.825 151.92L240.475 152.68ZM243.975 149.68L244.325 149.38L243.675 148.62L243.325 148.92L243.975 149.68ZM244 149.5H244.387V148.5H244V149.5ZM247.488 149.5H248.262V148.5H247.488V149.5ZM251.363 149.5H252.137V148.5H251.363V149.5ZM255.237 149.5H256.012V148.5H255.237V149.5ZM259.112 149.5H259.5V148.5H259.112V149.5Z" fill="#C2B113"/>
<path opacity="0.64" d="M6.81 67V61.03H4.77V60H10.14V61.03H8.09V67H6.81ZM10.6882 67V60H13.2582C13.8182 60 14.2782 60.0967 14.6382 60.29C15.0049 60.4767 15.2782 60.7333 15.4582 61.06C15.6382 61.38 15.7282 61.7367 15.7282 62.13C15.7282 62.5567 15.6149 62.9467 15.3882 63.3C15.1682 63.6533 14.8215 63.91 14.3482 64.07L15.7982 67H14.3282L13.0282 64.24H11.9682V67H10.6882ZM11.9682 63.3H13.1782C13.6049 63.3 13.9182 63.1967 14.1182 62.99C14.3182 62.7833 14.4182 62.51 14.4182 62.17C14.4182 61.8367 14.3182 61.57 14.1182 61.37C13.9249 61.17 13.6082 61.07 13.1682 61.07H11.9682V63.3ZM16.5187 67V60H21.0887V61.03H17.7987V62.95H20.7887V63.95H17.7987V65.97H21.0887V67H16.5187ZM24.2899 67.12C23.7766 67.12 23.3233 67.0333 22.9299 66.86C22.5366 66.68 22.2266 66.4267 21.9999 66.1C21.7733 65.7667 21.6566 65.3633 21.6499 64.89H22.9999C23.0133 65.2167 23.1299 65.4933 23.3499 65.72C23.5766 65.94 23.8866 66.05 24.2799 66.05C24.6199 66.05 24.8899 65.97 25.0899 65.81C25.2899 65.6433 25.3899 65.4233 25.3899 65.15C25.3899 64.8633 25.2999 64.64 25.1199 64.48C24.9466 64.32 24.7133 64.19 24.4199 64.09C24.1266 63.99 23.8133 63.8833 23.4799 63.77C22.9399 63.5833 22.5266 63.3433 22.2399 63.05C21.9599 62.7567 21.8199 62.3667 21.8199 61.88C21.8133 61.4667 21.9099 61.1133 22.1099 60.82C22.3166 60.52 22.5966 60.29 22.9499 60.13C23.3033 59.9633 23.7099 59.88 24.1699 59.88C24.6366 59.88 25.0466 59.9633 25.3999 60.13C25.7599 60.2967 26.0399 60.53 26.2399 60.83C26.4466 61.13 26.5566 61.4867 26.5699 61.9H25.1999C25.1933 61.6533 25.0966 61.4367 24.9099 61.25C24.7299 61.0567 24.4766 60.96 24.1499 60.96C23.8699 60.9533 23.6333 61.0233 23.4399 61.17C23.2533 61.31 23.1599 61.5167 23.1599 61.79C23.1599 62.0233 23.2333 62.21 23.3799 62.35C23.5266 62.4833 23.7266 62.5967 23.9799 62.69C24.2333 62.7833 24.5233 62.8833 24.8499 62.99C25.1966 63.11 25.5133 63.25 25.7999 63.41C26.0866 63.57 26.3166 63.7833 26.4899 64.05C26.6633 64.31 26.7499 64.6467 26.7499 65.06C26.7499 65.4267 26.6566 65.7667 26.4699 66.08C26.2833 66.3933 26.0066 66.6467 25.6399 66.84C25.2733 67.0267 24.8233 67.12 24.2899 67.12ZM29.4495 67V60H32.2595C32.9862 60 33.5395 60.17 33.9195 60.51C34.3062 60.8433 34.4995 61.2733 34.4995 61.8C34.4995 62.24 34.3795 62.5933 34.1395 62.86C33.9062 63.12 33.6195 63.2967 33.2795 63.39C33.6795 63.47 34.0095 63.67 34.2695 63.99C34.5295 64.3033 34.6595 64.67 34.6595 65.09C34.6595 65.6433 34.4595 66.1 34.0595 66.46C33.6595 66.82 33.0929 67 32.3595 67H29.4495ZM30.7295 62.94H32.0695C32.4295 62.94 32.7062 62.8567 32.8995 62.69C33.0929 62.5233 33.1895 62.2867 33.1895 61.98C33.1895 61.6867 33.0929 61.4567 32.8995 61.29C32.7129 61.1167 32.4295 61.03 32.0495 61.03H30.7295V62.94ZM30.7295 65.96H32.1595C32.5395 65.96 32.8329 65.8733 33.0395 65.7C33.2529 65.52 33.3595 65.27 33.3595 64.95C33.3595 64.6233 33.2495 64.3667 33.0295 64.18C32.8095 63.9933 32.5129 63.9 32.1395 63.9H30.7295V65.96ZM35.3581 67V60H36.6381V67H35.3581ZM37.5948 67V60H42.1648V61.03H38.8748V62.95H41.8648V63.95H38.8748V65.97H42.1648V67H37.5948ZM42.9761 67V60H44.2561L47.5461 64.93V60H48.8261V67H47.5461L44.2561 62.08V67H42.9761Z" fill="#0A004C"/>
<path opacity="0.64" d="M5.18 152V145H7.77C8.33 145 8.79333 145.093 9.16 145.28C9.52667 145.467 9.8 145.723 9.98 146.05C10.16 146.377 10.25 146.743 10.25 147.15C10.25 147.537 10.1633 147.893 9.99 148.22C9.81667 148.54 9.54667 148.8 9.18 149C8.81333 149.193 8.34333 149.29 7.77 149.29H6.46V152H5.18ZM6.46 148.25H7.69C8.13667 148.25 8.45667 148.153 8.65 147.96C8.85 147.76 8.95 147.49 8.95 147.15C8.95 146.803 8.85 146.533 8.65 146.34C8.45667 146.14 8.13667 146.04 7.69 146.04H6.46V148.25ZM9.65227 152L12.2123 145H13.6523L16.2123 152H14.8523L14.2923 150.38H11.5623L10.9923 152H9.65227ZM11.9123 149.38H13.9423L12.9223 146.47L11.9123 149.38ZM19.104 152.12C18.5907 152.12 18.1373 152.033 17.744 151.86C17.3507 151.68 17.0407 151.427 16.814 151.1C16.5873 150.767 16.4707 150.363 16.464 149.89H17.814C17.8273 150.217 17.944 150.493 18.164 150.72C18.3907 150.94 18.7007 151.05 19.094 151.05C19.434 151.05 19.704 150.97 19.904 150.81C20.104 150.643 20.204 150.423 20.204 150.15C20.204 149.863 20.114 149.64 19.934 149.48C19.7607 149.32 19.5273 149.19 19.234 149.09C18.9407 148.99 18.6273 148.883 18.294 148.77C17.754 148.583 17.3407 148.343 17.054 148.05C16.774 147.757 16.634 147.367 16.634 146.88C16.6273 146.467 16.724 146.113 16.924 145.82C17.1307 145.52 17.4107 145.29 17.764 145.13C18.1173 144.963 18.524 144.88 18.984 144.88C19.4507 144.88 19.8607 144.963 20.214 145.13C20.574 145.297 20.854 145.53 21.054 145.83C21.2607 146.13 21.3707 146.487 21.384 146.9H20.014C20.0073 146.653 19.9107 146.437 19.724 146.25C19.544 146.057 19.2907 145.96 18.964 145.96C18.684 145.953 18.4473 146.023 18.254 146.17C18.0673 146.31 17.974 146.517 17.974 146.79C17.974 147.023 18.0473 147.21 18.194 147.35C18.3407 147.483 18.5407 147.597 18.794 147.69C19.0473 147.783 19.3373 147.883 19.664 147.99C20.0107 148.11 20.3273 148.25 20.614 148.41C20.9007 148.57 21.1307 148.783 21.304 149.05C21.4773 149.31 21.564 149.647 21.564 150.06C21.564 150.427 21.4707 150.767 21.284 151.08C21.0973 151.393 20.8207 151.647 20.454 151.84C20.0873 152.027 19.6373 152.12 19.104 152.12ZM24.6708 152.12C24.1574 152.12 23.7041 152.033 23.3108 151.86C22.9174 151.68 22.6074 151.427 22.3808 151.1C22.1541 150.767 22.0374 150.363 22.0308 149.89H23.3808C23.3941 150.217 23.5108 150.493 23.7308 150.72C23.9574 150.94 24.2674 151.05 24.6608 151.05C25.0008 151.05 25.2708 150.97 25.4708 150.81C25.6708 150.643 25.7708 150.423 25.7708 150.15C25.7708 149.863 25.6808 149.64 25.5008 149.48C25.3274 149.32 25.0941 149.19 24.8008 149.09C24.5074 148.99 24.1941 148.883 23.8608 148.77C23.3208 148.583 22.9074 148.343 22.6208 148.05C22.3408 147.757 22.2008 147.367 22.2008 146.88C22.1941 146.467 22.2908 146.113 22.4908 145.82C22.6974 145.52 22.9774 145.29 23.3308 145.13C23.6841 144.963 24.0908 144.88 24.5508 144.88C25.0174 144.88 25.4274 144.963 25.7808 145.13C26.1408 145.297 26.4208 145.53 26.6208 145.83C26.8274 146.13 26.9374 146.487 26.9508 146.9H25.5808C25.5741 146.653 25.4774 146.437 25.2908 146.25C25.1108 146.057 24.8574 145.96 24.5308 145.96C24.2508 145.953 24.0141 146.023 23.8208 146.17C23.6341 146.31 23.5408 146.517 23.5408 146.79C23.5408 147.023 23.6141 147.21 23.7608 147.35C23.9074 147.483 24.1074 147.597 24.3608 147.69C24.6141 147.783 24.9041 147.883 25.2308 147.99C25.5774 148.11 25.8941 148.25 26.1808 148.41C26.4674 148.57 26.6974 148.783 26.8708 149.05C27.0441 149.31 27.1308 149.647 27.1308 150.06C27.1308 150.427 27.0374 150.767 26.8508 151.08C26.6641 151.393 26.3874 151.647 26.0208 151.84C25.6541 152.027 25.2041 152.12 24.6708 152.12ZM27.3976 152L29.9576 145H31.3976L33.9576 152H32.5976L32.0376 150.38H29.3076L28.7376 152H27.3976ZM29.6576 149.38H31.6876L30.6676 146.47L29.6576 149.38ZM34.4593 152V145H37.2693C37.996 145 38.5493 145.17 38.9293 145.51C39.316 145.843 39.5093 146.273 39.5093 146.8C39.5093 147.24 39.3893 147.593 39.1493 147.86C38.916 148.12 38.6293 148.297 38.2893 148.39C38.6893 148.47 39.0193 148.67 39.2793 148.99C39.5393 149.303 39.6693 149.67 39.6693 150.09C39.6693 150.643 39.4693 151.1 39.0693 151.46C38.6693 151.82 38.1026 152 37.3693 152H34.4593ZM35.7393 147.94H37.0793C37.4393 147.94 37.716 147.857 37.9093 147.69C38.1026 147.523 38.1993 147.287 38.1993 146.98C38.1993 146.687 38.1026 146.457 37.9093 146.29C37.7226 146.117 37.4393 146.03 37.0593 146.03H35.7393V147.94ZM35.7393 150.96H37.1693C37.5493 150.96 37.8426 150.873 38.0493 150.7C38.2626 150.52 38.3693 150.27 38.3693 149.95C38.3693 149.623 38.2593 149.367 38.0393 149.18C37.8193 148.993 37.5226 148.9 37.1493 148.9H35.7393V150.96ZM40.3679 152V145H41.6479V151H44.7479V152H40.3679ZM45.4757 152V145H50.0457V146.03H46.7557V147.95H49.7457V148.95H46.7557V150.97H50.0457V152H45.4757Z" fill="#0A004C"/>
<path opacity="0.64" d="M263.73 152L266.29 145H267.73L270.29 152H268.93L268.37 150.38H265.64L265.07 152H263.73ZM265.99 149.38H268.02L267 146.47L265.99 149.38ZM273.182 152.12C272.668 152.12 272.215 152.033 271.822 151.86C271.428 151.68 271.118 151.427 270.892 151.1C270.665 150.767 270.548 150.363 270.542 149.89H271.892C271.905 150.217 272.022 150.493 272.242 150.72C272.468 150.94 272.778 151.05 273.172 151.05C273.512 151.05 273.782 150.97 273.982 150.81C274.182 150.643 274.282 150.423 274.282 150.15C274.282 149.863 274.192 149.64 274.012 149.48C273.838 149.32 273.605 149.19 273.312 149.09C273.018 148.99 272.705 148.883 272.372 148.77C271.832 148.583 271.418 148.343 271.132 148.05C270.852 147.757 270.712 147.367 270.712 146.88C270.705 146.467 270.802 146.113 271.002 145.82C271.208 145.52 271.488 145.29 271.842 145.13C272.195 144.963 272.602 144.88 273.062 144.88C273.528 144.88 273.938 144.963 274.292 145.13C274.652 145.297 274.932 145.53 275.132 145.83C275.338 146.13 275.448 146.487 275.462 146.9H274.092C274.085 146.653 273.988 146.437 273.802 146.25C273.622 146.057 273.368 145.96 273.042 145.96C272.762 145.953 272.525 146.023 272.332 146.17C272.145 146.31 272.052 146.517 272.052 146.79C272.052 147.023 272.125 147.21 272.272 147.35C272.418 147.483 272.618 147.597 272.872 147.69C273.125 147.783 273.415 147.883 273.742 147.99C274.088 148.11 274.405 148.25 274.692 148.41C274.978 148.57 275.208 148.783 275.382 149.05C275.555 149.31 275.642 149.647 275.642 150.06C275.642 150.427 275.548 150.767 275.362 151.08C275.175 151.393 274.898 151.647 274.532 151.84C274.165 152.027 273.715 152.12 273.182 152.12ZM278.749 152.12C278.235 152.12 277.782 152.033 277.389 151.86C276.995 151.68 276.685 151.427 276.459 151.1C276.232 150.767 276.115 150.363 276.109 149.89H277.459C277.472 150.217 277.589 150.493 277.809 150.72C278.035 150.94 278.345 151.05 278.739 151.05C279.079 151.05 279.349 150.97 279.549 150.81C279.749 150.643 279.849 150.423 279.849 150.15C279.849 149.863 279.759 149.64 279.579 149.48C279.405 149.32 279.172 149.19 278.879 149.09C278.585 148.99 278.272 148.883 277.939 148.77C277.399 148.583 276.985 148.343 276.699 148.05C276.419 147.757 276.279 147.367 276.279 146.88C276.272 146.467 276.369 146.113 276.569 145.82C276.775 145.52 277.055 145.29 277.409 145.13C277.762 144.963 278.169 144.88 278.629 144.88C279.095 144.88 279.505 144.963 279.859 145.13C280.219 145.297 280.499 145.53 280.699 145.83C280.905 146.13 281.015 146.487 281.029 146.9H279.659C279.652 146.653 279.555 146.437 279.369 146.25C279.189 146.057 278.935 145.96 278.609 145.96C278.329 145.953 278.092 146.023 277.899 146.17C277.712 146.31 277.619 146.517 277.619 146.79C277.619 147.023 277.692 147.21 277.839 147.35C277.985 147.483 278.185 147.597 278.439 147.69C278.692 147.783 278.982 147.883 279.309 147.99C279.655 148.11 279.972 148.25 280.259 148.41C280.545 148.57 280.775 148.783 280.949 149.05C281.122 149.31 281.209 149.647 281.209 150.06C281.209 150.427 281.115 150.767 280.929 151.08C280.742 151.393 280.465 151.647 280.099 151.84C279.732 152.027 279.282 152.12 278.749 152.12ZM281.925 152V145H286.495V146.03H283.205V147.95H286.195V148.95H283.205V150.97H286.495V152H281.925ZM287.097 152V151.02L290.317 146.07H287.127V145H291.797V145.98L288.557 150.93H291.817V152H287.097ZM294.553 152V145H297.363C298.09 145 298.643 145.17 299.023 145.51C299.41 145.843 299.603 146.273 299.603 146.8C299.603 147.24 299.483 147.593 299.243 147.86C299.01 148.12 298.723 148.297 298.383 148.39C298.783 148.47 299.113 148.67 299.373 148.99C299.633 149.303 299.763 149.67 299.763 150.09C299.763 150.643 299.563 151.1 299.163 151.46C298.763 151.82 298.197 152 297.463 152H294.553ZM295.833 147.94H297.173C297.533 147.94 297.81 147.857 298.003 147.69C298.197 147.523 298.293 147.287 298.293 146.98C298.293 146.687 298.197 146.457 298.003 146.29C297.817 146.117 297.533 146.03 297.153 146.03H295.833V147.94ZM295.833 150.96H297.263C297.643 150.96 297.937 150.873 298.143 150.7C298.357 150.52 298.463 150.27 298.463 149.95C298.463 149.623 298.353 149.367 298.133 149.18C297.913 148.993 297.617 148.9 297.243 148.9H295.833V150.96ZM300.462 152V145H301.742V152H300.462ZM302.699 152V145H307.269V146.03H303.979V147.95H306.969V148.95H303.979V150.97H307.269V152H302.699ZM308.08 152V145H309.36L312.65 149.93V145H313.93V152H312.65L309.36 147.08V152H308.08Z" fill="#0A004C"/>
<path opacity="0.64" d="M264.18 29V22H268.75V23.03H265.46V24.95H268.45V25.95H265.46V27.97H268.75V29H264.18ZM269.221 29L271.411 25.46L269.191 22H270.661L272.231 24.44L273.671 22H275.111L272.921 25.52L275.161 29H273.691L272.101 26.53L270.661 29H269.221ZM278.415 29.12C277.709 29.12 277.102 28.97 276.595 28.67C276.089 28.3633 275.699 27.94 275.425 27.4C275.152 26.8533 275.015 26.2233 275.015 25.51C275.015 24.7967 275.152 24.1667 275.425 23.62C275.699 23.0733 276.089 22.6467 276.595 22.34C277.102 22.0333 277.709 21.88 278.415 21.88C279.255 21.88 279.942 22.09 280.475 22.51C281.015 22.9233 281.352 23.5067 281.485 24.26H280.075C279.989 23.88 279.802 23.5833 279.515 23.37C279.235 23.15 278.862 23.04 278.395 23.04C277.749 23.04 277.242 23.26 276.875 23.7C276.509 24.14 276.325 24.7433 276.325 25.51C276.325 26.2767 276.509 26.88 276.875 27.32C277.242 27.7533 277.749 27.97 278.395 27.97C278.862 27.97 279.235 27.87 279.515 27.67C279.802 27.4633 279.989 27.18 280.075 26.82H281.485C281.352 27.54 281.015 28.1033 280.475 28.51C279.942 28.9167 279.255 29.12 278.415 29.12ZM282.218 29V22H286.788V23.03H283.498V24.95H286.488V25.95H283.498V27.97H286.788V29H282.218ZM287.6 29V22H288.88V28H291.98V29H287.6ZM292.707 29V22H293.987V28H297.087V29H292.707ZM297.815 29V22H302.385V23.03H299.095V24.95H302.085V25.95H299.095V27.97H302.385V29H297.815ZM303.196 29V22H304.476L307.766 26.93V22H309.046V29H307.766L304.476 24.08V29H303.196ZM311.633 29V23.03H309.593V22H314.963V23.03H312.913V29H311.633Z" fill="#0A004C"/>
<g opacity="0.8" filter="url(#filter0_d_282_10841)">
<circle cx="146.926" cy="149.437" r="38.8053" fill="#C27C13"/>
</g>
<g opacity="0.8" filter="url(#filter1_d_282_10841)">
<circle cx="205" cy="165.5" r="28.5" fill="#C2B113"/>
</g>
<g opacity="0.8" filter="url(#filter2_d_282_10841)">
<circle cx="142.673" cy="33.6789" r="30.3" fill="#D3D715"/>
</g>
<g opacity="0.8" filter="url(#filter3_d_282_10841)">
<circle cx="102.5" cy="88" r="44" fill="#A0CF1C"/>
</g>
<g opacity="0.8" filter="url(#filter4_d_282_10841)">
<circle cx="196.5" cy="88" r="63" fill="#3A9918"/>
</g>
<path d="M178.693 96.288C177.589 96.288 176.589 96.096 175.693 95.712C174.797 95.312 174.077 94.704 173.533 93.888C172.989 93.072 172.701 92.048 172.669 90.816H175.693C175.709 91.632 175.973 92.32 176.485 92.88C177.013 93.424 177.749 93.696 178.693 93.696C179.589 93.696 180.277 93.448 180.757 92.952C181.237 92.456 181.477 91.832 181.477 91.08C181.477 90.2 181.157 89.536 180.517 89.088C179.893 88.624 179.085 88.392 178.093 88.392H176.845V85.872H178.117C178.933 85.872 179.613 85.68 180.157 85.296C180.701 84.912 180.973 84.344 180.973 83.592C180.973 82.968 180.765 82.472 180.349 82.104C179.949 81.72 179.389 81.528 178.669 81.528C177.885 81.528 177.269 81.76 176.821 82.224C176.389 82.688 176.149 83.256 176.101 83.928H173.101C173.165 82.376 173.701 81.152 174.709 80.256C175.733 79.36 177.053 78.912 178.669 78.912C179.821 78.912 180.789 79.12 181.573 79.536C182.373 79.936 182.973 80.472 183.373 81.144C183.789 81.816 183.997 82.56 183.997 83.376C183.997 84.32 183.733 85.12 183.205 85.776C182.693 86.416 182.053 86.848 181.285 87.072C182.229 87.264 182.997 87.728 183.589 88.464C184.181 89.184 184.477 90.096 184.477 91.2C184.477 92.128 184.253 92.976 183.805 93.744C183.357 94.512 182.701 95.128 181.837 95.592C180.989 96.056 179.941 96.288 178.693 96.288ZM193.398 96.288C192.166 96.288 191.102 96.072 190.206 95.64C189.326 95.208 188.63 94.616 188.118 93.864C187.622 93.096 187.334 92.232 187.254 91.272H190.254C190.398 91.96 190.75 92.536 191.31 93C191.87 93.448 192.566 93.672 193.398 93.672C194.294 93.672 195.022 93.344 195.582 92.688C196.158 92.032 196.446 91.216 196.446 90.24C196.446 89.232 196.158 88.432 195.582 87.84C195.022 87.248 194.31 86.952 193.446 86.952C192.726 86.952 192.102 87.128 191.574 87.48C191.046 87.832 190.67 88.272 190.446 88.8H187.494L188.934 79.2H198.246V81.888H191.238L190.47 85.776C190.822 85.392 191.302 85.08 191.91 84.84C192.518 84.584 193.198 84.456 193.95 84.456C195.15 84.456 196.15 84.728 196.95 85.272C197.75 85.8 198.358 86.504 198.774 87.384C199.19 88.248 199.398 89.192 199.398 90.216C199.398 91.384 199.142 92.424 198.63 93.336C198.134 94.248 197.43 94.968 196.518 95.496C195.622 96.024 194.582 96.288 193.398 96.288ZM205.593 87.456C204.825 87.456 204.129 87.288 203.505 86.952C202.881 86.6 202.385 86.104 202.017 85.464C201.649 84.824 201.465 84.064 201.465 83.184C201.465 82.304 201.649 81.544 202.017 80.904C202.385 80.264 202.881 79.776 203.505 79.44C204.129 79.088 204.833 78.912 205.617 78.912C206.385 78.912 207.073 79.088 207.681 79.44C208.305 79.776 208.801 80.264 209.169 80.904C209.537 81.544 209.721 82.304 209.721 83.184C209.721 84.064 209.537 84.824 209.169 85.464C208.801 86.104 208.305 86.6 207.681 86.952C207.057 87.288 206.361 87.456 205.593 87.456ZM204.681 96L214.161 79.2H217.161L207.681 96H204.681ZM205.593 85.32C206.057 85.32 206.457 85.144 206.793 84.792C207.129 84.424 207.297 83.888 207.297 83.184C207.297 82.48 207.129 81.944 206.793 81.576C206.473 81.208 206.073 81.024 205.593 81.024C205.113 81.024 204.705 81.208 204.369 81.576C204.049 81.944 203.889 82.48 203.889 83.184C203.889 83.888 204.049 84.424 204.369 84.792C204.705 85.144 205.113 85.32 205.593 85.32ZM216.345 96.288C215.577 96.288 214.881 96.12 214.257 95.784C213.633 95.432 213.137 94.936 212.769 94.296C212.401 93.656 212.217 92.896 212.217 92.016C212.217 91.136 212.401 90.384 212.769 89.76C213.137 89.12 213.633 88.632 214.257 88.296C214.881 87.944 215.585 87.768 216.369 87.768C217.137 87.768 217.825 87.944 218.433 88.296C219.057 88.632 219.553 89.12 219.921 89.76C220.289 90.384 220.473 91.136 220.473 92.016C220.473 92.896 220.289 93.656 219.921 94.296C219.553 94.936 219.057 95.432 218.433 95.784C217.825 96.12 217.129 96.288 216.345 96.288ZM216.345 94.152C216.825 94.152 217.225 93.976 217.545 93.624C217.881 93.256 218.049 92.72 218.049 92.016C218.049 91.312 217.881 90.776 217.545 90.408C217.225 90.04 216.825 89.856 216.345 89.856C215.865 89.856 215.457 90.04 215.121 90.408C214.801 90.776 214.641 91.312 214.641 92.016C214.641 92.72 214.801 93.256 215.121 93.624C215.457 93.976 215.865 94.152 216.345 94.152Z" fill="white"/>
<path d="M130.297 155.463V153.882C131.023 153.281 131.725 152.686 132.405 152.097C133.097 151.508 133.709 150.924 134.241 150.346C134.785 149.768 135.216 149.207 135.533 148.663C135.862 148.108 136.026 147.569 136.026 147.048C136.026 146.561 135.89 146.13 135.618 145.756C135.358 145.382 134.921 145.195 134.309 145.195C133.686 145.195 133.216 145.399 132.898 145.807C132.581 146.215 132.422 146.708 132.422 147.286H130.314C130.337 146.413 130.53 145.688 130.892 145.11C131.255 144.521 131.737 144.084 132.337 143.801C132.938 143.506 133.612 143.359 134.36 143.359C135.573 143.359 136.514 143.693 137.182 144.362C137.862 145.019 138.202 145.875 138.202 146.929C138.202 147.586 138.049 148.227 137.743 148.85C137.449 149.473 137.058 150.074 136.57 150.652C136.083 151.23 135.556 151.774 134.989 152.284C134.423 152.783 133.873 153.247 133.34 153.678H138.491V155.463H130.297ZM144.48 155.667C143.607 155.667 142.854 155.514 142.219 155.208C141.596 154.902 141.103 154.483 140.74 153.95C140.389 153.406 140.185 152.794 140.128 152.114H142.253C142.355 152.601 142.604 153.009 143.001 153.338C143.398 153.655 143.891 153.814 144.48 153.814C145.115 153.814 145.63 153.582 146.027 153.117C146.435 152.652 146.639 152.074 146.639 151.383C146.639 150.669 146.435 150.102 146.027 149.683C145.63 149.264 145.126 149.054 144.514 149.054C144.004 149.054 143.562 149.179 143.188 149.428C142.814 149.677 142.548 149.989 142.389 150.363H140.298L141.318 143.563H147.914V145.467H142.95L142.406 148.221C142.655 147.949 142.995 147.728 143.426 147.558C143.857 147.377 144.338 147.286 144.871 147.286C145.721 147.286 146.429 147.479 146.996 147.864C147.563 148.238 147.993 148.737 148.288 149.36C148.583 149.972 148.73 150.641 148.73 151.366C148.73 152.193 148.549 152.93 148.186 153.576C147.835 154.222 147.336 154.732 146.69 155.106C146.055 155.48 145.319 155.667 144.48 155.667ZM153.118 149.411C152.574 149.411 152.081 149.292 151.639 149.054C151.197 148.805 150.846 148.453 150.585 148C150.324 147.547 150.194 147.008 150.194 146.385C150.194 145.762 150.324 145.223 150.585 144.77C150.846 144.317 151.197 143.971 151.639 143.733C152.081 143.484 152.58 143.359 153.135 143.359C153.679 143.359 154.166 143.484 154.597 143.733C155.039 143.971 155.39 144.317 155.651 144.77C155.912 145.223 156.042 145.762 156.042 146.385C156.042 147.008 155.912 147.547 155.651 148C155.39 148.453 155.039 148.805 154.597 149.054C154.155 149.292 153.662 149.411 153.118 149.411ZM152.472 155.463L159.187 143.563H161.312L154.597 155.463H152.472ZM153.118 147.898C153.447 147.898 153.73 147.773 153.968 147.524C154.206 147.263 154.325 146.884 154.325 146.385C154.325 145.886 154.206 145.507 153.968 145.246C153.741 144.985 153.458 144.855 153.118 144.855C152.778 144.855 152.489 144.985 152.251 145.246C152.024 145.507 151.911 145.886 151.911 146.385C151.911 146.884 152.024 147.263 152.251 147.524C152.489 147.773 152.778 147.898 153.118 147.898ZM160.734 155.667C160.19 155.667 159.697 155.548 159.255 155.31C158.813 155.061 158.462 154.709 158.201 154.256C157.94 153.803 157.81 153.264 157.81 152.641C157.81 152.018 157.94 151.485 158.201 151.043C158.462 150.59 158.813 150.244 159.255 150.006C159.697 149.757 160.196 149.632 160.751 149.632C161.295 149.632 161.782 149.757 162.213 150.006C162.655 150.244 163.006 150.59 163.267 151.043C163.528 151.485 163.658 152.018 163.658 152.641C163.658 153.264 163.528 153.803 163.267 154.256C163.006 154.709 162.655 155.061 162.213 155.31C161.782 155.548 161.289 155.667 160.734 155.667ZM160.734 154.154C161.074 154.154 161.357 154.029 161.584 153.78C161.822 153.519 161.941 153.14 161.941 152.641C161.941 152.142 161.822 151.763 161.584 151.502C161.357 151.241 161.074 151.111 160.734 151.111C160.394 151.111 160.105 151.241 159.867 151.502C159.64 151.763 159.527 152.142 159.527 152.641C159.527 153.14 159.64 153.519 159.867 153.78C160.105 154.029 160.394 154.154 160.734 154.154Z" fill="white"/>
<path d="M199.657 171.144C199.081 171.144 198.561 171.044 198.097 170.844C197.633 170.636 197.261 170.344 196.981 169.968C196.709 169.592 196.573 169.156 196.573 168.66C196.573 168.148 196.705 167.7 196.969 167.316C197.241 166.932 197.597 166.656 198.037 166.488C197.653 166.32 197.349 166.08 197.125 165.768C196.901 165.448 196.789 165.092 196.789 164.7C196.789 164.3 196.897 163.932 197.113 163.596C197.329 163.252 197.649 162.976 198.073 162.768C198.505 162.56 199.033 162.456 199.657 162.456C200.281 162.456 200.805 162.56 201.229 162.768C201.653 162.976 201.973 163.252 202.189 163.596C202.405 163.932 202.513 164.3 202.513 164.7C202.513 165.084 202.397 165.44 202.165 165.768C201.941 166.088 201.641 166.328 201.265 166.488C201.713 166.656 202.069 166.932 202.333 167.316C202.597 167.7 202.729 168.148 202.729 168.66C202.729 169.156 202.593 169.592 202.321 169.968C202.049 170.344 201.677 170.636 201.205 170.844C200.741 171.044 200.225 171.144 199.657 171.144ZM199.657 166.032C200.073 166.032 200.401 165.924 200.641 165.708C200.881 165.492 201.001 165.216 201.001 164.88C201.001 164.512 200.881 164.224 200.641 164.016C200.409 163.808 200.081 163.704 199.657 163.704C199.225 163.704 198.893 163.808 198.661 164.016C198.429 164.224 198.313 164.512 198.313 164.88C198.313 165.224 198.429 165.504 198.661 165.72C198.901 165.928 199.233 166.032 199.657 166.032ZM199.657 169.86C200.169 169.86 200.557 169.736 200.821 169.488C201.085 169.232 201.217 168.912 201.217 168.528C201.217 168.104 201.077 167.772 200.797 167.532C200.525 167.292 200.145 167.172 199.657 167.172C199.169 167.172 198.781 167.292 198.493 167.532C198.213 167.772 198.073 168.104 198.073 168.528C198.073 168.912 198.205 169.232 198.469 169.488C198.741 169.736 199.137 169.86 199.657 169.86ZM205.908 166.728C205.524 166.728 205.176 166.644 204.864 166.476C204.552 166.3 204.304 166.052 204.12 165.732C203.936 165.412 203.844 165.032 203.844 164.592C203.844 164.152 203.936 163.772 204.12 163.452C204.304 163.132 204.552 162.888 204.864 162.72C205.176 162.544 205.528 162.456 205.92 162.456C206.304 162.456 206.648 162.544 206.952 162.72C207.264 162.888 207.512 163.132 207.696 163.452C207.88 163.772 207.972 164.152 207.972 164.592C207.972 165.032 207.88 165.412 207.696 165.732C207.512 166.052 207.264 166.3 206.952 166.476C206.64 166.644 206.292 166.728 205.908 166.728ZM205.452 171L210.192 162.6H211.692L206.952 171H205.452ZM205.908 165.66C206.14 165.66 206.34 165.572 206.508 165.396C206.676 165.212 206.76 164.944 206.76 164.592C206.76 164.24 206.676 163.972 206.508 163.788C206.348 163.604 206.148 163.512 205.908 163.512C205.668 163.512 205.464 163.604 205.296 163.788C205.136 163.972 205.056 164.24 205.056 164.592C205.056 164.944 205.136 165.212 205.296 165.396C205.464 165.572 205.668 165.66 205.908 165.66ZM211.284 171.144C210.9 171.144 210.552 171.06 210.24 170.892C209.928 170.716 209.68 170.468 209.496 170.148C209.312 169.828 209.22 169.448 209.22 169.008C209.22 168.568 209.312 168.192 209.496 167.88C209.68 167.56 209.928 167.316 210.24 167.148C210.552 166.972 210.904 166.884 211.296 166.884C211.68 166.884 212.024 166.972 212.328 167.148C212.64 167.316 212.888 167.56 213.072 167.88C213.256 168.192 213.348 168.568 213.348 169.008C213.348 169.448 213.256 169.828 213.072 170.148C212.888 170.468 212.64 170.716 212.328 170.892C212.024 171.06 211.676 171.144 211.284 171.144ZM211.284 170.076C211.524 170.076 211.724 169.988 211.884 169.812C212.052 169.628 212.136 169.36 212.136 169.008C212.136 168.656 212.052 168.388 211.884 168.204C211.724 168.02 211.524 167.928 211.284 167.928C211.044 167.928 210.84 168.02 210.672 168.204C210.512 168.388 210.432 168.656 210.432 169.008C210.432 169.36 210.512 169.628 210.672 169.812C210.84 169.988 211.044 170.076 211.284 170.076Z" fill="white"/>
<path d="M132.243 37.7051V29.9491L130.633 30.3271V28.9551L132.999 27.9051H134.105V37.7051H132.243ZM135.697 37.7051V36.4031C136.295 35.9084 136.873 35.4184 137.433 34.9331C138.003 34.4477 138.507 33.9671 138.945 33.4911C139.393 33.0151 139.748 32.5531 140.009 32.1051C140.28 31.6477 140.415 31.2044 140.415 30.7751C140.415 30.3737 140.303 30.0191 140.079 29.7111C139.865 29.4031 139.505 29.2491 139.001 29.2491C138.488 29.2491 138.101 29.4171 137.839 29.7531C137.578 30.0891 137.447 30.4951 137.447 30.9711H135.711C135.73 30.2524 135.889 29.6551 136.187 29.1791C136.486 28.6937 136.883 28.3344 137.377 28.1011C137.872 27.8584 138.427 27.7371 139.043 27.7371C140.042 27.7371 140.817 28.0124 141.367 28.5631C141.927 29.1044 142.207 29.8091 142.207 30.6771C142.207 31.2184 142.081 31.7457 141.829 32.2591C141.587 32.7724 141.265 33.2671 140.863 33.7431C140.462 34.2191 140.028 34.6671 139.561 35.0871C139.095 35.4977 138.642 35.8804 138.203 36.2351H142.445V37.7051H135.697ZM145.88 32.7211C145.432 32.7211 145.026 32.6231 144.662 32.4271C144.298 32.2217 144.008 31.9324 143.794 31.5591C143.579 31.1857 143.472 30.7424 143.472 30.2291C143.472 29.7157 143.579 29.2724 143.794 28.8991C144.008 28.5257 144.298 28.2411 144.662 28.0451C145.026 27.8397 145.436 27.7371 145.894 27.7371C146.342 27.7371 146.743 27.8397 147.098 28.0451C147.462 28.2411 147.751 28.5257 147.966 28.8991C148.18 29.2724 148.288 29.7157 148.288 30.2291C148.288 30.7424 148.18 31.1857 147.966 31.5591C147.751 31.9324 147.462 32.2217 147.098 32.4271C146.734 32.6231 146.328 32.7211 145.88 32.7211ZM145.348 37.7051L150.878 27.9051H152.628L147.098 37.7051H145.348ZM145.88 31.4751C146.15 31.4751 146.384 31.3724 146.58 31.1671C146.776 30.9524 146.874 30.6397 146.874 30.2291C146.874 29.8184 146.776 29.5057 146.58 29.2911C146.393 29.0764 146.16 28.9691 145.88 28.9691C145.6 28.9691 145.362 29.0764 145.166 29.2911C144.979 29.5057 144.886 29.8184 144.886 30.2291C144.886 30.6397 144.979 30.9524 145.166 31.1671C145.362 31.3724 145.6 31.4751 145.88 31.4751ZM152.152 37.8731C151.704 37.8731 151.298 37.7751 150.934 37.5791C150.57 37.3737 150.28 37.0844 150.066 36.7111C149.851 36.3377 149.744 35.8944 149.744 35.3811C149.744 34.8677 149.851 34.4291 150.066 34.0651C150.28 33.6917 150.57 33.4071 150.934 33.2111C151.298 33.0057 151.708 32.9031 152.166 32.9031C152.614 32.9031 153.015 33.0057 153.37 33.2111C153.734 33.4071 154.023 33.6917 154.238 34.0651C154.452 34.4291 154.56 34.8677 154.56 35.3811C154.56 35.8944 154.452 36.3377 154.238 36.7111C154.023 37.0844 153.734 37.3737 153.37 37.5791C153.015 37.7751 152.609 37.8731 152.152 37.8731ZM152.152 36.6271C152.432 36.6271 152.665 36.5244 152.852 36.3191C153.048 36.1044 153.146 35.7917 153.146 35.3811C153.146 34.9704 153.048 34.6577 152.852 34.4431C152.665 34.2284 152.432 34.1211 152.152 34.1211C151.872 34.1211 151.634 34.2284 151.438 34.4431C151.251 34.6577 151.158 34.9704 151.158 35.3811C151.158 35.7917 151.251 36.1044 151.438 36.3191C151.634 36.5244 151.872 36.6271 152.152 36.6271Z" fill="white"/>
<path d="M85.7085 93V91.512C86.3912 90.9467 87.0525 90.3867 87.6925 89.832C88.3432 89.2773 88.9192 88.728 89.4205 88.184C89.9325 87.64 90.3378 87.112 90.6365 86.6C90.9458 86.0773 91.1005 85.5707 91.1005 85.08C91.1005 84.6213 90.9725 84.216 90.7165 83.864C90.4712 83.512 90.0605 83.336 89.4845 83.336C88.8978 83.336 88.4552 83.528 88.1565 83.912C87.8578 84.296 87.7085 84.76 87.7085 85.304H85.7245C85.7458 84.4827 85.9272 83.8 86.2685 83.256C86.6098 82.7013 87.0632 82.2907 87.6285 82.024C88.1938 81.7467 88.8285 81.608 89.5325 81.608C90.6738 81.608 91.5592 81.9227 92.1885 82.552C92.8285 83.1707 93.1485 83.976 93.1485 84.968C93.1485 85.5867 93.0045 86.1893 92.7165 86.776C92.4392 87.3627 92.0712 87.928 91.6125 88.472C91.1538 89.016 90.6578 89.528 90.1245 90.008C89.5912 90.4773 89.0738 90.9147 88.5725 91.32H93.4205V93H85.7085ZM99.555 93.192C98.5203 93.192 97.635 92.952 96.899 92.472C96.163 91.9813 95.5923 91.304 95.187 90.44C94.7923 89.5653 94.595 88.552 94.595 87.4C94.595 86.2587 94.7923 85.2507 95.187 84.376C95.5923 83.5013 96.163 82.824 96.899 82.344C97.635 81.8533 98.5203 81.608 99.555 81.608C100.59 81.608 101.475 81.8533 102.211 82.344C102.947 82.824 103.512 83.5013 103.907 84.376C104.312 85.2507 104.515 86.2587 104.515 87.4C104.515 88.552 104.312 89.5653 103.907 90.44C103.512 91.304 102.947 91.9813 102.211 92.472C101.475 92.952 100.59 93.192 99.555 93.192ZM99.555 91.352C100.398 91.352 101.086 91 101.619 90.296C102.152 89.592 102.419 88.6267 102.419 87.4C102.419 86.1733 102.152 85.208 101.619 84.504C101.086 83.8 100.398 83.448 99.555 83.448C98.7017 83.448 98.0083 83.8 97.475 84.504C96.9523 85.208 96.691 86.1733 96.691 87.4C96.691 88.6267 96.9523 89.592 97.475 90.296C98.0083 91 98.7017 91.352 99.555 91.352ZM108.546 87.304C108.034 87.304 107.57 87.192 107.154 86.968C106.738 86.7333 106.408 86.4027 106.162 85.976C105.917 85.5493 105.794 85.0427 105.794 84.456C105.794 83.8693 105.917 83.3627 106.162 82.936C106.408 82.5093 106.738 82.184 107.154 81.96C107.57 81.7253 108.04 81.608 108.562 81.608C109.074 81.608 109.533 81.7253 109.938 81.96C110.354 82.184 110.685 82.5093 110.93 82.936C111.176 83.3627 111.298 83.8693 111.298 84.456C111.298 85.0427 111.176 85.5493 110.93 85.976C110.685 86.4027 110.354 86.7333 109.938 86.968C109.522 87.192 109.058 87.304 108.546 87.304ZM107.938 93L114.258 81.8H116.258L109.938 93H107.938ZM108.546 85.88C108.856 85.88 109.122 85.7627 109.346 85.528C109.57 85.2827 109.682 84.9253 109.682 84.456C109.682 83.9867 109.57 83.6293 109.346 83.384C109.133 83.1387 108.866 83.016 108.546 83.016C108.226 83.016 107.954 83.1387 107.73 83.384C107.517 83.6293 107.41 83.9867 107.41 84.456C107.41 84.9253 107.517 85.2827 107.73 85.528C107.954 85.7627 108.226 85.88 108.546 85.88ZM115.714 93.192C115.202 93.192 114.738 93.08 114.322 92.856C113.906 92.6213 113.576 92.2907 113.33 91.864C113.085 91.4373 112.962 90.9307 112.962 90.344C112.962 89.7573 113.085 89.256 113.33 88.84C113.576 88.4133 113.906 88.088 114.322 87.864C114.738 87.6293 115.208 87.512 115.73 87.512C116.242 87.512 116.701 87.6293 117.106 87.864C117.522 88.088 117.853 88.4133 118.098 88.84C118.344 89.256 118.466 89.7573 118.466 90.344C118.466 90.9307 118.344 91.4373 118.098 91.864C117.853 92.2907 117.522 92.6213 117.106 92.856C116.701 93.08 116.237 93.192 115.714 93.192ZM115.714 91.768C116.034 91.768 116.301 91.6507 116.514 91.416C116.738 91.1707 116.85 90.8133 116.85 90.344C116.85 89.8747 116.738 89.5173 116.514 89.272C116.301 89.0267 116.034 88.904 115.714 88.904C115.394 88.904 115.122 89.0267 114.898 89.272C114.685 89.5173 114.578 89.8747 114.578 90.344C114.578 90.8133 114.685 91.1707 114.898 91.416C115.122 91.6507 115.394 91.768 115.714 91.768Z" fill="white"/>
<defs>
<filter id="filter0_d_282_10841" x="68.1211" y="110.632" width="157.61" height="157.611" filterUnits="userSpaceOnUse" color-interpolation-filters="sRGB">
<feFlood flood-opacity="0" result="BackgroundImageFix"/>
<feColorMatrix in="SourceAlpha" type="matrix" values="0 0 0 0 0 0 0 0 0 0 0 0 0 0 0 0 0 0 127 0" result="hardAlpha"/>
<feOffset dy="40"/>
<feGaussianBlur stdDeviation="20"/>
<feComposite in2="hardAlpha" operator="out"/>
<feColorMatrix type="matrix" values="0 0 0 0 0.788235 0 0 0 0 0.580392 0 0 0 0 0.235294 0 0 0 0.25 0"/>
<feBlend mode="normal" in2="BackgroundImageFix" result="effect1_dropShadow_282_10841"/>
<feBlend mode="normal" in="SourceGraphic" in2="effect1_dropShadow_282_10841" result="shape"/>
</filter>
<filter id="filter1_d_282_10841" x="136.5" y="137" width="137" height="137" filterUnits="userSpaceOnUse" color-interpolation-filters="sRGB">
<feFlood flood-opacity="0" result="BackgroundImageFix"/>
<feColorMatrix in="SourceAlpha" type="matrix" values="0 0 0 0 0 0 0 0 0 0 0 0 0 0 0 0 0 0 127 0" result="hardAlpha"/>
<feOffset dy="40"/>
<feGaussianBlur stdDeviation="20"/>
<feComposite in2="hardAlpha" operator="out"/>
<feColorMatrix type="matrix" values="0 0 0 0 0.8 0 0 0 0 0.784314 0 0 0 0 0.247059 0 0 0 0.25 0"/>
<feBlend mode="normal" in2="BackgroundImageFix" result="effect1_dropShadow_282_10841"/>
<feBlend mode="normal" in="SourceGraphic" in2="effect1_dropShadow_282_10841" result="shape"/>
</filter>
<filter id="filter2_d_282_10841" x="72.373" y="3.37891" width="140.6" height="140.6" filterUnits="userSpaceOnUse" color-interpolation-filters="sRGB">
<feFlood flood-opacity="0" result="BackgroundImageFix"/>
<feColorMatrix in="SourceAlpha" type="matrix" values="0 0 0 0 0 0 0 0 0 0 0 0 0 0 0 0 0 0 127 0" result="hardAlpha"/>
<feOffset dy="40"/>
<feGaussianBlur stdDeviation="20"/>
<feComposite in2="hardAlpha" operator="out"/>
<feColorMatrix type="matrix" values="0 0 0 0 0.839216 0 0 0 0 0.85098 0 0 0 0 0.286275 0 0 0 0.25 0"/>
<feBlend mode="normal" in2="BackgroundImageFix" result="effect1_dropShadow_282_10841"/>
<feBlend mode="normal" in="SourceGraphic" in2="effect1_dropShadow_282_10841" result="shape"/>
</filter>
<filter id="filter3_d_282_10841" x="18.5" y="44" width="168" height="168" filterUnits="userSpaceOnUse" color-interpolation-filters="sRGB">
<feFlood flood-opacity="0" result="BackgroundImageFix"/>
<feColorMatrix in="SourceAlpha" type="matrix" values="0 0 0 0 0 0 0 0 0 0 0 0 0 0 0 0 0 0 127 0" result="hardAlpha"/>
<feOffset dy="40"/>
<feGaussianBlur stdDeviation="20"/>
<feComposite in2="hardAlpha" operator="out"/>
<feColorMatrix type="matrix" values="0 0 0 0 0.744338 0 0 0 0 0.954167 0 0 0 0 0.159028 0 0 0 0.24 0"/>
<feBlend mode="normal" in2="BackgroundImageFix" result="effect1_dropShadow_282_10841"/>
<feBlend mode="normal" in="SourceGraphic" in2="effect1_dropShadow_282_10841" result="shape"/>
</filter>
<filter id="filter4_d_282_10841" x="93.5" y="25" width="206" height="206" filterUnits="userSpaceOnUse" color-interpolation-filters="sRGB">
<feFlood flood-opacity="0" result="BackgroundImageFix"/>
<feColorMatrix in="SourceAlpha" type="matrix" values="0 0 0 0 0 0 0 0 0 0 0 0 0 0 0 0 0 0 127 0" result="hardAlpha"/>
<feOffset dy="40"/>
<feGaussianBlur stdDeviation="20"/>
<feComposite in2="hardAlpha" operator="out"/>
<feColorMatrix type="matrix" values="0 0 0 0 0.388235 0 0 0 0 0.682353 0 0 0 0 0.27451 0 0 0 0.45 0"/>
<feBlend mode="normal" in2="BackgroundImageFix" result="effect1_dropShadow_282_10841"/>
<feBlend mode="normal" in="SourceGraphic" in2="effect1_dropShadow_282_10841" result="shape"/>
</filter>
</defs>
</svg>
