<svg width="24" height="24" viewBox="0 0 24 24" fill="none" xmlns="http://www.w3.org/2000/svg">
<rect width="24" height="24" fill="#0A004C"/>
<g clip-path="url(#clip0_1108_7024)">
<path d="M8.24569 17V15.512C8.92835 14.9467 9.58969 14.3867 10.2297 13.832C10.8804 13.2773 11.4564 12.728 11.9577 12.184C12.4697 11.64 12.875 11.112 13.1737 10.6C13.483 10.0773 13.6377 9.57067 13.6377 9.08C13.6377 8.62133 13.5097 8.216 13.2537 7.864C13.0084 7.512 12.5977 7.336 12.0217 7.336C11.435 7.336 10.9924 7.528 10.6937 7.912C10.395 8.296 10.2457 8.76 10.2457 9.304H8.26169C8.28302 8.48267 8.46435 7.8 8.80569 7.256C9.14702 6.70133 9.60035 6.29067 10.1657 6.024C10.731 5.74667 11.3657 5.608 12.0697 5.608C13.211 5.608 14.0964 5.92267 14.7257 6.552C15.3657 7.17067 15.6857 7.976 15.6857 8.968C15.6857 9.58667 15.5417 10.1893 15.2537 10.776C14.9764 11.3627 14.6084 11.928 14.1497 12.472C13.691 13.016 13.195 13.528 12.6617 14.008C12.1284 14.4773 11.611 14.9147 11.1097 15.32H15.9577V17H8.24569Z" fill="white"/>
</g>
<defs>
<clipPath id="clip0_1108_7024">
<rect width="24" height="24" fill="white"/>
</clipPath>
</defs>
</svg>
