<svg width="24" height="24" viewBox="0 0 24 24" fill="none" xmlns="http://www.w3.org/2000/svg">
<g clip-path="url(#clip0_1108_7032)">
<path d="M11.9864 17.192C11.2504 17.192 10.5837 17.064 9.98638 16.808C9.38904 16.5413 8.90904 16.136 8.54638 15.592C8.18371 15.048 7.99171 14.3653 7.97038 13.544H9.98638C9.99704 14.088 10.173 14.5467 10.5144 14.92C10.8664 15.2827 11.357 15.464 11.9864 15.464C12.5837 15.464 13.0424 15.2987 13.3624 14.968C13.6824 14.6373 13.8424 14.2213 13.8424 13.72C13.8424 13.1333 13.629 12.6907 13.2024 12.392C12.7864 12.0827 12.2477 11.928 11.5864 11.928H10.7544V10.248H11.6024C12.1464 10.248 12.5997 10.12 12.9624 9.864C13.325 9.608 13.5064 9.22933 13.5064 8.728C13.5064 8.312 13.3677 7.98133 13.0904 7.736C12.8237 7.48 12.4504 7.352 11.9704 7.352C11.4477 7.352 11.037 7.50667 10.7384 7.816C10.4504 8.12533 10.2904 8.504 10.2584 8.952H8.25838C8.30104 7.91733 8.65838 7.10133 9.33038 6.504C10.013 5.90667 10.893 5.608 11.9704 5.608C12.7384 5.608 13.3837 5.74667 13.9064 6.024C14.4397 6.29067 14.8397 6.648 15.1064 7.096C15.3837 7.544 15.5224 8.04 15.5224 8.584C15.5224 9.21333 15.3464 9.74667 14.9944 10.184C14.653 10.6107 14.2264 10.8987 13.7144 11.048C14.3437 11.176 14.8557 11.4853 15.2504 11.976C15.645 12.456 15.8424 13.064 15.8424 13.8C15.8424 14.4187 15.693 14.984 15.3944 15.496C15.0957 16.008 14.6584 16.4187 14.0824 16.728C13.517 17.0373 12.8184 17.192 11.9864 17.192Z" fill="white"/>
</g>
<defs>
<clipPath id="clip0_1108_7032">
<rect width="24" height="24" fill="white"/>
</clipPath>
</defs>
</svg>
