<svg width="183" height="197" viewBox="0 0 183 197" fill="none" xmlns="http://www.w3.org/2000/svg">
<path d="M119.117 44.1266C113.017 41.7186 106.52 40.5146 100.022 40.5146H95.1819C88.8168 40.5146 82.6507 42.4544 77.4128 46.1332L62.2296 56.5678C62.1633 56.6347 62.097 56.6347 62.097 56.7015L61.8318 56.8353C57.6547 59.8453 55.1352 65.0625 55.9972 70.8818C56.9254 77.0355 61.7655 81.9852 67.8653 82.9885C71.6445 83.5905 75.1586 82.721 77.9433 80.915L78.1422 80.7812C78.2085 80.7143 78.2748 80.7143 78.3411 80.6475L92.0657 71.4838C97.7014 67.7381 105.127 68.4069 110.034 73.0222L110.166 73.156L145.439 108.74L152.467 102.453V49.1432H145.572C136.555 49.1432 127.537 47.471 119.117 44.1266Z" fill="#FF3E37" stroke="white" stroke-width="1.4" stroke-miterlimit="10" stroke-linecap="round" stroke-linejoin="round"/>
<path d="M60.8371 57.7051L65.5445 63.0561C65.5445 63.0561 78.805 56.1667 74.8269 47.9395" stroke="white" stroke-width="1.4" stroke-miterlimit="10" stroke-linecap="round" stroke-linejoin="round"/>
<path d="M152.533 49.1431H182.17V76.4334L152.533 102.52" fill="#0A004C"/>
<path d="M152.533 49.1431H182.17V76.4334L152.533 102.52V49.1431Z" stroke="white" stroke-width="1.4" stroke-miterlimit="10" stroke-linecap="round" stroke-linejoin="round"/>
<path d="M40.6149 118.506C47.023 118.506 52.2178 113.265 52.2178 106.801C52.2178 100.336 47.023 95.0952 40.6149 95.0952C34.2068 95.0952 29.012 100.336 29.012 106.801C29.012 113.265 34.2068 118.506 40.6149 118.506Z" fill="#FF3E37" stroke="white" stroke-width="1.4" stroke-miterlimit="10" stroke-linecap="round" stroke-linejoin="round"/>
<path d="M54.8037 137.436C61.2119 137.436 66.4067 132.195 66.4067 125.73C66.4067 119.266 61.2119 114.025 54.8037 114.025C48.3956 114.025 43.2008 119.266 43.2008 125.73C43.2008 132.195 48.3956 137.436 54.8037 137.436Z" fill="#FF3E37" stroke="white" stroke-width="1.4" stroke-miterlimit="10" stroke-linecap="round" stroke-linejoin="round"/>
<path d="M71.0477 153.622C77.4558 153.622 82.6506 148.382 82.6506 141.917C82.6506 135.452 77.4558 130.211 71.0477 130.211C64.6396 130.211 59.4448 135.452 59.4448 141.917C59.4448 148.382 64.6396 153.622 71.0477 153.622Z" fill="#FF3E37" stroke="white" stroke-width="1.4" stroke-miterlimit="10" stroke-linecap="round" stroke-linejoin="round"/>
<path d="M167.385 65.7316C169.655 65.7316 171.496 63.8749 171.496 61.5846C171.496 59.2942 169.655 57.4375 167.385 57.4375C165.115 57.4375 163.274 59.2942 163.274 61.5846C163.274 63.8749 165.115 65.7316 167.385 65.7316Z" fill="white" stroke="white" stroke-width="1.4" stroke-miterlimit="10" stroke-linecap="round" stroke-linejoin="round"/>
<path d="M32.2607 94.7605L1.49641 63.0556V42.3203H43.6647" fill="#0A004C"/>
<path d="M32.2607 94.7605L1.49641 63.0556V42.3203H43.6647" stroke="white" stroke-width="1.4" stroke-miterlimit="10" stroke-linecap="round" stroke-linejoin="round"/>
<path fill-rule="evenodd" clip-rule="evenodd" d="M84.7582 42.3203C82.1728 43.2472 79.704 44.5237 77.4128 46.1329L62.2295 56.5675C62.2042 56.593 62.1789 56.6088 62.1572 56.6223C62.1222 56.6441 62.0969 56.6599 62.0969 56.7012L61.8317 56.835C57.6547 59.845 55.1352 65.0622 55.9971 70.8815C56.9253 77.0352 61.7654 81.9849 67.8652 82.9882C71.6445 83.5902 75.1585 82.7207 77.9432 80.9147L78.1421 80.7809C78.1752 80.7475 78.2084 80.7307 78.2415 80.714C78.2747 80.6973 78.3078 80.6806 78.341 80.6471L92.0656 71.4835C97.7013 67.7378 105.127 68.4066 110.034 73.0219L110.166 73.1557L145.439 108.74L145.442 108.737L145.505 108.807C149.55 112.82 149.55 119.442 145.638 123.455C142.124 127.001 136.687 127.402 132.709 124.793C136.09 128.873 135.891 135.027 132.112 138.84C128.465 142.519 122.697 142.853 118.653 139.776C118.255 141.716 117.327 143.589 115.868 145.06C111.824 149.14 105.326 149.14 101.282 145.06L98.3642 142.117C97.8338 143.187 97.1708 144.191 96.3088 145.06C92.3673 149.037 86.096 149.138 82.0359 145.364C82.3686 144.274 82.5477 143.115 82.5477 141.915C82.5477 135.45 77.3529 130.21 70.9448 130.21C69.7833 130.21 68.6616 130.382 67.6035 130.702L65.8636 128.933C66.1504 127.914 66.3039 126.839 66.3039 125.728C66.3039 119.263 61.1091 114.023 54.7009 114.023C53.632 114.023 52.5968 114.169 51.6138 114.442L50.2931 113.098C51.4464 111.28 52.115 109.118 52.115 106.799C52.115 100.334 46.7015 95.095 40.2934 95.095C38.0692 95.095 36.0175 95.7262 34.2866 96.8207L32.2607 94.7605L43.6647 42.3203H84.7582Z" fill="#2400FD"/>
<path d="M84.7582 42.3203L84.9944 42.9792C85.3148 42.8644 85.5062 42.5357 85.4479 42.2004C85.3896 41.8651 85.0985 41.6203 84.7582 41.6203V42.3203ZM77.4128 46.1329L77.8093 46.7099L77.8151 46.7058L77.4128 46.1329ZM62.2295 56.5675L61.8331 55.9906C61.7969 56.0154 61.7632 56.0435 61.7324 56.0747L62.2295 56.5675ZM62.1572 56.6223L61.7869 56.0283L61.7869 56.0283L62.1572 56.6223ZM62.0969 56.7012L62.4122 57.3262C62.6481 57.2072 62.7969 56.9655 62.7969 56.7012H62.0969ZM61.8317 56.835L61.5165 56.21C61.4837 56.2265 61.4523 56.2456 61.4225 56.2671L61.8317 56.835ZM55.9971 70.8815L55.3047 70.9841L55.3049 70.9859L55.9971 70.8815ZM67.8652 82.9882L67.7516 83.6789L67.7551 83.6795L67.8652 82.9882ZM77.9432 80.9147L78.3241 81.5021L78.3338 81.4955L77.9432 80.9147ZM78.1421 80.7809L78.5327 81.3618C78.5711 81.336 78.6067 81.3065 78.6392 81.2737L78.1421 80.7809ZM78.2415 80.714L77.9263 80.089L77.9263 80.089L78.2415 80.714ZM78.341 80.6471L77.9523 80.065C77.9132 80.0911 77.8769 80.121 77.8438 80.1544L78.341 80.6471ZM92.0656 71.4835L91.6781 70.9005L91.6769 70.9013L92.0656 71.4835ZM110.034 73.0219L110.531 72.5291C110.525 72.5233 110.519 72.5176 110.513 72.512L110.034 73.0219ZM110.166 73.1557L110.663 72.6629L110.166 73.1557ZM145.439 108.74L144.942 109.233C145.204 109.498 145.628 109.51 145.906 109.262L145.439 108.74ZM145.442 108.737L145.961 108.267C145.703 107.982 145.262 107.959 144.975 108.216L145.442 108.737ZM145.505 108.807L144.986 109.277C144.995 109.286 145.003 109.295 145.012 109.304L145.505 108.807ZM145.638 123.455L146.135 123.948L146.139 123.944L145.638 123.455ZM132.709 124.793L133.093 124.208C132.803 124.018 132.418 124.068 132.187 124.327C131.956 124.585 131.949 124.973 132.17 125.24L132.709 124.793ZM132.112 138.84L131.615 138.347L132.112 138.84ZM118.653 139.776L119.077 139.219C118.885 139.073 118.632 139.036 118.407 139.121C118.181 139.205 118.015 139.4 117.967 139.636L118.653 139.776ZM115.868 145.06L115.371 144.568L115.868 145.06ZM101.282 145.06L100.784 145.553L101.282 145.06ZM98.3642 142.117L98.8614 141.624C98.7023 141.464 98.4755 141.39 98.2524 141.426C98.0293 141.462 97.8374 141.604 97.737 141.806L98.3642 142.117ZM96.3088 145.06L96.806 145.553L96.3088 145.06ZM82.0359 145.364L81.3663 145.16C81.2881 145.416 81.363 145.694 81.5593 145.877L82.0359 145.364ZM67.6035 130.702L67.1044 131.193C67.2869 131.379 67.5573 131.448 67.8064 131.372L67.6035 130.702ZM65.8636 128.933L65.1898 128.743C65.1217 128.985 65.1884 129.245 65.3645 129.424L65.8636 128.933ZM51.6138 114.442L51.1147 114.932C51.2931 115.114 51.5559 115.184 51.8011 115.116L51.6138 114.442ZM50.2931 113.098L49.7019 112.724C49.5276 112.998 49.5657 113.357 49.794 113.589L50.2931 113.098ZM34.2866 96.8207L33.7874 97.3115C34.0185 97.5464 34.3821 97.5884 34.6607 97.4123L34.2866 96.8207ZM32.2607 94.7605L31.5767 94.6118C31.5266 94.8425 31.5961 95.083 31.7616 95.2513L32.2607 94.7605ZM43.6647 42.3203V41.6203C43.3355 41.6203 43.0507 41.8498 42.9807 42.1716L43.6647 42.3203ZM84.522 41.6614C81.8775 42.6095 79.3528 43.9149 77.0104 45.5601L77.8151 46.7058C80.0551 45.1325 82.4681 43.885 84.9944 42.9792L84.522 41.6614ZM77.0163 45.556L61.8331 55.9906L62.626 57.1444L77.8092 46.7098L77.0163 45.556ZM61.7324 56.0747C61.7702 56.0365 61.8078 56.0152 61.7869 56.0283L62.5276 57.2163C62.5499 57.2024 62.6382 57.1495 62.7267 57.0603L61.7324 56.0747ZM61.7869 56.0283C61.7824 56.0311 61.7551 56.0478 61.727 56.0678C61.6971 56.0891 61.6466 56.1276 61.5947 56.185C61.4663 56.3271 61.3969 56.5092 61.3969 56.7012H62.7969C62.7969 56.764 62.787 56.8416 62.7552 56.9247C62.7231 57.0086 62.6776 57.0748 62.6332 57.1239C62.5921 57.1694 62.5544 57.1973 62.5391 57.2082C62.5256 57.2178 62.5145 57.2244 62.5276 57.2163L61.7869 56.0283ZM61.7817 56.0762L61.5165 56.21L62.147 57.46L62.4122 57.3262L61.7817 56.0762ZM61.4225 56.2671C57.0416 59.4239 54.4029 64.8957 55.3047 70.9841L56.6895 70.7789C55.8675 65.2287 58.2677 60.266 62.2409 57.4029L61.4225 56.2671ZM55.3049 70.9859C56.2778 77.4356 61.348 82.6257 67.7516 83.6789L67.9788 82.2975C62.1828 81.3441 57.5728 76.6347 56.6893 70.7771L55.3049 70.9859ZM67.7551 83.6795C71.7097 84.3094 75.398 83.3996 78.3241 81.502L77.5623 80.3274C74.9189 82.0417 71.5792 82.871 67.9753 82.2969L67.7551 83.6795ZM78.3338 81.4955L78.5327 81.3618L77.7514 80.2001L77.5525 80.3338L78.3338 81.4955ZM78.6392 81.2737C78.6129 81.3003 78.5863 81.32 78.5652 81.3333C78.5492 81.3434 78.5364 81.3493 78.5568 81.339L77.9263 80.089C77.8927 80.106 77.7662 80.1658 77.6449 80.2881L78.6392 81.2737ZM78.5568 81.339C78.5904 81.3221 78.7169 81.2622 78.8382 81.1399L77.8438 80.1544C77.8702 80.1278 77.8968 80.1081 77.9179 80.0947C77.9339 80.0846 77.9467 80.0787 77.9263 80.089L78.5568 81.339ZM78.7297 81.2293L92.4543 72.0656L91.6769 70.9013L77.9523 80.065L78.7297 81.2293ZM92.4531 72.0665C97.8153 68.5025 104.882 69.1373 109.554 73.5318L110.513 72.512C105.372 67.676 97.5873 66.973 91.6781 70.9005L92.4531 72.0665ZM109.536 73.5147L109.669 73.6485L110.663 72.6629L110.531 72.5291L109.536 73.5147ZM109.669 73.6485L144.942 109.233L145.936 108.247L110.663 72.6629L109.669 73.6485ZM145.906 109.262L145.909 109.259L144.975 108.216L144.972 108.218L145.906 109.262ZM144.923 109.207L144.986 109.277L146.024 108.337L145.961 108.267L144.923 109.207ZM145.012 109.304C148.782 113.045 148.782 119.227 145.137 122.967L146.139 123.944C150.317 119.658 150.317 112.596 145.998 108.31L145.012 109.304ZM145.141 122.963C141.87 126.263 136.803 126.641 133.093 124.208L132.325 125.379C136.571 128.163 142.378 127.738 146.135 123.948L145.141 122.963ZM132.17 125.24C135.326 129.048 135.136 134.795 131.615 138.347L132.609 139.333C136.647 135.26 136.855 128.699 133.248 124.347L132.17 125.24ZM131.615 138.347C128.219 141.773 122.845 142.086 119.077 139.219L118.229 140.333C122.549 143.62 128.712 143.264 132.609 139.333L131.615 138.347ZM117.967 139.636C117.594 141.455 116.725 143.201 115.371 144.568L116.365 145.553C117.928 143.976 118.916 141.977 119.338 139.917L117.967 139.636ZM115.371 144.568C111.6 148.371 105.549 148.371 101.779 144.568L100.784 145.553C105.103 149.91 112.047 149.91 116.365 145.553L115.371 144.568ZM101.779 144.568L98.8614 141.624L97.8671 142.61L100.784 145.553L101.779 144.568ZM97.737 141.806C97.2322 142.825 96.6099 143.762 95.8117 144.568L96.806 145.553C97.7317 144.619 98.4354 143.55 98.9914 142.428L97.737 141.806ZM95.8117 144.568C92.1369 148.275 86.2965 148.369 82.5124 144.851L81.5593 145.877C85.8954 149.907 92.5978 149.798 96.806 145.553L95.8117 144.568ZM82.7054 145.568C83.0581 144.412 83.2477 143.185 83.2477 141.915H81.8477C81.8477 143.045 81.6791 144.135 81.3663 145.16L82.7054 145.568ZM83.2477 141.915C83.2477 135.069 77.7453 129.51 70.9448 129.51V130.91C76.9605 130.91 81.8477 135.831 81.8477 141.915H83.2477ZM70.9448 129.51C69.7137 129.51 68.5237 129.692 67.4006 130.032L67.8064 131.372C68.7995 131.071 69.8528 130.91 70.9448 130.91V129.51ZM68.1026 130.211L66.3627 128.442L65.3645 129.424L67.1044 131.193L68.1026 130.211ZM66.5374 129.123C66.8414 128.043 67.0039 126.904 67.0039 125.728H65.6039C65.6039 126.775 65.4593 127.786 65.1898 128.743L66.5374 129.123ZM67.0039 125.728C67.0039 118.883 61.5014 113.323 54.7009 113.323V114.723C60.7167 114.723 65.6039 119.644 65.6039 125.728H67.0039ZM54.7009 113.323C53.568 113.323 52.4698 113.477 51.4265 113.767L51.8011 115.116C52.7237 114.86 53.6959 114.723 54.7009 114.723V113.323ZM52.1129 113.951L50.7922 112.608L49.794 113.589L51.1147 114.932L52.1129 113.951ZM50.8842 113.473C52.1067 111.546 52.815 109.254 52.815 106.799H51.415C51.415 108.982 50.7861 111.014 49.7019 112.724L50.8842 113.473ZM52.815 106.799C52.815 99.9362 47.0768 94.395 40.2934 94.395V95.795C46.3262 95.795 51.415 100.732 51.415 106.799H52.815ZM40.2934 94.395C37.9342 94.395 35.7532 95.0651 33.9125 96.229L34.6607 97.4123C36.2818 96.3872 38.2042 95.795 40.2934 95.795V94.395ZM34.7857 96.3299L32.7599 94.2697L31.7616 95.2513L33.7874 97.3115L34.7857 96.3299ZM32.9448 94.9093L44.3488 42.4691L42.9807 42.1716L31.5767 94.6118L32.9448 94.9093ZM43.6647 43.0203H84.7582V41.6203H43.6647V43.0203Z" fill="white"/>
<path d="M132.643 124.86L99.0272 89.9448" stroke="white" stroke-width="1.4" stroke-miterlimit="10" stroke-linecap="round" stroke-linejoin="round"/>
<path d="M118.454 139.91L89.5458 109.877" stroke="white" stroke-width="1.4" stroke-miterlimit="10" stroke-linecap="round" stroke-linejoin="round"/>
<path d="M99.0272 142.452L76.4844 119.108" stroke="white" stroke-width="1.4" stroke-miterlimit="10" stroke-linecap="round" stroke-linejoin="round"/>
</svg>
