<svg width="230" height="275" viewBox="0 0 230 275" fill="none" xmlns="http://www.w3.org/2000/svg">
<path d="M103.542 56.6504L133.437 75.4967" stroke="#0A004C" stroke-width="2" stroke-miterlimit="10" stroke-linecap="round" stroke-linejoin="round"/>
<path d="M1.32031 201.414L54.7984 235.32L114.671 273.178L228.104 201.414V86.8541L114.671 15.0898L1.32031 86.8541V201.414Z" fill="#2400FD" stroke="#0A004C" stroke-width="2" stroke-miterlimit="10" stroke-linecap="round" stroke-linejoin="round"/>
<path d="M228.104 87.6777L174.626 121.502L114.671 159.442V273.178L174.626 235.321L228.104 201.414V87.6777Z" fill="white" stroke="#0A004C" stroke-width="2" stroke-miterlimit="10" stroke-linecap="round" stroke-linejoin="round"/>
<path d="M228.104 87.6777L174.626 121.502L114.671 159.442V273.178L174.626 235.321L228.104 201.414V87.6777Z" stroke="#0A004C" stroke-width="2" stroke-miterlimit="10" stroke-linecap="round" stroke-linejoin="round"/>
<path d="M1.32031 87.6777L54.7984 121.502L114.671 159.442V273.178L54.7984 235.321L1.32031 201.414V87.6777Z" fill="#FF3E37" stroke="#0A004C" stroke-width="2" stroke-miterlimit="10" stroke-linecap="round" stroke-linejoin="round"/>
<path d="M144.149 111.379L113.009 91.7095L85.2734 74.0977" fill="white"/>
<path d="M144.149 111.379L113.009 91.7095L85.2734 74.0977" stroke="#0A004C" stroke-width="12" stroke-miterlimit="10" stroke-linecap="round" stroke-linejoin="round"/>
<path d="M144.149 111.379L113.009 91.7097L85.2734 74.0979V1.83984L113.009 19.4517L144.149 39.121V111.379Z" fill="white" stroke="#0A004C" stroke-width="2" stroke-miterlimit="10" stroke-linecap="round" stroke-linejoin="round"/>
<path d="M105.785 52.3711L135.68 71.2175" stroke="#0A004C" stroke-width="2" stroke-miterlimit="10" stroke-linecap="round" stroke-linejoin="round"/>
<path d="M97.3979 53.6059C99.4159 53.6059 101.052 51.7267 101.052 49.4087C101.052 47.0906 99.4159 45.2114 97.3979 45.2114C95.38 45.2114 93.7441 47.0906 93.7441 49.4087C93.7441 51.7267 95.38 53.6059 97.3979 53.6059Z" fill="#0A004C"/>
<path d="M105.785 70.4761L135.68 89.3224" stroke="#0A004C" stroke-width="2" stroke-miterlimit="10" stroke-linecap="round" stroke-linejoin="round"/>
<path d="M97.3979 71.7108C99.4159 71.7108 101.052 69.8317 101.052 67.5136C101.052 65.1956 99.4159 63.3164 97.3979 63.3164C95.38 63.3164 93.7441 65.1956 93.7441 67.5136C93.7441 69.8317 95.38 71.7108 97.3979 71.7108Z" fill="#0A004C"/>
<path d="M105.785 34.2651L135.68 53.1115" stroke="#0A004C" stroke-width="2" stroke-miterlimit="10" stroke-linecap="round" stroke-linejoin="round"/>
<path d="M97.3979 35.4999C99.4159 35.4999 101.052 33.6208 101.052 31.3027C101.052 28.9846 99.4159 27.1055 97.3979 27.1055C95.38 27.1055 93.7441 28.9846 93.7441 31.3027C93.7441 33.6208 95.38 35.4999 97.3979 35.4999Z" fill="#0A004C"/>
</svg>
