<svg width="117" height="139" viewBox="0 0 117 139" fill="none" xmlns="http://www.w3.org/2000/svg">
<path d="M53.1406 28.563L68.1916 38.0403" stroke="#0A004C" stroke-width="1.44048" stroke-miterlimit="10" stroke-linecap="round" stroke-linejoin="round"/>
<path d="M1.6748 101.36L28.5994 118.411L58.7432 137.448L115.853 101.36V43.7512L58.7432 7.66309L1.6748 43.7512V101.36Z" fill="#2400FD" stroke="#0A004C" stroke-width="1.44048" stroke-miterlimit="10" stroke-linecap="round" stroke-linejoin="round"/>
<path d="M115.853 44.1655L88.9288 61.1749L58.7432 80.2536V137.448L88.9288 118.411L115.853 101.36V44.1655Z" fill="white" stroke="#0A004C" stroke-width="1.44048" stroke-miterlimit="10" stroke-linecap="round" stroke-linejoin="round"/>
<path d="M115.853 44.1655L88.9288 61.1749L58.7432 80.2536V137.448L88.9288 118.411L115.853 101.36V44.1655Z" stroke="#0A004C" stroke-width="1.44048" stroke-miterlimit="10" stroke-linecap="round" stroke-linejoin="round"/>
<path d="M1.6748 44.1655L28.5994 61.1749L58.7432 80.2536V137.448L28.5994 118.411L1.6748 101.36V44.1655Z" fill="#FF3E37" stroke="#0A004C" stroke-width="1.44048" stroke-miterlimit="10" stroke-linecap="round" stroke-linejoin="round"/>
<path d="M73.5848 56.084L57.9067 46.1929L43.9427 37.3364" fill="white"/>
<path d="M73.5848 56.084L57.9067 46.1929L43.9427 37.3364" stroke="#0A004C" stroke-width="7" stroke-miterlimit="10" stroke-linecap="round" stroke-linejoin="round"/>
<path d="M73.5847 56.084L57.9066 46.1929L43.9426 37.3364V1L57.9066 9.85648L73.5847 19.7476V56.084Z" fill="white" stroke="#0A004C" stroke-width="1.44048" stroke-miterlimit="10" stroke-linecap="round" stroke-linejoin="round"/>
<path d="M54.2696 26.4106L69.3206 35.8879" stroke="#0A004C" stroke-width="1.4" stroke-miterlimit="10" stroke-linecap="round" stroke-linejoin="round"/>
<path d="M51.1864 24.9207C51.1864 25.7933 50.5889 26.3314 50.0468 26.3314C49.5048 26.3314 48.9073 25.7933 48.9073 24.9207C48.9073 24.0482 49.5048 23.5101 50.0468 23.5101C50.5889 23.5101 51.1864 24.0482 51.1864 24.9207Z" fill="white" stroke="#0A004C" stroke-width="1.4"/>
<path d="M54.2696 35.5151L69.3206 44.9924" stroke="#0A004C" stroke-width="1.4" stroke-miterlimit="10" stroke-linecap="round" stroke-linejoin="round"/>
<path d="M51.1864 34.0252C51.1864 34.8978 50.5889 35.4359 50.0468 35.4359C49.5048 35.4359 48.9073 34.8978 48.9073 34.0252C48.9073 33.1527 49.5048 32.6146 50.0468 32.6146C50.5889 32.6146 51.1864 33.1527 51.1864 34.0252Z" fill="white" stroke="#0A004C" stroke-width="1.4"/>
<path d="M54.2696 17.3057L69.3206 26.7829" stroke="#0A004C" stroke-width="1.4" stroke-miterlimit="10" stroke-linecap="round" stroke-linejoin="round"/>
<path d="M51.1864 15.8157C51.1864 16.6883 50.5889 17.2264 50.0468 17.2264C49.5047 17.2264 48.9073 16.6883 48.9073 15.8157C48.9073 14.9432 49.5048 14.4051 50.0468 14.4051C50.5889 14.4051 51.1864 14.9432 51.1864 15.8157Z" fill="white" stroke="#0A004C" stroke-width="1.4"/>
</svg>
