<svg width="372" height="494" viewBox="0 0 372 494" fill="none" xmlns="http://www.w3.org/2000/svg">
<path d="M188.468 241.802L78.0607 393.668L172.364 460.901L282.771 309.035L188.468 241.802Z" fill="#2400FD" stroke="#2400FD" stroke-width="1.4" stroke-miterlimit="10.0005" stroke-linecap="round" stroke-linejoin="round"/>
<path d="M179.816 407.563L233.212 334.167" stroke="white" stroke-width="1.4" stroke-miterlimit="10" stroke-linecap="round" stroke-linejoin="round"/>
<path d="M174.06 422.163C179.341 422.163 183.623 417.923 183.623 412.693C183.623 407.462 179.341 403.222 174.06 403.222C168.778 403.222 164.496 407.462 164.496 412.693C164.496 417.923 168.778 422.163 174.06 422.163Z" fill="#2400FD" stroke="white" stroke-width="1.4" stroke-miterlimit="10" stroke-linecap="round" stroke-linejoin="round"/>
<path d="M194.568 397.52C199.85 397.52 204.132 393.28 204.132 388.049C204.132 382.819 199.85 378.579 194.568 378.579C189.287 378.579 185.005 382.819 185.005 388.049C185.005 393.28 189.287 397.52 194.568 397.52Z" fill="#2400FD" stroke="white" stroke-width="1.4" stroke-miterlimit="10" stroke-linecap="round" stroke-linejoin="round"/>
<path d="M213.303 369.819C218.585 369.819 222.867 365.579 222.867 360.349C222.867 355.118 218.585 350.878 213.303 350.878C208.021 350.878 203.74 355.118 203.74 360.349C203.74 365.579 208.021 369.819 213.303 369.819Z" fill="#2400FD" stroke="white" stroke-width="1.4" stroke-miterlimit="10" stroke-linecap="round" stroke-linejoin="round"/>
<path d="M232.038 344.427C237.32 344.427 241.601 340.187 241.601 334.956C241.601 329.726 237.32 325.486 232.038 325.486C226.756 325.486 222.474 329.726 222.474 334.956C222.474 340.187 226.756 344.427 232.038 344.427Z" fill="#2400FD" stroke="white" stroke-width="1.4" stroke-miterlimit="10" stroke-linecap="round" stroke-linejoin="round"/>
<path d="M229.07 336.909L233.233 337.604L233.233 331.256" stroke="white" stroke-miterlimit="10" stroke-linecap="round" stroke-linejoin="round"/>
<path d="M153.489 391.404L206.884 318.008" stroke="white" stroke-width="1.4" stroke-miterlimit="10" stroke-linecap="round" stroke-linejoin="round"/>
<path d="M147.732 406.004C153.013 406.004 157.295 401.764 157.295 396.534C157.295 391.304 153.013 387.063 147.732 387.063C142.45 387.063 138.168 391.304 138.168 396.534C138.168 401.764 142.45 406.004 147.732 406.004Z" fill="#2400FD" stroke="white" stroke-width="1.4" stroke-miterlimit="10" stroke-linecap="round" stroke-linejoin="round"/>
<path d="M144.763 398.661L148.926 399.355L148.926 393.008" stroke="white" stroke-width="1.4" stroke-miterlimit="10" stroke-linecap="round" stroke-linejoin="round"/>
<path d="M168.239 381.361C173.521 381.361 177.803 377.121 177.803 371.891C177.803 366.66 173.521 362.42 168.239 362.42C162.958 362.42 158.676 366.66 158.676 371.891C158.676 377.121 162.958 381.361 168.239 381.361Z" fill="#2400FD" stroke="white" stroke-width="1.4" stroke-miterlimit="10" stroke-linecap="round" stroke-linejoin="round"/>
<path d="M186.974 353.66C192.256 353.66 196.537 349.42 196.537 344.19C196.537 338.959 192.256 334.719 186.974 334.719C181.692 334.719 177.411 338.959 177.411 344.19C177.411 349.42 181.692 353.66 186.974 353.66Z" fill="#2400FD" stroke="white" stroke-width="1.4" stroke-miterlimit="10" stroke-linecap="round" stroke-linejoin="round"/>
<path d="M205.709 328.268C210.99 328.268 215.272 324.028 215.272 318.798C215.272 313.567 210.99 309.327 205.709 309.327C200.427 309.327 196.145 313.567 196.145 318.798C196.145 324.028 200.427 328.268 205.709 328.268Z" fill="#2400FD" stroke="white" stroke-width="1.4" stroke-miterlimit="10" stroke-linecap="round" stroke-linejoin="round"/>
<path d="M125.387 375.245L178.782 301.85" stroke="white" stroke-width="1.4" stroke-miterlimit="10" stroke-linecap="round" stroke-linejoin="round"/>
<path d="M119.63 389.845C124.911 389.845 129.193 385.605 129.193 380.375C129.193 375.144 124.911 370.904 119.63 370.904C114.348 370.904 110.066 375.144 110.066 380.375C110.066 385.605 114.348 389.845 119.63 389.845Z" fill="#2400FD" stroke="white" stroke-width="1.4" stroke-miterlimit="10" stroke-linecap="round" stroke-linejoin="round"/>
<path d="M140.137 365.202C145.419 365.202 149.701 360.962 149.701 355.732C149.701 350.502 145.419 346.262 140.137 346.262C134.856 346.262 130.574 350.502 130.574 355.732C130.574 360.962 134.856 365.202 140.137 365.202Z" fill="#2400FD" stroke="white" stroke-width="1.4" stroke-miterlimit="10" stroke-linecap="round" stroke-linejoin="round"/>
<path d="M158.872 337.501C164.154 337.501 168.435 333.261 168.435 328.031C168.435 322.801 164.154 318.561 158.872 318.561C153.59 318.561 149.309 322.801 149.309 328.031C149.309 333.261 153.59 337.501 158.872 337.501Z" fill="#2400FD" stroke="white" stroke-width="1.4" stroke-miterlimit="10" stroke-linecap="round" stroke-linejoin="round"/>
<path d="M155.904 329.985L160.067 330.679L160.067 324.332" stroke="white" stroke-miterlimit="10" stroke-linecap="round" stroke-linejoin="round"/>
<path d="M177.607 312.109C182.888 312.109 187.17 307.869 187.17 302.638C187.17 297.408 182.888 293.168 177.607 293.168C172.325 293.168 168.043 297.408 168.043 302.638C168.043 307.869 172.325 312.109 177.607 312.109Z" fill="#2400FD" stroke="white" stroke-width="1.4" stroke-miterlimit="10" stroke-linecap="round" stroke-linejoin="round"/>
<path d="M364.66 242.285L292.855 273.932C284.088 277.799 275.083 281.114 265.838 283.797L204.872 302.659C195.229 305.421 187.02 303.922 182.717 296.109C178.413 288.217 181.601 278.352 189.571 274.09L195.468 271.486L218.659 262.568C228.382 257.359 242.169 256.096 236.909 246.389C231.649 236.682 219.536 233.13 209.733 238.339C209.733 238.339 197.46 240.47 171.799 286.954C170.284 289.558 168.133 291.768 165.264 293.346C157.772 297.529 148.209 295.319 143.029 288.532C138.381 282.369 139.651 274.664 142.837 268.923C142.874 268.856 142.912 268.79 142.949 268.723L143.507 267.619L151.738 252.133L164.575 227.984L166.117 225.083L172.914 212.296C172.914 212.296 174.109 209.489 176.404 205.592C180.095 199.323 186.634 190.232 195.627 185.463C195.627 185.463 216.746 169.916 246.871 173.309L271.497 176.782C271.497 176.782 295.644 183.253 321.465 172.362C330.072 168.732 325.609 171.02 325.609 171.02L364.66 242.285Z" fill="#FF3E37"/>
<path d="M209.415 283.56C211.646 290.19 206.546 293.978 206.546 293.978L196.504 297.45L190.687 280.088L200.808 276.773C200.808 276.773 207.183 276.773 209.415 283.403" fill="#FF3E37"/>
<path d="M166.3 224.607L164.647 227.733L151.738 252.133L142.852 268.93L150.042 272.907C150.042 272.907 160.801 256.886 154.665 246.784" fill="#FF3E37"/>
<path d="M139.203 247.178L143.746 251.203C143.746 251.203 154.644 239.151 152.201 232.518C152.198 232.511 152.196 232.505 152.194 232.499" fill="#FF3E37"/>
<path fill-rule="evenodd" clip-rule="evenodd" d="M164.575 227.984C164.511 228.196 164.467 228.316 164.467 228.316L166.117 225.083L164.575 227.984Z" fill="#FF3E37"/>
<path d="M135.699 259.157C135.737 259.337 135.78 259.516 135.827 259.697C138.164 264.303 140.501 267.761 142.837 268.923C142.874 268.856 142.912 268.79 142.949 268.723L143.507 267.619L151.738 252.133L164.647 227.733C164.621 227.827 164.597 227.91 164.575 227.984L166.117 225.083L172.914 212.296C172.914 212.296 174.109 209.489 176.404 205.592L152.201 232.518C154.644 239.151 143.746 251.203 143.746 251.203L139.203 247.178C136.627 250.585 134.769 254.759 135.699 259.157Z" fill="#FF3E37"/>
<path d="M142.852 268.93L150.042 272.907C150.042 272.907 160.801 256.886 154.665 246.784M142.852 268.93C142.847 268.928 142.842 268.925 142.837 268.923M142.852 268.93L151.738 252.133M209.415 283.56C211.646 290.19 206.546 293.978 206.546 293.978L196.504 297.45L190.687 280.088L200.808 276.773C200.808 276.773 207.183 276.773 209.415 283.403M163.032 220.503L175.544 206.613L166.117 225.083M166.3 224.607L164.647 227.733M152.194 232.499C152.196 232.505 152.198 232.511 152.201 232.518M142.837 268.923C140.501 267.761 138.164 264.303 135.827 259.697C135.78 259.516 135.737 259.337 135.699 259.157M142.837 268.923C142.874 268.856 142.912 268.79 142.949 268.723L143.507 267.619L151.738 252.133M142.837 268.923C139.651 274.664 138.381 282.369 143.029 288.532C148.209 295.319 157.772 297.529 165.264 293.346C168.133 291.768 170.284 289.558 171.799 286.954C197.46 240.47 209.733 238.339 209.733 238.339C219.536 233.13 231.649 236.682 236.909 246.389C242.169 256.096 228.382 257.359 218.659 262.568L195.468 271.486L189.571 274.09C181.601 278.352 178.413 288.217 182.717 296.109C187.02 303.922 195.229 305.421 204.872 302.659L265.838 283.797C275.083 281.114 284.088 277.799 292.855 273.932L364.66 242.285L325.609 171.02C325.609 171.02 330.072 168.732 321.465 172.362C295.644 183.253 271.497 176.782 271.497 176.782L246.871 173.309C216.746 169.916 195.627 185.463 195.627 185.463C186.634 190.232 180.095 199.323 176.404 205.592M151.738 252.133L164.647 227.733M151.738 252.133L164.575 227.984M164.647 227.733C164.621 227.827 164.597 227.91 164.575 227.984M166.117 225.083L172.914 212.296C172.914 212.296 174.109 209.489 176.404 205.592M166.117 225.083L164.467 228.316C164.467 228.316 164.511 228.196 164.575 227.984M166.117 225.083L164.575 227.984M176.404 205.592L152.201 232.518M152.201 232.518C154.644 239.151 143.746 251.203 143.746 251.203L139.203 247.178C136.627 250.585 134.769 254.759 135.699 259.157M152.201 232.518L142.073 243.785L141.355 244.653C137.804 248.399 134.524 253.598 135.699 259.157" stroke="white" stroke-width="2" stroke-miterlimit="10" stroke-linecap="round" stroke-linejoin="round"/>
<path d="M423.076 252.465L397.972 267.855L325.689 171.02L375.099 139.294" fill="#2400FD"/>
<path d="M423.076 252.465L397.972 267.855L325.689 171.02L375.099 139.294" stroke="white" stroke-width="2" stroke-miterlimit="10" stroke-linecap="round" stroke-linejoin="round"/>
<path d="M367.188 172.362C367.188 176.352 363.92 179.596 359.878 179.596C355.836 179.596 352.568 176.352 352.568 172.362C352.568 168.371 355.836 165.127 359.878 165.127C363.92 165.127 367.188 168.371 367.188 172.362Z" fill="white" stroke="white"/>
<path d="M364.66 242.285L375.02 237.155" stroke="white" stroke-width="2" stroke-miterlimit="10" stroke-linecap="round" stroke-linejoin="round"/>
</svg>
