<?xml version="1.0" encoding="UTF-8" standalone="no"?>
<svg
   width="355"
   height="327"
   viewBox="0 0 355 327"
   fill="none"
   version="1.1"
   id="svg135"
   sodipodi:docname="vote.svg"
   inkscape:version="1.1.1 (3bf5ae0d25, 2021-09-20)"
   xmlns:inkscape="http://www.inkscape.org/namespaces/inkscape"
   xmlns:sodipodi="http://sodipodi.sourceforge.net/DTD/sodipodi-0.dtd"
   xmlns="http://www.w3.org/2000/svg"
   xmlns:svg="http://www.w3.org/2000/svg">
  <defs
     id="defs139" />
  <sodipodi:namedview
     id="namedview137"
     pagecolor="#ffffff"
     bordercolor="#666666"
     borderopacity="1.0"
     inkscape:pageshadow="2"
     inkscape:pageopacity="0.0"
     inkscape:pagecheckerboard="0"
     showgrid="false"
     width="374px"
     inkscape:zoom="1.0060729"
     inkscape:cx="181.39839"
     inkscape:cy="254.95171"
     inkscape:window-width="1366"
     inkscape:window-height="705"
     inkscape:window-x="-8"
     inkscape:window-y="-8"
     inkscape:window-maximized="1"
     inkscape:current-layer="svg135" />
  <path
     d="m 116.90261,102.64707 -110.4070024,151.866 94.3040024,67.233 110.407,-151.866 z"
     fill="#2400fd"
     stroke="#2400fd"
     stroke-width="1.4"
     stroke-miterlimit="10.0005"
     stroke-linecap="round"
     stroke-linejoin="round"
     id="path75" />
  <path
     d="m 108.25161,268.40807 53.396,-73.396"
     stroke="#ffffff"
     stroke-width="1.4"
     stroke-miterlimit="10"
     stroke-linecap="round"
     stroke-linejoin="round"
     id="path77" />
  <path
     d="m 102.49461,283.00807 c 5.282,0 9.564,-4.24 9.564,-9.47 0,-5.231 -4.282,-9.471 -9.564,-9.471 -5.282002,0 -9.563002,4.24 -9.563002,9.471 0,5.23 4.281,9.47 9.563002,9.47 z"
     fill="#2400fd"
     stroke="#ffffff"
     stroke-width="1.4"
     stroke-miterlimit="10"
     stroke-linecap="round"
     stroke-linejoin="round"
     id="path79" />
  <path
     d="m 123.00261,258.36507 c 5.282,0 9.564,-4.24 9.564,-9.471 0,-5.23 -4.282,-9.47 -9.564,-9.47 -5.281,0 -9.563,4.24 -9.563,9.47 0,5.231 4.282,9.471 9.563,9.471 z"
     fill="#2400fd"
     stroke="#ffffff"
     stroke-width="1.4"
     stroke-miterlimit="10"
     stroke-linecap="round"
     stroke-linejoin="round"
     id="path81" />
  <path
     d="m 141.73761,230.66407 c 5.282,0 9.563,-4.24 9.563,-9.47 0,-5.231 -4.281,-9.471 -9.563,-9.471 -5.282,0 -9.563,4.24 -9.563,9.471 0,5.23 4.281,9.47 9.563,9.47 z"
     fill="#2400fd"
     stroke="#ffffff"
     stroke-width="1.4"
     stroke-miterlimit="10"
     stroke-linecap="round"
     stroke-linejoin="round"
     id="path83" />
  <path
     d="m 160.47261,205.27207 c 5.282,0 9.563,-4.24 9.563,-9.471 0,-5.23 -4.281,-9.47 -9.563,-9.47 -5.282,0 -9.564,4.24 -9.564,9.47 0,5.231 4.282,9.471 9.564,9.471 z"
     fill="#2400fd"
     stroke="#ffffff"
     stroke-width="1.4"
     stroke-miterlimit="10"
     stroke-linecap="round"
     stroke-linejoin="round"
     id="path85" />
  <path
     d="m 157.50461,197.75407 4.163,0.695 v -6.348"
     stroke="#ffffff"
     stroke-miterlimit="10"
     stroke-linecap="round"
     stroke-linejoin="round"
     id="path87" />
  <path
     d="m 81.923608,252.24907 53.395002,-73.396"
     stroke="#ffffff"
     stroke-width="1.4"
     stroke-miterlimit="10"
     stroke-linecap="round"
     stroke-linejoin="round"
     id="path89" />
  <path
     d="m 76.166608,266.84907 c 5.281,0 9.563,-4.24 9.563,-9.47 0,-5.23 -4.282,-9.471 -9.563,-9.471 -5.282,0 -9.564,4.241 -9.564,9.471 0,5.23 4.282,9.47 9.564,9.47 z"
     fill="#2400fd"
     stroke="#ffffff"
     stroke-width="1.4"
     stroke-miterlimit="10"
     stroke-linecap="round"
     stroke-linejoin="round"
     id="path91" />
  <path
     d="m 73.197608,259.50607 4.163,0.694 v -6.347"
     stroke="#ffffff"
     stroke-width="1.4"
     stroke-miterlimit="10"
     stroke-linecap="round"
     stroke-linejoin="round"
     id="path93" />
  <path
     d="m 96.674608,242.20607 c 5.282002,0 9.563002,-4.24 9.563002,-9.47 0,-5.231 -4.281,-9.471 -9.563002,-9.471 -5.282,0 -9.563,4.24 -9.563,9.471 0,5.23 4.281,9.47 9.563,9.47 z"
     fill="#2400fd"
     stroke="#ffffff"
     stroke-width="1.4"
     stroke-miterlimit="10"
     stroke-linecap="round"
     stroke-linejoin="round"
     id="path95" />
  <path
     d="m 115.40961,214.50507 c 5.281,0 9.563,-4.24 9.563,-9.47 0,-5.231 -4.282,-9.471 -9.563,-9.471 -5.282,0 -9.564,4.24 -9.564,9.471 0,5.23 4.282,9.47 9.564,9.47 z"
     fill="#2400fd"
     stroke="#ffffff"
     stroke-width="1.4"
     stroke-miterlimit="10"
     stroke-linecap="round"
     stroke-linejoin="round"
     id="path97" />
  <path
     d="m 134.14361,189.11307 c 5.282,0 9.564,-4.24 9.564,-9.47 0,-5.231 -4.282,-9.471 -9.564,-9.471 -5.281,0 -9.563,4.24 -9.563,9.471 0,5.23 4.282,9.47 9.563,9.47 z"
     fill="#2400fd"
     stroke="#ffffff"
     stroke-width="1.4"
     stroke-miterlimit="10"
     stroke-linecap="round"
     stroke-linejoin="round"
     id="path99" />
  <path
     d="m 53.821608,236.09007 53.395002,-73.395"
     stroke="#ffffff"
     stroke-width="1.4"
     stroke-miterlimit="10"
     stroke-linecap="round"
     stroke-linejoin="round"
     id="path101" />
  <path
     d="m 48.064608,250.69007 c 5.281,0 9.563,-4.24 9.563,-9.47 0,-5.231 -4.282,-9.471 -9.563,-9.471 -5.282,0 -9.564,4.24 -9.564,9.471 0,5.23 4.282,9.47 9.564,9.47 z"
     fill="#2400fd"
     stroke="#ffffff"
     stroke-width="1.4"
     stroke-miterlimit="10"
     stroke-linecap="round"
     stroke-linejoin="round"
     id="path103" />
  <path
     d="m 68.572608,226.04707 c 5.282,0 9.563,-4.24 9.563,-9.47 0,-5.23 -4.281,-9.47 -9.563,-9.47 -5.282,0 -9.564,4.24 -9.564,9.47 0,5.23 4.282,9.47 9.564,9.47 z"
     fill="#2400fd"
     stroke="#ffffff"
     stroke-width="1.4"
     stroke-miterlimit="10"
     stroke-linecap="round"
     stroke-linejoin="round"
     id="path105" />
  <path
     d="m 87.307608,198.34607 c 5.281,0 9.563,-4.24 9.563,-9.47 0,-5.23 -4.282,-9.47 -9.563,-9.47 -5.282,0 -9.564,4.24 -9.564,9.47 0,5.23 4.282,9.47 9.564,9.47 z"
     fill="#2400fd"
     stroke="#ffffff"
     stroke-width="1.4"
     stroke-miterlimit="10"
     stroke-linecap="round"
     stroke-linejoin="round"
     id="path107" />
  <path
     d="m 84.339608,190.83007 4.162,0.694 10e-4,-6.347"
     stroke="#ffffff"
     stroke-miterlimit="10"
     stroke-linecap="round"
     stroke-linejoin="round"
     id="path109" />
  <path
     d="m 106.04161,172.95407 c 5.282,0 9.564,-4.24 9.564,-9.471 0,-5.23 -4.282,-9.47 -9.564,-9.47 -5.281,0 -9.563002,4.24 -9.563002,9.47 0,5.231 4.282002,9.471 9.563002,9.471 z"
     fill="#2400fd"
     stroke="#ffffff"
     stroke-width="1.4"
     stroke-miterlimit="10"
     stroke-linecap="round"
     stroke-linejoin="round"
     id="path111" />
  <path
     d="m 293.09361,103.13007 -71.805,31.647 c -8.766,3.867 -17.771,7.181 -27.016,9.865 l -60.966,18.862 c -9.643,2.762 -17.852,1.262 -22.156,-6.551 -4.303,-7.892 -1.115,-17.757 6.854,-22.018 l 5.898,-2.605 23.191,-8.918 c 9.722,-5.209 23.51,-6.471 18.25,-16.178 -5.26,-9.708 -17.374,-13.259 -27.176,-8.05 0,0 -12.273,2.131 -37.935,48.614 -1.514002,2.605 -3.666002,4.815 -6.535002,6.393 -7.491,4.183 -17.054,1.973 -22.234,-4.814 -4.648,-6.163 -3.378,-13.869 -0.192,-19.61 0.037,-0.066 0.074,-0.133 0.112,-0.199 l 0.558,-1.105 8.231,-15.485 12.837,-24.15 1.542,-2.901 6.797002,-12.787 c 0,0 1.195,-2.807 3.489,-6.704 3.692,-6.269 10.231,-15.359 19.224,-20.129 0,0 21.119,-15.547 51.244,-12.153 l 24.625,3.472 c 0,0 24.148,6.472 49.969,-4.419 8.607,-3.631 4.144,-1.342 4.144,-1.342 z"
     fill="#ff3e37"
     id="path113" />
  <path
     d="m 137.84961,144.40507 c 2.231,6.629 -2.869,10.417 -2.869,10.417 l -10.042,3.473 -5.818,-17.363 10.122,-3.314 c 0,0 6.375,0 8.607,6.629"
     fill="#ff3e37"
     id="path115" />
  <path
     d="m 94.734608,85.45207 -1.654,3.125 -12.908,24.401 -8.886,16.797 7.19,3.976 c 0,0 10.759,-16.021 4.622,-26.122"
     fill="#ff3e37"
     id="path117" />
  <path
     d="m 67.637608,108.02307 4.543,4.025 c 0,0 10.898,-12.053 8.454,-18.686 -0.002,-0.006 -0.004,-0.012 -0.007,-0.018"
     fill="#ff3e37"
     id="path119" />
  <path
     fill-rule="evenodd"
     clip-rule="evenodd"
     d="m 93.009608,88.82807 c -0.064,0.213 -0.109,0.333 -0.109,0.333 l 1.651,-3.234 z"
     fill="#ff3e37"
     id="path121" />
  <path
     d="m 64.133608,120.00207 c 0.038,0.179 0.08,0.359 0.128,0.539 2.336,4.607 4.673,8.065 7.01,9.226 0.037,-0.066 0.074,-0.133 0.112,-0.199 l 0.558,-1.105 8.231,-15.485 12.908,-24.401 c -0.025,0.094 -0.049,0.178 -0.071,0.251 l 1.542,-2.901 6.797002,-12.787 c 0,0 1.195,-2.807 3.489,-6.704 l -24.203002,26.926 c 2.444,6.633 -8.454,18.686 -8.454,18.686 l -4.543,-4.025 c -2.576,3.406 -4.434,7.581 -3.504,11.979 z"
     fill="#ff3e37"
     id="path123" />
  <path
     d="m 71.286608,129.77507 7.19,3.976 c 0,0 10.759,-16.021 4.622,-26.122 m -11.812,22.146 c -0.005,-0.003 -0.01,-0.005 -0.015,-0.008 m 0.015,0.008 8.886,-16.797 m 57.677002,31.427 c 2.231,6.629 -2.869,10.417 -2.869,10.417 l -10.042,3.473 -5.818,-17.363 10.122,-3.314 c 0,0 6.375,0 8.607,6.629 m -46.383002,-62.899 12.512002,-13.89 -9.427002,18.469 m 0.183,-0.475 -1.654,3.125 m -12.453,4.767 c 0.003,0.006 0.005,0.012 0.007,0.018 m -9.363,36.405 c -2.337,-1.161 -4.674,-4.619 -7.01,-9.226 -0.048,-0.18 -0.09,-0.36 -0.128,-0.539 m 7.138,9.765 c 0.037,-0.066 0.074,-0.133 0.112,-0.199 l 0.558,-1.105 8.231,-15.485 m -8.901,16.789 c -3.186,5.741 -4.456,13.447 0.192,19.61 5.18,6.787 14.743,8.997 22.234,4.814 2.869,-1.578 5.021,-3.788 6.535002,-6.393 25.662,-46.483 37.935,-48.614 37.935,-48.614 9.802,-5.209 21.916,-1.658 27.176,8.05 5.26,9.707 -8.528,10.969 -18.25,16.178 l -23.191,8.918 -5.898,2.605 c -7.969,4.261 -11.157,14.126 -6.854,22.018 4.304,7.813 12.513,9.313 22.156,6.551 l 60.966,-18.862 c 9.245,-2.684 18.25,-5.998 27.016,-9.865 l 71.805,-31.647 -39.05,-71.265 c 0,0 4.463,-2.289 -4.144,1.342 -25.821,10.891 -49.969,4.419 -49.969,4.419 l -24.625,-3.472 c -30.125,-3.394 -51.244,12.153 -51.244,12.153 -8.993,4.77 -15.532,13.86 -19.224,20.129 m -24.665002,46.542 12.908,-24.401 m -12.908,24.401 12.837,-24.15 m 0.071,-0.251 c -0.025,0.094 -0.049,0.178 -0.071,0.251 m 1.542,-2.901 6.797002,-12.787 c 0,0 1.195,-2.807 3.489,-6.704 m -10.286002,19.491 -1.651,3.234 c 0,0 0.045,-0.12 0.109,-0.333 m 1.542,-2.901 -1.542,2.901 m 11.828002,-22.392 -24.203002,26.926 m 0,0 c 2.444,6.633 -8.454,18.686 -8.454,18.686 l -4.543,-4.025 c -2.576,3.406 -4.434,7.581 -3.504,11.979 m 16.501,-26.64 -10.128,11.267 -0.717,0.868 c -3.551,3.747 -6.831,8.946 -5.656,14.505"
     stroke="#ffffff"
     stroke-width="2"
     stroke-miterlimit="10"
     stroke-linecap="round"
     stroke-linejoin="round"
     id="path125" />
  <path
     d="m 351.50961,113.31007 -25.104,15.39 -72.283,-96.835 49.411,-31.72599958"
     fill="#2400fd"
     id="path127" />
  <path
     d="m 351.50961,113.31007 -25.104,15.39 -72.283,-96.835 49.411,-31.72599958"
     stroke="#ffffff"
     stroke-width="2"
     stroke-miterlimit="10"
     stroke-linecap="round"
     stroke-linejoin="round"
     id="path129" />
  <path
     d="m 295.62261,33.20707 c 0,3.99 -3.269,7.234 -7.31,7.234 -4.042,0 -7.31,-3.244 -7.31,-7.234 0,-3.991 3.268,-7.235 7.31,-7.235 4.041,0 7.31,3.244 7.31,7.235 z"
     fill="#ffffff"
     stroke="#ffffff"
     id="path131" />
  <path
     d="m 293.09361,103.13007 10.361,-5.13"
     stroke="#ffffff"
     stroke-width="2"
     stroke-miterlimit="10"
     stroke-linecap="round"
     stroke-linejoin="round"
     id="path133" />
</svg>
