<?xml version="1.0" encoding="utf-8"?>
<!-- Generator: Adobe Illustrator 23.0.3, SVG Export Plug-In . SVG Version: 6.00 Build 0)  -->
<svg version="1.1" id="LOGO" xmlns="http://www.w3.org/2000/svg" xmlns:xlink="http://www.w3.org/1999/xlink" x="0px" y="0px"
     viewBox="0 0 400 400" style="enable-background:new 0 0 400 400;" xml:space="preserve">
<style type="text/css">
	.st0{fill:#FFFFFF;}
</style>
    <path class="st0" d="M200,0C89.54,0,0,89.54,0,200s89.54,200,200,200s200-89.54,200-200S310.46,0,200,0z M249.67,210.48
	c-11.87,32.86-23.84,65.69-35.55,98.6c-1.4,3.94-3.16,5.48-7.41,5.31c-8.48-0.35-16.99-0.22-25.48-0.04
	c-3.12,0.07-4.74-0.87-5.85-3.94c-8.77-24.43-17.67-48.81-26.65-73.16c-1.07-2.91-1.05-4.42,2.36-5.45
	c6.85-2.06,13.63-4.38,20.29-6.97c3.22-1.25,4.29-0.33,5.26,2.7c5.26,16.48,10.7,32.91,16.08,49.35c0.5,1.54,1.06,3.06,1.64,4.71
	c1.99-1.26,2-3.28,2.56-4.93c11.12-32.77,22.25-65.54,33.17-98.37c1.34-4.04,3-5.88,7.6-5.63c8.26,0.45,16.57,0.13,25.52,0.13
	C258.54,185.81,254.12,198.15,249.67,210.48z M263.37,154.73c0.01,2.52-0.65,3.54-3.34,3.48c-7.66-0.15-15.33-0.19-22.99,0.01
	c-3.09,0.08-3.52-1.28-3.48-3.87c0.12-7.45,0.04-14.9,0.04-22.59c-2.19,1.2-1.94,3.31-2.43,4.91c-4.76,15.41-9.49,30.83-13.94,46.32
	c-0.96,3.36-2.37,4.44-5.83,4.32c-7.65-0.28-15.33-0.3-22.99,0.01c-3.58,0.14-4.78-1.21-5.72-4.45
	c-4.73-16.28-9.75-32.48-14.68-48.71c-0.23-0.76-0.55-1.49-1.67-2.2c0,1.51,0,3.03,0,4.54c0,18-0.08,35.99,0.07,53.98
	c0.03,3.35-0.68,4.69-4.34,4.55c-7.15-0.29-14.33-0.22-21.49-0.02c-2.96,0.08-4.04-0.63-4.03-3.83c0.11-33.16,0.11-66.31,0-99.47
	c-0.01-3.38,1.15-4.16,4.29-4.11c10.99,0.16,22,0.19,32.99-0.01c3.26-0.06,4.56,1.07,5.56,4.13c6.06,18.66,12.35,37.24,18.59,55.84
	c0.5,1.5,1.14,2.96,2.17,5.6c3.53-10.55,6.67-19.91,9.8-29.28c3.63-10.88,7.36-21.73,10.82-32.67c0.86-2.71,2.07-3.64,4.9-3.61
	c11.33,0.15,22.66,0.14,33.99,0.01c2.78-0.03,3.75,0.77,3.73,3.64C263.28,112.41,263.29,133.57,263.37,154.73z"/>
</svg>
