<svg width="201" height="92" viewBox="0 0 201 92" fill="none" xmlns="http://www.w3.org/2000/svg">
<path fill-rule="evenodd" clip-rule="evenodd" d="M66.9161 60.004L66.9161 89.5322H76.0301V50.6729L66.9161 60.004ZM0.218262 73.3702L0.218262 89.5323H9.74653L9.74653 82.9535L0.218262 73.3702Z" fill="#FF3E37"/>
<path fill-rule="evenodd" clip-rule="evenodd" d="M76.1728 26.292V39.9373L26.9007 89.9183L0.0968026 62.7288L0.0968018 49.0834L26.9007 76.273L76.1728 26.292Z" fill="white"/>
<path fill-rule="evenodd" clip-rule="evenodd" d="M76.1728 1.65723V15.3025L26.9005 65.2837L0.0968026 38.0943L0.0968018 24.449L26.9005 51.6384L76.1728 1.65723Z" fill="white"/>
<mask id="path-4-outside-1_62_1952" maskUnits="userSpaceOnUse" x="92.8703" y="24.9795" width="108" height="65" fill="black">
<rect fill="white" x="92.8703" y="24.9795" width="108" height="65"/>
<path d="M98.4708 55.1737V34.3265L106.598 55.1737H110.469L118.474 34.3265V55.1737H122.872V25.9795H117.44L108.604 48.8014L99.5044 25.9795H93.8703V55.1737H98.4708Z"/>
<path d="M132.916 31.3338V25.9795H127.971V31.3338H132.916ZM132.775 55.1737V34.3265H128.133V55.1737H132.775Z"/>
<path d="M146.163 55.6419C148.595 55.6419 150.601 54.9904 152.202 53.6671C153.783 52.3642 154.736 50.6744 155.08 48.5775H150.946C150.196 50.7151 148.595 51.7942 146.163 51.7942C144.501 51.7942 143.184 51.3055 142.211 50.308C141.218 49.3308 140.732 47.9871 140.732 46.2973V46.2566H155.425C155.668 42.7346 154.938 39.8233 153.256 37.5228C151.574 35.2223 149.162 34.0822 146.041 34.0822C143.103 34.0822 140.732 35.0798 138.908 37.0749C137.063 39.07 136.151 41.6759 136.151 44.913C136.151 48.2518 137.063 50.878 138.887 52.7714C140.691 54.6851 143.123 55.6419 146.163 55.6419ZM140.853 42.3681C140.934 41.0652 141.461 39.9862 142.414 39.1515C143.366 38.3168 144.521 37.9096 145.92 37.9096C147.298 37.9096 148.433 38.3168 149.345 39.1515C150.237 39.9862 150.703 41.0652 150.764 42.3681H140.853Z"/>
<path d="M166.564 55.7234C168.064 55.7234 169.34 55.3976 170.394 54.7054C171.428 54.0336 172.238 53.321 172.786 52.5474V55.1737H177.184V34.3265H172.786V44.8315C172.786 46.9285 172.279 48.5979 171.266 49.8601C170.252 51.1223 169.036 51.7534 167.597 51.7534C165.105 51.7534 163.483 50.1247 163.483 46.6231V34.3265H158.721V47.132C158.721 49.799 159.511 51.9977 160.626 53.2192C161.173 53.83 161.821 54.3186 162.571 54.7054C164.03 55.4994 165.287 55.7234 166.564 55.7234Z"/>
<path d="M185.06 55.1737L190.065 48.2518L195.051 55.1737H200.28L192.599 44.7501L200.28 34.3265H195.051L190.106 41.2484L185.06 34.3265H179.81L187.532 44.7501L179.81 55.1737H185.06Z"/>
<path d="M109.279 88.9262L120.162 59.7321H115.501L107.171 82.7576L98.8211 59.7321H94.1193L105.002 88.9262H109.279Z"/>
<path d="M129.72 89.1298C132.537 89.1298 134.929 88.1322 136.854 86.1167C138.779 84.1216 139.732 81.5768 139.732 78.5026C139.732 75.3878 138.779 72.8226 136.854 70.8071C134.929 68.7916 132.537 67.794 129.72 67.794C126.862 67.794 124.491 68.7916 122.566 70.8071C120.641 72.8226 119.668 75.3878 119.668 78.5026C119.668 81.5768 120.641 84.1216 122.566 86.1167C124.491 88.1322 126.862 89.1298 129.72 89.1298ZM129.68 84.997C127.937 84.997 126.579 84.3863 125.606 83.1648C124.613 81.9432 124.126 80.396 124.126 78.5026C124.126 76.5889 124.633 75.0213 125.626 73.7795C126.619 72.5579 127.977 71.9472 129.72 71.9472C131.483 71.9472 132.882 72.5579 133.875 73.7795C134.868 75.0213 135.374 76.6093 135.374 78.5434C135.374 80.4367 134.868 81.984 133.854 83.1851C132.841 84.3863 131.443 84.997 129.68 84.997Z"/>
<path d="M152.918 88.9262L152.958 84.997H150.141C149.148 84.997 148.479 84.7934 148.135 84.4066C147.79 84.0198 147.608 83.3073 147.608 82.2486V71.825H152.918V68.0791H147.608V61.4015H143.291V68.0791H140.069V71.825H143.291V83.3887C143.291 84.997 143.818 86.3203 144.892 87.3586C145.966 88.3969 147.324 88.9262 148.986 88.9262H152.918Z"/>
<path d="M163.712 89.3945C166.144 89.3945 168.15 88.743 169.751 87.4197C171.332 86.1167 172.285 84.427 172.629 82.3301H168.495C167.745 84.4677 166.144 85.5467 163.712 85.5467C162.05 85.5467 160.733 85.0581 159.76 84.0605C158.767 83.0833 158.281 81.7397 158.281 80.0499V80.0092H172.974C173.217 76.4871 172.487 73.5759 170.805 71.2754C169.123 68.9748 166.711 67.8348 163.59 67.8348C160.652 67.8348 158.281 68.8323 156.457 70.8275C154.612 72.8226 153.7 75.4285 153.7 78.6655C153.7 82.0043 154.612 84.6306 156.436 86.5239C158.24 88.4376 160.672 89.3945 163.712 89.3945ZM158.402 76.1207C158.483 74.8177 159.01 73.7387 159.963 72.904C160.915 72.0693 162.07 71.6622 163.469 71.6622C164.847 71.6622 165.982 72.0693 166.894 72.904C167.786 73.7387 168.252 74.8177 168.313 76.1207H158.402Z"/>
<path d="M180.749 88.9262V78.3805C180.749 74.3291 182.775 72.3136 186.808 72.3747H187.518V67.7533H186.565C185.369 67.7533 184.336 67.9569 183.424 68.3437C182.512 68.7509 181.883 69.1377 181.539 69.4838C181.194 69.8503 180.931 70.2371 180.749 70.6239V68.0791H176.472V88.9262H180.749Z"/>
</mask>
<path d="M98.4708 55.1737V34.3265L106.598 55.1737H110.469L118.474 34.3265V55.1737H122.872V25.9795H117.44L108.604 48.8014L99.5044 25.9795H93.8703V55.1737H98.4708Z" fill="white"/>
<path d="M132.916 31.3338V25.9795H127.971V31.3338H132.916ZM132.775 55.1737V34.3265H128.133V55.1737H132.775Z" fill="white"/>
<path d="M146.163 55.6419C148.595 55.6419 150.601 54.9904 152.202 53.6671C153.783 52.3642 154.736 50.6744 155.08 48.5775H150.946C150.196 50.7151 148.595 51.7942 146.163 51.7942C144.501 51.7942 143.184 51.3055 142.211 50.308C141.218 49.3308 140.732 47.9871 140.732 46.2973V46.2566H155.425C155.668 42.7346 154.938 39.8233 153.256 37.5228C151.574 35.2223 149.162 34.0822 146.041 34.0822C143.103 34.0822 140.732 35.0798 138.908 37.0749C137.063 39.07 136.151 41.6759 136.151 44.913C136.151 48.2518 137.063 50.878 138.887 52.7714C140.691 54.6851 143.123 55.6419 146.163 55.6419ZM140.853 42.3681C140.934 41.0652 141.461 39.9862 142.414 39.1515C143.366 38.3168 144.521 37.9096 145.92 37.9096C147.298 37.9096 148.433 38.3168 149.345 39.1515C150.237 39.9862 150.703 41.0652 150.764 42.3681H140.853Z" fill="white"/>
<path d="M166.564 55.7234C168.064 55.7234 169.34 55.3976 170.394 54.7054C171.428 54.0336 172.238 53.321 172.786 52.5474V55.1737H177.184V34.3265H172.786V44.8315C172.786 46.9285 172.279 48.5979 171.266 49.8601C170.252 51.1223 169.036 51.7534 167.597 51.7534C165.105 51.7534 163.483 50.1247 163.483 46.6231V34.3265H158.721V47.132C158.721 49.799 159.511 51.9977 160.626 53.2192C161.173 53.83 161.821 54.3186 162.571 54.7054C164.03 55.4994 165.287 55.7234 166.564 55.7234Z" fill="white"/>
<path d="M185.06 55.1737L190.065 48.2518L195.051 55.1737H200.28L192.599 44.7501L200.28 34.3265H195.051L190.106 41.2484L185.06 34.3265H179.81L187.532 44.7501L179.81 55.1737H185.06Z" fill="white"/>
<path d="M109.279 88.9262L120.162 59.7321H115.501L107.171 82.7576L98.8211 59.7321H94.1193L105.002 88.9262H109.279Z" fill="white"/>
<path d="M129.72 89.1298C132.537 89.1298 134.929 88.1322 136.854 86.1167C138.779 84.1216 139.732 81.5768 139.732 78.5026C139.732 75.3878 138.779 72.8226 136.854 70.8071C134.929 68.7916 132.537 67.794 129.72 67.794C126.862 67.794 124.491 68.7916 122.566 70.8071C120.641 72.8226 119.668 75.3878 119.668 78.5026C119.668 81.5768 120.641 84.1216 122.566 86.1167C124.491 88.1322 126.862 89.1298 129.72 89.1298ZM129.68 84.997C127.937 84.997 126.579 84.3863 125.606 83.1648C124.613 81.9432 124.126 80.396 124.126 78.5026C124.126 76.5889 124.633 75.0213 125.626 73.7795C126.619 72.5579 127.977 71.9472 129.72 71.9472C131.483 71.9472 132.882 72.5579 133.875 73.7795C134.868 75.0213 135.374 76.6093 135.374 78.5434C135.374 80.4367 134.868 81.984 133.854 83.1851C132.841 84.3863 131.443 84.997 129.68 84.997Z" fill="white"/>
<path d="M152.918 88.9262L152.958 84.997H150.141C149.148 84.997 148.479 84.7934 148.135 84.4066C147.79 84.0198 147.608 83.3073 147.608 82.2486V71.825H152.918V68.0791H147.608V61.4015H143.291V68.0791H140.069V71.825H143.291V83.3887C143.291 84.997 143.818 86.3203 144.892 87.3586C145.966 88.3969 147.324 88.9262 148.986 88.9262H152.918Z" fill="white"/>
<path d="M163.712 89.3945C166.144 89.3945 168.15 88.743 169.751 87.4197C171.332 86.1167 172.285 84.427 172.629 82.3301H168.495C167.745 84.4677 166.144 85.5467 163.712 85.5467C162.05 85.5467 160.733 85.0581 159.76 84.0605C158.767 83.0833 158.281 81.7397 158.281 80.0499V80.0092H172.974C173.217 76.4871 172.487 73.5759 170.805 71.2754C169.123 68.9748 166.711 67.8348 163.59 67.8348C160.652 67.8348 158.281 68.8323 156.457 70.8275C154.612 72.8226 153.7 75.4285 153.7 78.6655C153.7 82.0043 154.612 84.6306 156.436 86.5239C158.24 88.4376 160.672 89.3945 163.712 89.3945ZM158.402 76.1207C158.483 74.8177 159.01 73.7387 159.963 72.904C160.915 72.0693 162.07 71.6622 163.469 71.6622C164.847 71.6622 165.982 72.0693 166.894 72.904C167.786 73.7387 168.252 74.8177 168.313 76.1207H158.402Z" fill="white"/>
<path d="M180.749 88.9262V78.3805C180.749 74.3291 182.775 72.3136 186.808 72.3747H187.518V67.7533H186.565C185.369 67.7533 184.336 67.9569 183.424 68.3437C182.512 68.7509 181.883 69.1377 181.539 69.4838C181.194 69.8503 180.931 70.2371 180.749 70.6239V68.0791H176.472V88.9262H180.749Z" fill="white"/>
<path d="M98.4708 55.1737V34.3265L106.598 55.1737H110.469L118.474 34.3265V55.1737H122.872V25.9795H117.44L108.604 48.8014L99.5044 25.9795H93.8703V55.1737H98.4708Z" stroke="white" stroke-width="0.509302" mask="url(#path-4-outside-1_62_1952)"/>
<path d="M132.916 31.3338V25.9795H127.971V31.3338H132.916ZM132.775 55.1737V34.3265H128.133V55.1737H132.775Z" stroke="white" stroke-width="0.509302" mask="url(#path-4-outside-1_62_1952)"/>
<path d="M146.163 55.6419C148.595 55.6419 150.601 54.9904 152.202 53.6671C153.783 52.3642 154.736 50.6744 155.08 48.5775H150.946C150.196 50.7151 148.595 51.7942 146.163 51.7942C144.501 51.7942 143.184 51.3055 142.211 50.308C141.218 49.3308 140.732 47.9871 140.732 46.2973V46.2566H155.425C155.668 42.7346 154.938 39.8233 153.256 37.5228C151.574 35.2223 149.162 34.0822 146.041 34.0822C143.103 34.0822 140.732 35.0798 138.908 37.0749C137.063 39.07 136.151 41.6759 136.151 44.913C136.151 48.2518 137.063 50.878 138.887 52.7714C140.691 54.6851 143.123 55.6419 146.163 55.6419ZM140.853 42.3681C140.934 41.0652 141.461 39.9862 142.414 39.1515C143.366 38.3168 144.521 37.9096 145.92 37.9096C147.298 37.9096 148.433 38.3168 149.345 39.1515C150.237 39.9862 150.703 41.0652 150.764 42.3681H140.853Z" stroke="white" stroke-width="0.509302" mask="url(#path-4-outside-1_62_1952)"/>
<path d="M166.564 55.7234C168.064 55.7234 169.34 55.3976 170.394 54.7054C171.428 54.0336 172.238 53.321 172.786 52.5474V55.1737H177.184V34.3265H172.786V44.8315C172.786 46.9285 172.279 48.5979 171.266 49.8601C170.252 51.1223 169.036 51.7534 167.597 51.7534C165.105 51.7534 163.483 50.1247 163.483 46.6231V34.3265H158.721V47.132C158.721 49.799 159.511 51.9977 160.626 53.2192C161.173 53.83 161.821 54.3186 162.571 54.7054C164.03 55.4994 165.287 55.7234 166.564 55.7234Z" stroke="white" stroke-width="0.509302" mask="url(#path-4-outside-1_62_1952)"/>
<path d="M185.06 55.1737L190.065 48.2518L195.051 55.1737H200.28L192.599 44.7501L200.28 34.3265H195.051L190.106 41.2484L185.06 34.3265H179.81L187.532 44.7501L179.81 55.1737H185.06Z" stroke="white" stroke-width="0.509302" mask="url(#path-4-outside-1_62_1952)"/>
<path d="M109.279 88.9262L120.162 59.7321H115.501L107.171 82.7576L98.8211 59.7321H94.1193L105.002 88.9262H109.279Z" stroke="white" stroke-width="0.509302" mask="url(#path-4-outside-1_62_1952)"/>
<path d="M129.72 89.1298C132.537 89.1298 134.929 88.1322 136.854 86.1167C138.779 84.1216 139.732 81.5768 139.732 78.5026C139.732 75.3878 138.779 72.8226 136.854 70.8071C134.929 68.7916 132.537 67.794 129.72 67.794C126.862 67.794 124.491 68.7916 122.566 70.8071C120.641 72.8226 119.668 75.3878 119.668 78.5026C119.668 81.5768 120.641 84.1216 122.566 86.1167C124.491 88.1322 126.862 89.1298 129.72 89.1298ZM129.68 84.997C127.937 84.997 126.579 84.3863 125.606 83.1648C124.613 81.9432 124.126 80.396 124.126 78.5026C124.126 76.5889 124.633 75.0213 125.626 73.7795C126.619 72.5579 127.977 71.9472 129.72 71.9472C131.483 71.9472 132.882 72.5579 133.875 73.7795C134.868 75.0213 135.374 76.6093 135.374 78.5434C135.374 80.4367 134.868 81.984 133.854 83.1851C132.841 84.3863 131.443 84.997 129.68 84.997Z" stroke="white" stroke-width="0.509302" mask="url(#path-4-outside-1_62_1952)"/>
<path d="M152.918 88.9262L152.958 84.997H150.141C149.148 84.997 148.479 84.7934 148.135 84.4066C147.79 84.0198 147.608 83.3073 147.608 82.2486V71.825H152.918V68.0791H147.608V61.4015H143.291V68.0791H140.069V71.825H143.291V83.3887C143.291 84.997 143.818 86.3203 144.892 87.3586C145.966 88.3969 147.324 88.9262 148.986 88.9262H152.918Z" stroke="white" stroke-width="0.509302" mask="url(#path-4-outside-1_62_1952)"/>
<path d="M163.712 89.3945C166.144 89.3945 168.15 88.743 169.751 87.4197C171.332 86.1167 172.285 84.427 172.629 82.3301H168.495C167.745 84.4677 166.144 85.5467 163.712 85.5467C162.05 85.5467 160.733 85.0581 159.76 84.0605C158.767 83.0833 158.281 81.7397 158.281 80.0499V80.0092H172.974C173.217 76.4871 172.487 73.5759 170.805 71.2754C169.123 68.9748 166.711 67.8348 163.59 67.8348C160.652 67.8348 158.281 68.8323 156.457 70.8275C154.612 72.8226 153.7 75.4285 153.7 78.6655C153.7 82.0043 154.612 84.6306 156.436 86.5239C158.24 88.4376 160.672 89.3945 163.712 89.3945ZM158.402 76.1207C158.483 74.8177 159.01 73.7387 159.963 72.904C160.915 72.0693 162.07 71.6622 163.469 71.6622C164.847 71.6622 165.982 72.0693 166.894 72.904C167.786 73.7387 168.252 74.8177 168.313 76.1207H158.402Z" stroke="white" stroke-width="0.509302" mask="url(#path-4-outside-1_62_1952)"/>
<path d="M180.749 88.9262V78.3805C180.749 74.3291 182.775 72.3136 186.808 72.3747H187.518V67.7533H186.565C185.369 67.7533 184.336 67.9569 183.424 68.3437C182.512 68.7509 181.883 69.1377 181.539 69.4838C181.194 69.8503 180.931 70.2371 180.749 70.6239V68.0791H176.472V88.9262H180.749Z" stroke="white" stroke-width="0.509302" mask="url(#path-4-outside-1_62_1952)"/>
</svg>
