<?xml version="1.0" encoding="utf-8"?>
<!-- Generator: Adobe Illustrator 23.0.3, SVG Export Plug-In . SVG Version: 6.00 Build 0)  -->
<svg version="1.1" id="LOGO" xmlns="http://www.w3.org/2000/svg" xmlns:xlink="http://www.w3.org/1999/xlink" x="0px" y="0px"
     viewBox="0 0 400 400" style="enable-background:new 0 0 400 400;" xml:space="preserve">
<style type="text/css">
	.st0{fill:#2A43A0;}
	.st1{fill:#EE455B;}
	.st2{fill:#FDFDFE;}
</style>
    <circle id="BACKGROUND" class="st0" cx="200" cy="200" r="200"/>
    <path id="V" class="st1" d="M194.36,281.6c1.99-1.26,2-3.28,2.56-4.93c11.12-32.77,22.25-65.54,33.17-98.37
	c1.34-4.04,3-5.88,7.6-5.63c8.26,0.45,16.57,0.13,25.52,0.13c-4.67,13.01-9.09,25.35-13.54,37.68
	c-11.87,32.86-23.84,65.69-35.55,98.6c-1.4,3.94-3.16,5.48-7.41,5.31c-8.48-0.35-16.99-0.22-25.48-0.04
	c-3.12,0.07-4.74-0.87-5.85-3.94c-8.77-24.43-17.67-48.81-26.65-73.16c-1.07-2.91-1.05-4.42,2.36-5.45
	c6.85-2.06,13.63-4.38,20.29-6.97c3.22-1.25,4.29-0.33,5.26,2.7c5.26,16.48,10.7,32.91,16.08,49.35
	C193.22,278.43,193.78,279.95,194.36,281.6z"/>
    <path id="M" class="st2" d="M200.14,153.15c3.53-10.55,6.67-19.91,9.8-29.28c3.63-10.88,7.36-21.73,10.82-32.67
	c0.86-2.71,2.07-3.64,4.9-3.61c11.33,0.15,22.66,0.14,33.99,0.01c2.78-0.03,3.75,0.77,3.73,3.64c-0.1,21.16-0.09,42.32-0.01,63.48
	c0.01,2.52-0.65,3.54-3.34,3.48c-7.66-0.15-15.33-0.19-22.99,0.01c-3.09,0.08-3.52-1.28-3.48-3.87c0.12-7.45,0.04-14.9,0.04-22.59
	c-2.19,1.2-1.94,3.31-2.43,4.91c-4.76,15.41-9.49,30.83-13.94,46.32c-0.96,3.36-2.37,4.44-5.83,4.32
	c-7.65-0.28-15.33-0.3-22.99,0.01c-3.58,0.14-4.78-1.21-5.72-4.45c-4.73-16.28-9.75-32.48-14.68-48.71
	c-0.23-0.76-0.55-1.49-1.67-2.2c0,1.51,0,3.03,0,4.54c0,18-0.08,35.99,0.07,53.98c0.03,3.35-0.68,4.69-4.34,4.55
	c-7.15-0.29-14.33-0.22-21.49-0.02c-2.96,0.08-4.04-0.63-4.03-3.83c0.11-33.16,0.11-66.31,0-99.47c-0.01-3.38,1.15-4.16,4.29-4.11
	c10.99,0.16,22,0.19,32.99-0.01c3.26-0.06,4.56,1.07,5.56,4.13c6.06,18.66,12.35,37.24,18.59,55.84
	C198.48,149.05,199.11,150.5,200.14,153.15z"/>
</svg>
